<svg id="Layer_1" data-name="Layer 1" xmlns="http://www.w3.org/2000/svg" viewBox="0 0 1266 1202"><defs><style>.cls-1{fill:#f5b222;}.cls-2{fill:#fff;}</style></defs><title>logo medical (1)</title><path class="cls-1" d="M421.06,459.09a6.38,6.38,0,0,0-2.59,1.11q-1.85,1.11-4.06,2.4c-1.47.87-2.83,1.66-4.06,2.4a8,8,0,0,1-2.22,1.11q-5.17,3-10.15,5.54a100.08,100.08,0,0,0-9.42,5.54,393.25,393.25,0,0,0-40.06,29.17A284.06,284.06,0,0,0,314.34,540a230.32,230.32,0,0,0-19.2,25.3,194.61,194.61,0,0,0-15.33,28.06,165.71,165.71,0,0,0-10,29.73,120.44,120.44,0,0,0-3.14,30.28,110.17,110.17,0,0,0,2.59,20.86q2.2,9.79,7.38,15a25.18,25.18,0,0,0,19.39,7.2q11.26-.55,24.37-6.64a158.88,158.88,0,0,0,27.51-16.81,348.38,348.38,0,0,0,28.25-23.45q13.85-12.74,26.59-26.58t23.08-26.41a24.93,24.93,0,0,0,5-6.27,26.6,26.6,0,0,1,5.35-6.65q3-1.85,5,1.11a10.4,10.4,0,0,1,2,5.9,76.48,76.48,0,0,1-6.84,29,129,129,0,0,1-14.58,24.19,228,228,0,0,1-24.37,26.4A241.06,241.06,0,0,1,367.51,694a168.4,168.4,0,0,1-32.86,17.36A90,90,0,0,1,301.78,718q-14,0-24.18-4.8a54.64,54.64,0,0,1-17.36-12.74,68.65,68.65,0,0,1-11.82-18.27,115.5,115.5,0,0,1-7.2-21.79q-.74-3.33-1.29-7.57a64.09,64.09,0,0,1-.56-8.31,155.36,155.36,0,0,1,3.88-35.64,301.31,301.31,0,0,1,9.42-31.94,73.74,73.74,0,0,1,5.91-13.66,218.46,218.46,0,0,1,27.51-43.39,272.06,272.06,0,0,1,37.3-38,287.18,287.18,0,0,1,43.39-30.09,213,213,0,0,1,46.16-19.58,17.37,17.37,0,0,1,12.18,0,9.72,9.72,0,0,0,3.69.74,6.63,6.63,0,0,0,4.07-1.84,11.53,11.53,0,0,1,11.63-.37q6.09,3,6.83,10.34a44.33,44.33,0,0,1-2.58,20.31q-2.6,8.87-5.36,16.61t-5.72,15.7q-3,8-5.54,17.17a182.46,182.46,0,0,0-4.43,21.05,26.69,26.69,0,0,1-1.3,4.25,6.45,6.45,0,0,1-2,3.13,7,7,0,0,1-5,3.88q-3.15.55-5.73-2.4a25,25,0,0,0-1.66-2.21,12.94,12.94,0,0,1-1.66-2.59,61.19,61.19,0,0,1-4.62-19.2,106.26,106.26,0,0,1,.37-21.6,76.94,76.94,0,0,1,5.17-20.31A51,51,0,0,1,421.06,459.09Z"/><path class="cls-1" d="M509.68,679.92l-7.38,5.72a53.45,53.45,0,0,1-8.87,5.54,46.92,46.92,0,0,1-10.15,3.69,26.45,26.45,0,0,1-11.26.19,21.06,21.06,0,0,1-8.13-3.14,43.37,43.37,0,0,1-7-5.72q-3.33-3.33-4.07-9.6a49.13,49.13,0,0,1-.37-10,194,194,0,0,1,5.17-20.32,169.67,169.67,0,0,1,8.13-21A117.68,117.68,0,0,1,486.42,595a56.58,56.58,0,0,1,30.28-17,32.12,32.12,0,0,1,12.37-.56,26.07,26.07,0,0,1,11.26,4.25,22.87,22.87,0,0,1,7.39,8.31,15,15,0,0,1,1.11,10.89c-.5,1.48-1.05,3-1.67,4.43A13.2,13.2,0,0,1,545,609a4.44,4.44,0,0,1-2.4,1.66c-.74.13-1.48-.55-2.22-2-.25-.74-.55-1.78-.92-3.14a18.78,18.78,0,0,0-1.66-4.06,12.59,12.59,0,0,0-3.14-3.69,8.2,8.2,0,0,0-5.36-1.67q-7,0-15.87,8.68a142.56,142.56,0,0,0-17,20.31,193,193,0,0,0-14,23.27Q476.45,660,475,665.89q-2.22,9.6.37,10.15t8.12-4.06A112,112,0,0,0,496,659.24q7-8.12,13.29-16.06t10.9-14q4.6-6.09,5-6.46,4.8-3.69,9.6-3.32a13.74,13.74,0,0,1,8.31,3.51,16,16,0,0,1,4.8,7.75A13.31,13.31,0,0,1,547,640q-2.6,5.91-6.83,14a51.42,51.42,0,0,0-5.36,14.4c-.73,6.41,0,10.59,2.22,12.56s6.28,1.84,12.19-.37q7-3,14.77-10.53t15.32-16.06q7.56-8.49,14.22-16.25a101.2,101.2,0,0,1,11.08-11.45,32.65,32.65,0,0,1,2.77-2.4c1.1-.86,2-1,2.77-.55,1.23.5,1.9,1.17,2,2a20.25,20.25,0,0,1,.18,2.77,183.53,183.53,0,0,1-11.45,23.27,145.59,145.59,0,0,1-14.95,21.23,111.8,111.8,0,0,1-18.47,17.35,88.76,88.76,0,0,1-22,12,27.59,27.59,0,0,1-13.29,1.66A25.62,25.62,0,0,1,513.75,691,35.09,35.09,0,0,1,509.68,679.92Z"/><path class="cls-1" d="M690.26,596.46a82.21,82.21,0,0,0-25.85,18.65,227.41,227.41,0,0,0-22.34,27.51q-10.53,15.15-20.5,31.39t-19.94,30.28a6,6,0,0,1-7,1.85,7.89,7.89,0,0,1-5.17-5.73,14.53,14.53,0,0,1,.74-9q2.6-8.86,5-19.94t4.61-23.27Q602,636,604.4,623.79t5-23.27a7.34,7.34,0,0,1,3.51-4.61,13.15,13.15,0,0,1,6.1-1.85,10.52,10.52,0,0,1,5.9,1.29,6.86,6.86,0,0,1,3.33,4.44q1.47,7.38-.93,17.72t-5.35,20.31q6.64-8.12,14.59-19a171.46,171.46,0,0,1,17.35-20.31A97.73,97.73,0,0,1,673.82,583a36,36,0,0,1,22-5,19.35,19.35,0,0,1,9.42,6.09,30.86,30.86,0,0,1,5.36,9.6,36.77,36.77,0,0,1,2,10.53,27.62,27.62,0,0,1-.93,8.86q-2.58,5.17-6.09,11.26A64.72,64.72,0,0,0,700,636.71a33.38,33.38,0,0,0-1.66,12.37c.24,4.07,2.22,7.7,5.91,10.9,1.48,2,1.35,3.45-.37,4.43a15.41,15.41,0,0,1-7,1.66,30.72,30.72,0,0,1-8.86-.92c-2.95-.74-5-1.85-6.28-3.32a37.88,37.88,0,0,1-7.2-16.44,45.36,45.36,0,0,1,.56-16.8A70.11,70.11,0,0,1,681,612,123.43,123.43,0,0,1,690.26,596.46Z"/><path class="cls-1" d="M720.9,669.58a100.65,100.65,0,0,1,3-29.17,104.8,104.8,0,0,1,11.08-27.88,66.16,66.16,0,0,1,18.65-20.87q11.25-8.11,26.4-8.49a19.88,19.88,0,0,1,12,7.75q4.25,5.91,2.4,14.4a54.05,54.05,0,0,1-4.25,13.85q-2.76,5.73-9.41,12-3.33,3-9.23,7.75t-11.45,10a84,84,0,0,0-9.6,10.52q-4.07,5.37-4.06,9.05-1.11,9.62,3,12.37t10.52,2.22A40.79,40.79,0,0,0,773,679.55q6.64-3,10.71-5.17,4.8-3.33,10.71-8.31t11.82-10.52q5.89-5.55,11.45-10.71t9.23-8.5c2-2,3.75-3.81,5.35-5.53a23.2,23.2,0,0,1,5.73-4.44,10.7,10.7,0,0,1,4.61-.37c1.11.25.92,2.1-.55,5.54a65.5,65.5,0,0,1-7.2,11.82q-4.26,5.53-9.05,11.08-6.64,7.39-14.22,15.51a163.75,163.75,0,0,1-15.88,14.95,113.18,113.18,0,0,1-17.35,11.82,56.18,56.18,0,0,1-18.65,6.46q-17,1.11-27.88-7T720.9,669.58ZM780,600.16q-10,3.69-15.69,9.6T756,627.11a148.7,148.7,0,0,0,14.58-12A35.7,35.7,0,0,0,780,600.16Z"/><path class="cls-1" d="M313.59,773a41.19,41.19,0,0,0-28.49-11.4c-26,0-39.27,19-39.14,39.52C246,822,259.26,840,285.1,840a39.92,39.92,0,0,0,27-10.26V804.86h-30.9v-6h37.36V832.1c-9.24,9.24-20.26,14.31-33.43,14.31-30.15,0-45.72-21-45.72-45.22-.13-27.73,18.74-45.85,45.72-45.85a46.17,46.17,0,0,1,32.42,13.3Z"/><path class="cls-1" d="M407.58,845.27l-9.75-21.79H344.88l-9.62,21.79h-7.35l39.77-88.66h7.47l39.77,88.66Zm-12.41-28.12L371.35,763.2l-23.81,53.95Z"/><path class="cls-1" d="M437,762.82H404.92v-6.08h70.93v6.08h-32v82.45H437Z"/><path class="cls-1" d="M495.48,797.52h51.93v6.21H495.48v34.95h56v6.59h-62.7V756.61H550v6.46H495.48Z"/><path class="cls-1" d="M622.52,756.61h3.8l27.11,81.06,27.48-81.06h7.35L657,845.52h-7.34L635.57,804,624.42,768.9l-11.14,34.83-14.19,41.79h-7.34l-31-88.91h7.22l27.35,81.06Z"/><path class="cls-1" d="M770.72,845.27,761,823.48H708l-9.62,21.79h-7.35l39.77-88.66h7.47l39.77,88.66Zm-12.41-28.12L734.49,763.2l-23.81,53.95Z"/><path class="cls-1" d="M801.75,809.81l-34.57-53.07v-.13h8l30,46.61,30.14-46.61h8v.13l-34.7,53.07v35.46h-6.84Z"/><path class="cls-2" d="M1008.5,801.88c-.07-1.4-.14-2.82-.22-4.23a16.07,16.07,0,0,1-.2,2.16A4.5,4.5,0,0,0,1008.5,801.88Z"/><path class="cls-2" d="M1008.08,793.74c0-.26,0-.52,0-.75s-.09-.45-.13-.64C1008,792.81,1008,793.28,1008.08,793.74Z"/><path class="cls-2" d="M1007.37,786.39c0,1.3.14,2.55.28,3.75A25.9,25.9,0,0,0,1007.37,786.39Z"/><path class="cls-2" d="M1007.51,792.27c.11-.46.25-.69.4.05a0,0,0,0,1,0,0c-.09-.73-.19-1.46-.27-2.21A18.55,18.55,0,0,1,1007.51,792.27Z"/><path class="cls-2" d="M1007.51,792.27c-.11.45-.19,1.15-.26,1.39A12.89,12.89,0,0,0,1007.51,792.27Z"/><path class="cls-2" d="M1004,790.63c-.16-.74.81-.62.5-2.08-.49-3.43-1.1-6.35-1.31-9.57-.31-1.46.6-3.84.3-5.29-.49-3.44-2.34-12.18-2-7,.64,7.81,1.22,12.89,1.85,19.89.74,5.68,1.55,11.13,2.27,16.94.15,1.63.17,3.16.21,4.7,0-2,0-4.08,0-6.36C1006,798.85,1004.52,795.31,1004,790.63Z"/><path class="cls-2" d="M1009.91,833.07c-.15-.73-.46-2.19-.46-2.19a36.12,36.12,0,0,0-.5-10.18c-.13.51-.25,1-.38,1.56.18,2,.46,2.18.56.41a69.37,69.37,0,0,0,.17,11.73C1009.55,834.14,1009.85,834.17,1009.91,833.07Z"/><path class="cls-2" d="M1009.53,836.67c-.08-.76-.16-1.52-.23-2.27l-.07.09c.09.76.19,1.52.28,2.27C1009.52,836.73,1009.52,836.7,1009.53,836.67Z"/><path class="cls-2" d="M1005.49,770.83c-.66-9.79-1.2-19-1.68-28a4.69,4.69,0,0,1-.43-2.09,17.07,17.07,0,0,0,.21-2.13c-.07-1.32-.14-2.63-.2-3.93,0-.46-.11-.92-.16-1.39,0,0,0,0,0,0-.16-.73-.29-.51-.4,0a13.6,13.6,0,0,1-.26,1.4c.06-.26.15-1,.26-1.4a16.67,16.67,0,0,0,.13-2.13c-.13-1.2-.25-2.45-.27-3.75a25.55,25.55,0,0,1,.27,3.75c.09.75.18,1.48.28,2.2l.12.64c-.15-3-.29-6-.43-9-.07-.69-.14-1.34-.2-1.87-.27-2.16-.53-4.31-.15-5.67,0-.53-.05-1.07-.08-1.61l-.06.32c0-.24,0-.45.05-.61-.11-2.26-.21-4.52-.31-6.8-.27-1.45-.6-3-.83-4.45,0,0,.25-1,.38-1.56a9.49,9.49,0,0,1-.64-2.49c-.21,1.24-.45,2.37-.58,3.42-.39,1.55,1.18,3.34.39,5.2.79-1.86-.78-3.65-.39-5.2.13-1.05.37-2.18.58-3.42a27.4,27.4,0,0,1,0-7.18,18.55,18.55,0,0,1,0,7.18,9.49,9.49,0,0,0,.64,2.49c-.13.51-.38,1.56-.38,1.56.23,1.5.56,3,.83,4.45-.2-4.43-.4-8.91-.61-13.49-1.27-29.47-3.11-56.61-4.61-87.18-.78-16.56-1.39-32.47-1.82-48.09-.87-31.16-4-59.43-3.55-91,.08-12.1-1.8-34.45-2.65-46.06-2.58-15.47-6.18-7.13-6.36-6.39-2.9,9.8-.47,17.16-1.29,36.79.33-13.36,2.88,9.66,1.28,22.35-2.5,18.38,2.08,44.08,2.58,66.53.12,5.61.66,11.54,1,18.24,1,34.77,4.57,66.91,6.62,103.4.63,9.67,2.06,18.1,3.06,26.21.55,5.94.48,12.32.79,17.15.5,7.6,1.25,14.12,2.07,20.36-.62-7-1.21-12.09-1.85-19.89-.39-5.2,1.46,3.55,1.95,7,.31,1.46-.61,3.84-.3,5.31.21,3.2.83,6.12,1.32,9.55.31,1.46-.66,1.36-.51,2.09.52,4.68,2,8.22,1.91,11.24,0,2.28,0,4.35,0,6.36,0,1.27.07,2.53.19,3.87.14.82.27,1.68.41,2.54a2.26,2.26,0,0,1,.94-1.22c0,1.24-.08,3-.05,4.25,0-1.25.07-3,.05-4.25a2.26,2.26,0,0,0-.94,1.22c1,6.14,1.91,13.24,2.75,19.84a.73.73,0,0,0,.08-.09,68.2,68.2,0,0,1-.17-11.72c-.1,1.75-.38,1.56-.57-.42l.39-1.55a36.12,36.12,0,0,1,.5,10.18s.3,1.47.46,2.19c-.06,1.1-.37,1.07-.61,1.32.07.75.14,1.52.22,2.28C1005.21,776,1005.49,770.83,1005.49,770.83Z"/><path class="cls-2" d="M1003,731c.07.52.13,1.17.2,1.86-.12-2.51-.23-5-.35-7.54C1002.44,726.66,1002.71,728.81,1003,731Z"/><path class="cls-2" d="M1088.18,802.49c-.14-1.33-.27-2.68-.41-4a14.51,14.51,0,0,1-.11,2.07A4.11,4.11,0,0,0,1088.18,802.49Z"/><path class="cls-2" d="M1087.41,794.73c0-.24-.05-.49-.07-.71l-.16-.6C1087.26,793.85,1087.34,794.29,1087.41,794.73Z"/><path class="cls-2" d="M1086.38,787.75a35.18,35.18,0,0,0,.44,3.57A25.92,25.92,0,0,0,1086.38,787.75Z"/><path class="cls-2" d="M1086.77,793.36c.09-.44.22-.67.41,0v0c-.12-.7-.25-1.38-.36-2.1A14.71,14.71,0,0,1,1086.77,793.36Z"/><path class="cls-2" d="M1086.77,793.36c-.09.43-.14,1.11-.2,1.34A10.94,10.94,0,0,0,1086.77,793.36Z"/><path class="cls-2" d="M1083.2,792c-.19-.69.79-.63.42-2-.64-3.25-1.38-6-1.73-9.08-.37-1.37.44-3.69.07-5.06-.64-3.27-2.86-11.51-2.25-6.57,1,7.42,1.78,12.24,2.71,18.9,1,5.38,2,10.54,3,16.06.22,1.55.31,3,.41,4.48-.07-1.93-.14-3.9-.24-6.08C1085.53,799.72,1083.92,796.42,1083.2,792Z"/><path class="cls-2" d="M1090.93,832.21c-.19-.69-.56-2.07-.56-2.07a32.79,32.79,0,0,0-.94-9.7c-.1.5-.21,1-.31,1.51.27,1.87.56,2.06.58.37a62.62,62.62,0,0,0,.67,11.19C1090.61,833.25,1090.91,833.26,1090.93,832.21Z"/><path class="cls-2" d="M1090.7,835.67c-.12-.72-.22-1.45-.33-2.16l-.07.09c.13.72.26,1.44.38,2.15C1090.69,835.73,1090.69,835.7,1090.7,835.67Z"/><path class="cls-2" d="M1083.84,773c-1.09-9.31-2-18.09-2.9-26.67a4.3,4.3,0,0,1-.51-2,14.24,14.24,0,0,0,.11-2.05c-.12-1.26-.25-2.51-.37-3.75-.07-.43-.14-.87-.22-1.31a.06.06,0,0,0,0,0c-.18-.69-.31-.46-.4,0s-.12,1-.2,1.35c.05-.26.11-.91.2-1.35a15,15,0,0,0,0-2c-.18-1.13-.35-2.32-.43-3.56a24,24,0,0,1,.43,3.56c.12.72.25,1.41.37,2.1,0,.19.1.39.16.6-.28-2.86-.55-5.71-.83-8.56-.09-.65-.18-1.27-.27-1.78-.36-2-.72-4.08-.4-5.4,0-.51-.1-1-.14-1.53,0,.09,0,.2-.06.3,0-.23,0-.42,0-.58q-.3-3.22-.6-6.48c-.34-1.37-.72-2.79-1-4.21,0,0,.21-1,.31-1.51a8.58,8.58,0,0,1-.74-2.35c-.16,1.2-.36,2.29-.44,3.3-.31,1.51,1.32,3.13.61,5,.71-1.82-.92-3.44-.61-5,.08-1,.28-2.1.44-3.3a24.76,24.76,0,0,1-.3-6.85,16.89,16.89,0,0,1,.3,6.85,8.58,8.58,0,0,0,.74,2.35c-.1.5-.31,1.51-.31,1.51.3,1.42.68,2.84,1,4.21-.39-4.22-.79-8.49-1.2-12.86-2.53-28.08-5.54-53.91-8.35-83-1.49-15.77-2.78-30.95-3.88-45.85-2.21-29.71-6.52-56.56-7.46-86.72-.45-11.57-3.29-32.81-4.63-43.86-3.25-14.64-6.48-6.5-6.64-5.78-2.46,9.5.27,16.41.31,35.2-.26-12.77,3.29,9.08,2.24,21.29-1.71,17.68,4,42,5.43,63.41.36,5.35,1.16,11,1.81,17.37,2.46,33.17,7.45,63.68,11.06,98.43,1,9.2,2.83,17.18,4.19,24.88.8,5.64,1,11.74,1.52,16.34.82,7.24,1.86,13.43,3,19.34-.93-6.64-1.73-11.48-2.71-18.9-.61-4.95,1.61,3.31,2.25,6.56.37,1.38-.44,3.71-.07,5.09.35,3,1.09,5.81,1.73,9.06.37,1.38-.61,1.33-.42,2,.72,4.44,2.33,7.75,2.39,10.64.1,2.18.17,4.15.24,6.08.08,1.21.17,2.41.35,3.68.17.78.34,1.59.51,2.41a2.2,2.2,0,0,1,.89-1.22c.08,1.19.06,2.88.14,4.06-.08-1.18-.06-2.87-.14-4.06a2.2,2.2,0,0,0-.89,1.22c1.23,5.82,2.49,12.55,3.61,18.81l.07-.09a62.45,62.45,0,0,1-.67-11.19c0,1.68-.31,1.51-.58-.37.1-.5.21-1,.31-1.5.64,3.26,1.28,6.51.94,9.7,0,0,.37,1.38.56,2.07,0,1.05-.32,1-.56,1.29.1.71.21,1.44.32,2.17A63.19,63.19,0,0,0,1083.84,773Z"/><path class="cls-2" d="M1079.6,735c.09.5.18,1.12.28,1.77-.23-2.39-.45-4.78-.68-7.18C1078.88,731,1079.24,733,1079.6,735Z"/><path class="cls-2" d="M294.11,390.34l7.49.07c-1.26-.09-2.5-.22-3.78-.43A11.37,11.37,0,0,0,294.11,390.34Z"/><path class="cls-2" d="M308.53,390.48h1.33l1.14-.1Z"/><path class="cls-2" d="M321.58,390.2c-2.3-.1-4.51,0-6.65,0C316.82,390.33,319,390.31,321.58,390.2Z"/><path class="cls-2" d="M311.19,389.88c.8.18,1.19.37-.14.5H311l3.93-.16C313.53,390.16,312.27,390,311.19,389.88Z"/><path class="cls-2" d="M311.19,389.88c-.78-.17-2-.33-2.43-.43C309.47,389.61,310.28,389.75,311.19,389.88Z"/><path class="cls-2" d="M314.52,385.65c1.32-.14,1,1.06,3.61.8,3.06-.2,5.9-.29,8.69-.41s5.54-.17,8.41-.09c2.61-.2,6.7,1.24,9.3,1,6.15-.17,21.88-1.37,12.64-1.54-13.9-.19-23-.1-35.43-.21-10.13.43-19.87,1-30.23,1.45-2.9.05-5.61-.05-8.34-.13l11.25.56C299.75,387.44,306.18,385.91,314.52,385.65Z"/><path class="cls-2" d="M238.9,390.54l3.9-.5c5.84.72,11.93.24,18-.25l-2.73-.53c-3.49.15-3.89.5-.78.68a171.38,171.38,0,0,0-20.74-.21C237,390.05,237,390.42,238.9,390.54Z"/><path class="cls-2" d="M232.55,389.93l4-.2a1,1,0,0,0-.15-.1l-4,.27Z"/><path class="cls-2" d="M349.28,389.83l12.84.32c4.22.18,8.38.43,12.5.65l24.27,1.38a11.27,11.27,0,0,1,3.75-.17c1.23.26,2.48.52,3.71.69l6.95.6,2.45.1h.07c1.31,0,.94-.25.15-.49s-1.71-.41-2.4-.62c.44.13,1.62.38,2.4.62,1.08.23,2.29.45,3.72.63,2.12.09,4.34.21,6.62.46-2.56-.06-4.75-.23-6.62-.46l-3.94-.14-1.13,0,15.84,1.39,3.33.16c3.83.15,7.67.23,10,1.07l2.82.33-.53-.16,1.05.22,11.95,1.38c2.6,0,5.3,0,8,.14l2.62.87a23.1,23.1,0,0,1,4.52-.14c-2.12-.58-4-1.17-5.84-1.6-2.63-.88-6.13.58-9.18-.88,3,1.46,6.55,0,9.18.88,1.81.43,3.72,1,5.84,1.6a59.87,59.87,0,0,1,6.25.65,63,63,0,0,1,6.27,1.41,41.7,41.7,0,0,1-6.78-.75c-2.07-.36-4-.82-5.74-1.31a23.1,23.1,0,0,0-4.52.14L467,398c-2.69-.11-5.39-.1-8-.14l11.77,1.37,5.95.69,3,.35,3,.42,19.2,2.72,9.49,1.32c1.58.22,3.16.42,4.73.66l4.7.77,18.73,3,9.34,1.5c3.12.52,6.21,1.14,9.33,1.71,12.42,2.34,25,4.48,37.56,7.31L615,423.74l19.45,4.7L645,431.06l10.44,2.86,10.34,2.85c3.43,1,6.87,1.84,10.24,2.91l20.12,6.17c3.33,1,6.62,2.11,9.9,3.22l9.82,3.32,9.71,3.27,9.55,3.4,9.49,3.33,4.73,1.64,4.67,1.73,18.6,6.89L791,479.91c24.33,9.94,48.31,21,72.25,34.87,4.59,2.65,10.19,5.79,16.31,9.15s12.65,7.08,19.11,10.89c13,7.51,25.59,15.39,33.92,21.1,5.87,3.44,9.6,5.4,12,6.26s3.45.65,3.85,0c.83-1.37-1.45-4.85-1.89-5.34-5.51-6.83-11.56-11.56-19.64-17.14s-18.31-11.9-32.85-21.55a55.24,55.24,0,0,1,5,3.42c.86.7,1,1,.54.87a19.35,19.35,0,0,1-3-1.29c-1.49-.72-3.42-1.7-5.65-2.89s-4.76-2.59-7.44-4.12-5.57-3.07-8.44-4.73c-5.71-3.38-11.57-6.76-16.24-9.94-1.69-1.15-3.43-2.33-5.25-3.45s-3.71-2.22-5.65-3.32c-3.88-2.18-7.94-4.43-12.21-6.52S827,482,822.47,479.93L819,478.39l-3.51-1.46L808.42,474c-9.51-4-19.44-7.51-29.21-11.24-2.44-.95-4.91-1.79-7.36-2.68l-7.29-2.65-7.19-2.7-3.55-1.36-3.53-1.3c-4.69-1.74-9.56-3.41-14.68-5.13-2.56-.85-5.16-1.77-7.87-2.61l-8.31-2.61-11-3.68L703,436.26l-5.49-1.65q-11-3.25-21.85-6.39c-14.64-3.8-29.17-7.64-44-10.79C617,414,602,411.24,586.79,408.18c-7.62-1.42-15.34-2.69-23.13-4.1L551.9,402l-12-1.89c-8.51-1.3-16.55-2.3-24.26-3.07l-22.36-1.77c-2.63-.29-5.3-.63-8-1s-5.3-.78-7.9-1.08c-5.18-.65-10.12-1.31-14.4-1.75-6.73-.68-13-1.22-19-1.66s-11.69-.51-17.27-.69L444,390c5.55.44,11.29.9,18.21,1.52,9.22.87-6.57.87-12.7.58-2.63,0-6.6-1.79-9.25-1.68-5.69-.44-11-.31-17.09-.44-2.64.06-2.25-1.11-3.57-1.08-4.17-.18-7.89,0-11.22.11-1.67.06-3.24.11-4.73.09a33.63,33.63,0,0,1-4.21-.16l-11.21-1.13c-2.25-.18-4.48-.35-6.86-.43l-4.55.07a3.85,3.85,0,0,1,2,1.37c-2.19-.18-5.28-.6-7.48-.78,2.2.18,5.29.6,7.48.78a3.85,3.85,0,0,0-2-1.37l-8.52.07c-2.92,0-5.9,0-8.91.12l-18,.38.15.12a167.93,167.93,0,0,1,20.7,1.26c-3.08-.35-2.69-.68.84-.65l2.67.74c-3.07,0-6.14.12-9.16.05a57.71,57.71,0,0,1-8.88-.78l-3.93.3c-1.94-.22-1.84-.59-2.24-.92l-4.06,0C340.28,388.83,349.28,389.83,349.28,389.83Z"/><path class="cls-2" d="M419.84,393.58l-3.31-.16,13.3,1.19C427.53,393.85,423.69,393.72,419.84,393.58Z"/><path class="cls-2" d="M199.4,227.93l8.38.26c-1.41-.12-2.8-.28-4.22-.53A13.82,13.82,0,0,0,199.4,227.93Z"/><path class="cls-2" d="M215.53,228.45l1.48.05,1.28-.08Z"/><path class="cls-2" d="M230.12,228.54c-2.57-.22-5-.18-7.43-.18C224.8,228.52,227.24,228.53,230.12,228.54Z"/><path class="cls-2" d="M218.51,227.92c.89.2,1.33.4-.16.5h-.06l4.4-.06C221.12,228.26,219.72,228.1,218.51,227.92Z"/><path class="cls-2" d="M218.51,227.92c-.86-.19-2.23-.39-2.7-.5C216.59,227.6,217.5,227.77,218.51,227.92Z"/><path class="cls-2" d="M222.33,223.77c1.48-.1,1.09,1.09,4,.9,6.85-.11,12.72-.29,19.13,0,2.92-.13,7.46,1.42,10.38,1.3,6.87,0,24.47-.78,14.15-1.2-15.53-.57-25.66-.74-39.6-1.19-11.33.12-22.24.49-33.83.62-3.25,0-6.27-.19-9.32-.34l12.57.85C205.77,225.18,213,223.82,222.33,223.77Z"/><path class="cls-2" d="M137.64,226.7l4.38-.4c6.51.87,13.34.54,20.18.21l-3-.61c-3.91.07-4.37.41-.89.67a213.5,213.5,0,0,0-23.2-.73C135.57,226.16,135.47,226.54,137.64,226.7Z"/><path class="cls-2" d="M130.56,225.93l4.52-.09a.74.74,0,0,0-.16-.11l-4.52.17Z"/><path class="cls-2" d="M261.11,228.93l14.35.69,14,1,27.11,2.08a13.54,13.54,0,0,1,4.2,0c1.37.34,2.76.6,4.14.82l7.75.81,2.75.17h.07c1.47,0,1.06-.22.17-.48s-1.9-.46-2.68-.7c.5.15,1.82.44,2.68.7,1.21.27,2.56.52,4.15.74,2.37.15,4.85.34,7.4.66-2.86-.13-5.3-.37-7.4-.66l-4.39-.26H334.1l17.7,1.87,3.71.25c4.29.25,8.57.48,11.14,1.41l3.15.42-.6-.18c.47.09.86.18,1.17.25l13.35,1.76c2.91.12,5.92.19,8.93.38l2.92,1a28.15,28.15,0,0,1,5.05,0c-2.36-.65-4.5-1.3-6.52-1.79-2.93-1-6.85.39-10.25-1.16,3.4,1.55,7.32.2,10.25,1.16,2,.49,4.16,1.14,6.52,1.79a71.72,71.72,0,0,1,14,2.49,66.14,66.14,0,0,1-14-2.49,28.15,28.15,0,0,0-5.05,0l-2.92-1c-3-.19-6-.26-8.93-.38L396.86,242c4.42.57,8.87,1.14,13.34,1.88l21.44,3.33c7.08,1.09,14.13,2.11,21.11,3.4l20.92,3.64,10.43,1.82,10.41,2.05,20.9,4.1,5.25,1,5.24,1.16,10.55,2.33c7.06,1.59,14.19,3.09,21.36,4.8l21.73,5.4c31.72,8.19,62,17,91.1,27.07,3.64,1.24,7.28,2.41,10.87,3.66l10.71,3.78,10.63,3.7c1.77.62,3.54,1.21,5.29,1.84l5.24,1.93,20.84,7.65,20.58,8c27.31,11,54.28,23.1,81.39,38.09,5.19,2.89,11.54,6.27,18.45,9.94l10.65,5.76c3.67,1.92,7.3,4,11,6.05,14.7,8.15,29,16.69,38.55,22.87,6.64,3.73,10.85,5.88,13.55,6.85s3.79.78,4.15.07c.76-1.42-2-5.1-2.51-5.62-6.53-7.25-13.45-12.3-22.62-18.31s-20.78-12.81-37.28-23.18a65.19,65.19,0,0,1,5.65,3.66c1,.75,1.16,1,.66.91a21.06,21.06,0,0,1-3.31-1.42c-1.67-.78-3.85-1.85-6.36-3.14s-5.37-2.81-8.39-4.46-6.29-3.33-9.53-5.12c-6.45-3.65-13.07-7.31-18.38-10.7-1.91-1.24-3.89-2.49-5.94-3.71s-4.2-2.39-6.38-3.57c-4.38-2.37-9-4.77-13.76-7.08-9.64-4.5-19.92-9.09-30.65-13.27l-8.07-3.2-4.06-1.6-4.11-1.52L741,316.77l-4.11-1.54-4.11-1.45-8.16-2.94c-5.42-1.95-10.72-4-16-5.94s-10.69-3.78-16.41-5.7l-8.79-2.93-9.29-2.92L662,289.26l-6.1-2c-2-.67-4.08-1.25-6.12-1.87q-12.24-3.67-24.4-7.2c-8.15-2.23-16.3-4.33-24.45-6.46l-6.12-1.59-3.06-.79-3.08-.72-12.33-2.87-12.37-2.86-6.21-1.43-6.25-1.3-25.24-5.25c-4.23-.93-8.52-1.66-12.82-2.48l-13-2.44-13.12-2.51c-4.4-.85-8.85-1.53-13.33-2.33-9.5-1.59-18.46-2.8-27.06-3.88L422,238.77c-5.87-.73-11.91-1.74-17.69-2.62S393,234.53,388.23,234c-7.51-.89-14.51-1.62-21.18-2.25-3.34-.34-6.61-.5-9.81-.71l-9.47-.53,9.86.76c3.15.25,6.21.43,9.3.77,6.2.61,12.6,1.25,20.32,2.08,10.29,1.16-7.34.67-14.18.2-2.94-.07-7.36-2-10.32-2-6.35-.61-12.24-.63-19.09-.95-3,0-2.49-1.18-4-1.18-4.66-.31-8.81-.26-12.54-.24a83.69,83.69,0,0,1-10-.36l-12.51-1.45c-2.51-.25-5-.48-7.66-.63l-5.08-.06a4.37,4.37,0,0,1,2.2,1.43c-2.45-.24-5.9-.76-8.35-1,2.45.24,5.9.76,8.35,1a4.37,4.37,0,0,0-2.2-1.43l-9.53-.17c-3.27-.05-6.6-.2-10-.17l-20.16-.11.17.11a208.93,208.93,0,0,1,23.12,1.85c-3.43-.44-3-.79.95-.61l3,.82-5.13-.12c-1.71,0-3.41-.05-5.1-.12a73.08,73.08,0,0,1-9.92-1l-4.4.2c-2.16-.27-2-.65-2.49-1l-4.54-.12C251.07,227.68,261.11,228.93,261.11,228.93Z"/><path class="cls-2" d="M339.94,234.79l-3.69-.26,14.85,1.59C348.53,235.29,344.24,235,339.94,234.79Z"/><path class="cls-2" d="M266.27,363.13,274,363c-1.31,0-2.6-.08-3.92-.18A18.61,18.61,0,0,0,266.27,363.13Z"/><path class="cls-2" d="M281.21,362.87l1.37,0,1.18-.07C282.91,362.78,282.05,362.84,281.21,362.87Z"/><path class="cls-2" d="M294.71,362.71c-2.38-.06-4.67,0-6.88,0C289.78,362.76,292.05,362.78,294.71,362.71Z"/><path class="cls-2" d="M284,362.45c.83.12,1.24.24-.14.32h-.05l4.07-.08C286.37,362.64,285.07,362.55,284,362.45Z"/><path class="cls-2" d="M284,362.45c-.81-.13-2.08-.19-2.52-.25Z"/><path class="cls-2" d="M287.34,359.76c1.37-.08,1.05.69,3.75.53,6.33-.17,11.76-.48,17.69-.45,2.7-.15,7,.73,9.65.58,3.18-.15,8.83-.21,12.49-.37s5.33-.34.55-.48c-3.59-.09-6.87-.2-10-.24l-8.9.07-17.78.12-7.8.19-3.88.1-3.87.21-15.72.83c-3,.1-5.81.11-8.64.12l11.66.08a85.9,85.9,0,0,0,9.22-.54C279.21,360.2,283,359.77,287.34,359.76Z"/><path class="cls-2" d="M209.13,365l4-.48a151.77,151.77,0,0,0,18.66-.87l-2.82-.23c-3.62.23-4,.47-.8.47-7.38-.08-14.35.22-21.47.68C207.19,364.76,207.11,365,209.13,365Z"/><path class="cls-2" d="M202.56,364.86l4.17-.28-.15-.06-4.17.33Z"/><path class="cls-2" d="M323.39,362.23l26.25.92c4.27.19,8.5.26,12.68.54l12.45.83a19.3,19.3,0,0,1,3.88,0c1.28.22,2.57.39,3.85.52l7.2.5,2.55.1h.07c1.36,0,1-.15.14-.31s-1.78-.29-2.51-.44l2.51.44c1.12.17,2.38.32,3.86.46,2.2.08,4.49.31,6.85.55-2.64-.13-4.9-.38-6.85-.55l-4.07-.15h-1.18c2.75.21,5.49.34,8.22.62l8.19.8,3.44.25a70.88,70.88,0,0,1,10.33,1.1l2.93.29-.56-.12,1.09.17,6.19.61,3.1.31,3.1.39c2.69.17,5.47.31,8.24.52l2.73.71a36.56,36.56,0,0,1,4.65.16c-2.2-.49-4.2-1-6.08-1.36-2.73-.71-6.29,0-9.49-1.06,3.2,1.1,6.76.35,9.49,1.06,1.88.38,3.88.87,6.08,1.36a112.43,112.43,0,0,1,13,1.9,76.48,76.48,0,0,1-13-1.9,36.56,36.56,0,0,0-4.65-.16l-2.73-.71c-2.77-.21-5.55-.35-8.24-.52l24.56,3.07a1389.39,1389.39,0,0,1,157,29.62l11,2.74c3.64.93,7.23,2,10.83,2.94,7.17,2,14.3,3.9,21.34,5.93l20.9,6.28,5.17,1.57,5.13,1.67,10.22,3.33c27,8.92,52.85,17.68,78.32,27.51S832.26,475.17,858,488c9.91,4.85,24.09,11.66,38.07,18.66S923.8,520.86,933,526.06c12.65,6.46,16,7.4,16.32,6.36s-2.7-3.85-3.23-4.27c-6.85-5.68-13.54-9.85-22.38-14.8-4.4-2.52-9.39-5.14-15.19-8.34s-12.49-6.77-20.39-11c10.78,5.79,6.52,4.21-2.9-.29-4.7-2.29-10.78-5.11-16.89-8.21s-12.39-6.16-17.45-9c-14.7-8.06-33.29-16.25-53.18-23.79l-7.47-2.88c-2.51-.95-5-1.85-7.59-2.78l-15.23-5.54-15.18-5.34c-5-1.76-9.94-3.62-14.81-5.29-9.74-3.39-20.14-6.85-31.94-10.46-15.15-5.08-30.24-9.42-45.25-13.72l-22.6-6c-1.88-.48-3.76-1-5.65-1.46l-5.69-1.35L615,395.2l-11.43-2.69c-3.82-.87-7.68-1.64-11.53-2.47-7.72-1.62-15.47-3.34-23.32-4.91l-23.85-4.54-6-1.16-6.1-1.05-12.34-2.11c-4.39-.73-8.65-1.41-12.81-2-2.08-.34-4.14-.6-6.18-.83l-6-.7-23-2.6c-10.88-1.26-22.46-2.91-31.3-4-6.94-.89-13.44-1.29-19.63-1.77s-12.07-.83-17.83-1.18l17.74,1.36,8.88.69c1.55.13,3.15.23,4.8.39l5.14.56c9.52,1.11-6.71.08-13.06-.13-2.72-.07-6.89-1.31-9.61-1.38-5.88-.53-11.31-.68-17.64-1-2.72-.08-2.35-.79-3.71-.8-8.64-.38-15.35.19-20.84-.37l-11.61-1.09c-1.17-.09-2.32-.19-3.5-.26l-3.6-.12-4.71,0a4.56,4.56,0,0,1,2.09.88l-7.76-.53,7.76.53a4.56,4.56,0,0,0-2.09-.88h-18l-9.37,0-2.34,0-2.32,0-4.61.1.16.07a190.27,190.27,0,0,1,21.44,1c-3.19-.28-2.79-.48.86-.4l2.78.48a154.54,154.54,0,0,1-18.68-.76l-4.07.23c-2-.12-1.91-.36-2.33-.57l-4.21,0c1.49.21,4.56.44,7.26.63l3.54.24Z"/><path class="cls-2" d="M396.48,365.83l-3.43-.15c4.6.27,9.18.79,13.78,1.23A66,66,0,0,0,396.48,365.83Z"/><path class="cls-2" d="M256.11,256.14l7.74.22c-1.3-.09-2.58-.2-3.9-.37A19.17,19.17,0,0,0,256.11,256.14Z"/><path class="cls-2" d="M271,256.56l1.37,0,1.18,0Z"/><path class="cls-2" d="M284.48,256.89c-2.38-.16-4.66-.25-6.86-.31C279.56,256.74,281.82,256.85,284.48,256.89Z"/><path class="cls-2" d="M273.76,256.24c.82.13,1.22.26-.15.31h-.05c1.34,0,2.67,0,4.06,0C276.17,256.45,274.87,256.36,273.76,256.24Z"/><path class="cls-2" d="M273.76,256.24l-2.5-.34C272,256,272.82,256.13,273.76,256.24Z"/><path class="cls-2" d="M277.26,253.63c1.36,0,1,.73,3.71.69,6.31.1,11.73,0,17.64.31,2.7,0,6.9,1,9.59,1,6.35,0,22.55.24,13-.44-1.79-.11-3.5-.25-5.15-.32l-4.79-.19-8.88-.31-17.71-.63-7.78-.14c-2.59,0-5.16,0-7.74.06l-15.7.1c-3,0-5.79-.15-8.61-.27l11.61.62C262,254.43,268.64,253.56,277.26,253.63Z"/><path class="cls-2" d="M199.09,255.34l4-.28a150.22,150.22,0,0,0,18.63.05l-2.8-.38c-3.61.06-4,.28-.82.43-7.35-.43-14.3-.48-21.42-.37C197.17,255,197.08,255.24,199.09,255.34Z"/><path class="cls-2" d="M192.55,254.87l4.17-.08-.15-.07-4.17.13Z"/><path class="cls-2" d="M313.08,257.59l3.35.16,3.31.24,6.57.49,12.9,1c8.49.67,16.82,1.22,25,2.17a18.88,18.88,0,0,1,3.86.16c1.27.26,2.55.47,3.82.66l7.16.76,2.53.19h.07c1.36,0,1-.11.15-.31s-1.76-.35-2.48-.53l2.48.53c1.12.21,2.37.41,3.84.61,2.18.17,4.47.37,6.82.65-2.63-.17-4.89-.4-6.82-.65l-4.06-.31-1.17,0,8.18.87c2.72.3,5.44.56,8.15.95l3.42.37A69.73,69.73,0,0,1,410.42,267l2.91.39-.55-.14,1.09.21,12.31,1.65c2.69.18,5.46.35,8.21.68l2.71.79a39,39,0,0,1,4.62.31c-2.18-.56-4.15-1.11-6-1.55a20.56,20.56,0,0,0-4.54-.53,16.33,16.33,0,0,1-4.89-.73,16.33,16.33,0,0,0,4.89.73,20.56,20.56,0,0,1,4.54.53c1.87.44,3.84,1,6,1.55a112.82,112.82,0,0,1,12.89,2.33,76.52,76.52,0,0,1-12.89-2.33,39,39,0,0,0-4.62-.31l-2.71-.79c-2.75-.33-5.52-.5-8.21-.68,4,.5,8.05,1.16,12.11,1.81l12.29,1.95,9.93,1.58c3.29.53,6.58,1,9.83,1.65l19.44,3.52,9.66,1.74c3.22.57,6.4,1.28,9.6,1.91l19.19,3.9c6.42,1.23,12.79,2.75,19.22,4.2l19.39,4.39,19.62,4.93,10,2.51c3.34.84,6.67,1.82,10,2.73L628.12,312l21.14,6.42c7,2.07,13.88,4.41,20.72,6.66s13.66,4.45,20.36,6.9l19.9,7,19.48,7.14,4.83,1.77,4.79,1.84,9.56,3.68c3.18,1.23,6.37,2.42,9.54,3.68l9.46,3.84c25.22,10.24,50.17,21.38,75.54,34.73l17.26,8.91c6.47,3.27,13.35,7,20.26,10.58,13.75,7.34,27.23,14.95,36.27,20.4,6.21,3.39,10.13,5.38,12.56,6.37s3.33,1,3.5.48c.35-1-2.55-3.94-3.07-4.37-6.64-5.89-13.19-10.25-21.86-15.44s-19.45-11.31-35-20.26c10.59,6.08,6.38,4.39-2.88-.37-4.68-2.3-10.61-5.39-16.66-8.57s-12.17-6.5-17.19-9.35c-7.25-4.18-15.43-8.48-24.33-12.58s-18.41-8.21-28.19-12.3c-19.68-7.91-40.46-15.68-59.73-22.88-4.81-1.81-9.78-3.68-15-5.46l-16.59-5.61c-7.49-2.74-15-5.09-22.5-7.54l-11.18-3.6-11.21-3.33-11.19-3.28c-3.73-1.09-7.45-2.2-11.21-3.17l-22.54-6c-3.75-1-7.56-1.88-11.36-2.82l-11.44-2.75L568.64,290,557,287.41l-11.76-2.58-5.92-1.3c-2-.45-4-.88-6-1.26L509,277.4l-6.44-1.25-6.3-1-12.13-1.83-11.63-1.67-5.66-.8-5.6-.69c-10.82-1.48-22.29-3.63-31.08-4.89-13.85-1.73-25.8-3-37.25-4,12.78,1.4,22.12,2.41,36.35,4.07,2.38.28,3.14.47,2.85.52s-1.61,0-3.44-.08c-3.66-.18-9.29-.58-12.44-.86-2.7-.17-6.82-1.55-9.53-1.72-2.92-.36-5.73-.63-8.6-.88l-4.37-.35-4.58-.28c-2.72-.1-2.32-.84-3.68-.89-8.59-.69-15.3-.37-20.75-1.13l-5.95-.78-2.82-.37-2.77-.29c-2.31-.22-4.61-.43-7.06-.58l-4.69-.16a4.66,4.66,0,0,1,2.05,1l-7.71-.84,7.71.84a4.66,4.66,0,0,0-2.05-1c-11.35-.35-24.39-1.13-36.56-1.25l.16.08c3.55.13,7.06.3,10.59.54s7.09.72,10.75,1.22c-3.17-.41-2.76-.59.87-.36l2.75.59c-3.17-.13-6.33-.26-9.44-.48-1.56-.11-3.1-.26-4.63-.4s-3-.29-4.52-.51l-4.07.06c-2-.2-1.89-.44-2.3-.66l-4.19-.15C303.8,256.64,313.08,257.59,313.08,257.59Z"/><path class="cls-2" d="M385.81,263.74l-3.41-.28c4.56.52,9.13.93,13.7,1.54C393.73,264.29,389.77,264.06,385.81,263.74Z"/><path class="cls-2" d="M933.19,812.64c0-.86,0-1.73,0-2.59a5.47,5.47,0,0,1-.4,1.31C932.67,811.93,932.94,812.22,933.19,812.64Z"/><path class="cls-2" d="M933.22,807.66c0-.16,0-.31,0-.46s-.08-.27-.12-.39C933.16,807.09,933.19,807.38,933.22,807.66Z"/><path class="cls-2" d="M932.84,803.17a11.56,11.56,0,0,0,.09,2.29A7.58,7.58,0,0,0,932.84,803.17Z"/><path class="cls-2" d="M932.61,806.76c.17-.28.36-.42.5,0v0c-.06-.45-.13-.89-.18-1.35A5.89,5.89,0,0,1,932.61,806.76Z"/><path class="cls-2" d="M932.61,806.76c-.17.27-.32.69-.42.84A5.48,5.48,0,0,0,932.61,806.76Z"/><path class="cls-2" d="M928.35,805.69c-.14-.45,1.06-.36.78-1.25a36.5,36.5,0,0,1-1-5.87c-.29-.89,1-2.33.73-3.22-.37-2.11-2.08-7.47-2-4.29.26,4.77.64,7.88.94,12.16.54,3.47,1.17,6.81,1.67,10.37a20.92,20.92,0,0,1-.07,2.87c.17-1.23.33-2.48.48-3.88C930.25,810.74,928.67,808.56,928.35,805.69Z"/><path class="cls-2" d="M932.79,831.68l-.43-1.34c.83-2,.46-4.12.09-6.22-.2.31-.39.63-.59,1,.09,1.2.43,1.33.67.26a20.86,20.86,0,0,0-.59,7.16C932.26,832.33,932.64,832.36,932.79,831.68Z"/><path class="cls-2" d="M932.06,833.88c0-.47-.09-.94-.12-1.39l-.1,0c.06.46.13.93.19,1.39Z"/><path class="cls-2" d="M931.57,793.64c-.15-6-.19-11.62-.17-17.12-.24-.42-.51-.71-.38-1.28a5.4,5.4,0,0,0,.4-1.3c0-.8,0-1.6,0-2.4,0-.28-.07-.56-.11-.85v0c-.15-.45-.33-.31-.5,0a5.61,5.61,0,0,1-.42.85c.1-.16.25-.57.42-.85a5.62,5.62,0,0,0,.32-1.3,11.49,11.49,0,0,1-.09-2.29,7.92,7.92,0,0,1,.09,2.29c.05.46.12.91.18,1.35l.12.39c0-1.83,0-3.66.08-5.48,0-.42-.08-.82-.12-1.15-.19-1.32-.37-2.63.2-3.46,0-.32,0-.65,0-1l-.11.19a3.46,3.46,0,0,1,.11-.37c0-1.38,0-2.76.08-4.15-.24-.89-.54-1.81-.73-2.73l.59-.94a3.29,3.29,0,0,1-.63-1.54c-.34.76-.73,1.44-1,2.08-.59.94,1.24,2.06.12,3.18,1.12-1.12-.71-2.24-.12-3.18.23-.64.62-1.32,1-2.08a8.39,8.39,0,0,1,.51-4.38,5.78,5.78,0,0,1-.51,4.38,3.29,3.29,0,0,0,.63,1.54L931,753c.19.92.49,1.84.73,2.73.06-2.71.12-5.44.17-8.24.45-18,0-34.59.27-53.26.17-10.11.51-19.83,1.05-29.37,1.07-19-.84-36.32,1.85-55.56.94-7.38.12-21-.13-28.14-2.15-9.48-7.22-4.46-7.5-4-4.29,5.93-1.77,10.46-4.14,22.42,1.32-8.14,2.93,5.94.05,13.66-4.38,11.16-.44,26.92-1.38,40.62-.23,3.43,0,7.06,0,11.15-1.19,21.22,1.09,40.89,1.12,63.18.12,5.91,1.32,11.08,2,16,.27,3.63-.25,7.52-.2,10.47a90.64,90.64,0,0,0,1.17,12.46c-.29-4.28-.67-7.4-.93-12.17-.13-3.18,1.58,2.19,2,4.29.29.9-1,2.34-.73,3.23a36.57,36.57,0,0,0,1,5.86c.28.89-.92.81-.78,1.26.32,2.86,1.9,5,1.6,6.89-.15,1.39-.32,2.65-.48,3.88a16.82,16.82,0,0,0,0,2.36l.33,1.56a2.48,2.48,0,0,1,1.25-.73c0,.76-.3,1.83-.35,2.59.05-.76.3-1.83.35-2.59a2.48,2.48,0,0,0-1.25.73c.77,3.76,1.48,8.11,2.06,12.15l.11,0a20.92,20.92,0,0,1,.59-7.16c-.24,1.07-.58.95-.67-.26.19-.32.39-.63.58-.94.38,2.1.75,4.2-.08,6.22l.43,1.34c-.15.67-.53.65-.85.8,0,.46.07.92.12,1.39A23.51,23.51,0,0,0,931.57,793.64Z"/><path class="cls-2" d="M931.18,769.29c.05.32.08.71.12,1.14,0-1.54.05-3.07.08-4.61C930.81,766.65,931,768,931.18,769.29Z"/><path class="cls-2" d="M908.45,363.54l1.72-.65a3.24,3.24,0,0,1-1,0C908.73,362.88,908.64,363.2,908.45,363.54Z"/><path class="cls-2" d="M911.77,362.29l.31-.11.21-.21C912.12,362.08,912,362.19,911.77,362.29Z"/><path class="cls-2" d="M914.61,360.77a6.45,6.45,0,0,0-1.48.68A3.87,3.87,0,0,0,914.61,360.77Z"/><path class="cls-2" d="M912.14,361.49c.25.08.41.22.17.47h0l.84-.52A3.34,3.34,0,0,1,912.14,361.49Z"/><path class="cls-2" d="M912.14,361.49c-.24-.09-.58-.12-.71-.17A3.88,3.88,0,0,0,912.14,361.49Z"/><path class="cls-2" d="M911.26,357.26c.25-.25.64.89,1.13.4a19.89,19.89,0,0,1,3.53-2.43c.48-.49,1.93.35,2.41-.14,1.27-.9,4.19-3.86,2.13-2.92-3.08,1.47-5,2.62-7.74,4-2.1,1.4-4.09,2.85-6.27,4.23a9.45,9.45,0,0,1-1.93.68c.88-.16,1.77-.34,2.76-.56C908.61,360.33,909.48,358.3,911.26,357.26Z"/><path class="cls-2" d="M895.64,368.09l.73-.74c1.65.25,2.91-.64,4.17-1.53l-.85-.3c-.76.4-.73.74.08.69a10.62,10.62,0,0,0-5,1.3C895,367.77,895.14,368.12,895.64,368.09Z"/><path class="cls-2" d="M893.91,368l.88-.47-.07-.09-.85.55Z"/><path class="cls-2" d="M920.47,357.14c3.93-1.68,7.66-3.18,11.32-4.58.19-.33.28-.66.71-.69a2.91,2.91,0,0,0,1,0l1.61-.6.52-.32h0c.25-.25.09-.38-.16-.47a3.16,3.16,0,0,1-.72-.17c.14.05.47.09.72.17a3,3,0,0,0,1,0,5.94,5.94,0,0,1,1.49-.67,3.94,3.94,0,0,1-1.49.67l-.83.52-.22.21,3.68-1.34c.26-.15.52-.28.72-.41.81-.51,1.61-1,2.37-.71l.66-.23-.16-.05H943l2.79-1c.5-.45,1-1,1.55-1.38l.84.3a2,2,0,0,1,.79-1c-.63-.13-1.23-.31-1.75-.36-.84-.3-.9,1.68-2.06.94,1.16.74,1.22-1.24,2.06-.94.52.05,1.12.23,1.75.36a4.45,4.45,0,0,1,3.1-.66,3.14,3.14,0,0,1-3.1.66,2,2,0,0,0-.79,1l-.84-.3c-.55.41-1,.93-1.55,1.38l5.54-2c4.36-1.52,8.55-3.09,12.72-4.71l11.92-4.64,9.59,3c6.86,2.23,13.41,4.54,19.78,7,12.71,4.9,25,6.59,37.47,13.09,4.79,2.41,14.35,4.41,19.27,5.61,7.07-.14,5-6,4.79-6.4-2.87-5.33-6.66-3.83-14.19-8.55,5.2,2.94-4.86,1.61-9.35-2.72-6.43-6.5-18.27-5.92-27.38-9.61-2.28-.92-4.83-1.4-7.62-2.25a134.36,134.36,0,0,0-15.2-4.74c-2.54-.66-5.1-1.27-7.68-1.87l-3.87-.9-1-.23-1.52-.38-3.76-1-8.22,3.59q-3,1.32-6.21,2.56c-3.89,1.64-6.87,4.09-9.91,6-2.32,1.19-5.1,1.71-7,2.52a46,46,0,0,0-7.84,4.31c2.73-1.38,4.66-2.53,7.73-4,2.07-.94-.86,2-2.12,2.92-.49.49-1.93-.35-2.42.15a20,20,0,0,0-3.53,2.42c-.49.5-.88-.64-1.13-.4-1.78,1-2.64,3.07-4,3.27-1,.22-1.88.39-2.76.56a8.15,8.15,0,0,0-1.58.58l-.91.7a3,3,0,0,1,1,1c-.52.15-1.33.2-1.85.34.52-.14,1.33-.19,1.85-.34a3,3,0,0,0-1-1c-2.22,1.69-4.84,3.47-7.31,5.06l.08.08a10.69,10.69,0,0,1,5-1.29c-.8,0-.84-.3-.07-.7l.84.3c-1.26.89-2.52,1.78-4.16,1.53l-.74.75c-.5,0-.63-.33-.84-.59l-.89.47A13.77,13.77,0,0,0,920.47,357.14Z"/><path class="cls-2" d="M936.52,350.49c-.2.12-.45.26-.72.4l3.1-1.11C938.14,349.46,937.33,350,936.52,350.49Z"/><path class="cls-2" d="M945.85,407.5l1.22-.4a1.91,1.91,0,0,1-.76-.17C946,406.9,946,407.21,945.85,407.5Z"/><path class="cls-2" d="M948.2,406.73l.22-.07a2.09,2.09,0,0,0,.14-.17C948.44,406.57,948.32,406.66,948.2,406.73Z"/><path class="cls-2" d="M950.18,405.64a3.09,3.09,0,0,0-1,.45A1.91,1.91,0,0,0,950.18,405.64Z"/><path class="cls-2" d="M948.41,406c.19.11.32.26.16.47h0c.19-.13.37-.27.57-.4A1.74,1.74,0,0,1,948.41,406Z"/><path class="cls-2" d="M948.41,406c-.19-.12-.44-.19-.54-.26A2.69,2.69,0,0,0,948.41,406Z"/><path class="cls-2" d="M947.41,401.85c.16-.21.54.93.86.52a10.4,10.4,0,0,1,2.41-1.87c.32-.41,1.45.58,1.77.16.86-.69,2.78-3.16,1.33-2.52-2.15,1-3.48,1.88-5.38,2.85-1.44,1.08-2.79,2.21-4.28,3.26a4.88,4.88,0,0,1-1.37.4c.63,0,1.28-.1,2-.18C945.71,404.45,946.18,402.62,947.41,401.85Z"/><path class="cls-2" d="M936.77,410.24l.48-.62c1.24.45,2.09-.25,3-.94l-.65-.39c-.53.28-.48.62.11.67a5.44,5.44,0,0,0-3.57.61C936.28,409.85,936.4,410.2,936.77,410.24Z"/><path class="cls-2" d="M935.48,409.91l.61-.34-.06-.09-.58.41Z"/><path class="cls-2" d="M954.2,402.91c2.76-1.12,5.39-2.08,8-3,.11-.3.15-.6.47-.57a2,2,0,0,0,.75.17l1.13-.38.36-.23h0c.16-.21,0-.36-.16-.48a2.73,2.73,0,0,1-.55-.25c.11.07.36.14.55.25a1.74,1.74,0,0,0,.72.09,2.84,2.84,0,0,1,1-.45,2,2,0,0,1-1,.45l-.57.4-.14.17,2.6-.82.5-.3c.56-.39,1.11-.77,1.7-.38l.46-.14-.12-.07.21,0,2-.59a12.37,12.37,0,0,1,1-1.13l.65.39a1.35,1.35,0,0,1,.5-.83c-.48-.2-.93-.45-1.32-.57-.64-.39-.53,1.5-1.44.64.91.86.8-1,1.44-.64.39.12.84.37,1.32.57a2.31,2.31,0,0,1,2.23-.24c-.6.78-1.44.57-2.23.24a1.35,1.35,0,0,0-.5.83l-.65-.39a12.37,12.37,0,0,0-1,1.13l3.93-1.19,3.51-1,1,.32,1.08.33,2.64.75,5.28,1.45c3.53,1,7.11,1.94,10.84,3.08,4.8,1.51,9.37,3.14,13.81,4.93,8.85,3.57,17.59,4,26.15,9.19,3.31,1.89,10.05,2.92,13.51,3.62,5.06-.83,3.88-6.41,3.74-6.75-1.8-4.94-4.58-3.11-9.74-7,3.58,2.37-3.55,2.05-6.55-1.76-4.28-5.74-12.78-4-19.12-6.75a49.36,49.36,0,0,0-5.34-1.47c-9.87-4-19.84-4.38-30.52-7.31a14.59,14.59,0,0,0-2.82-.35c-.15,0-.64-.05-1-.09l-1.21-.12-2.27-.16-3.84,2.25c-1.61.85-3.62,1-5,1.52a22.68,22.68,0,0,0-5.43,3.13c1.9-1,3.24-1.83,5.38-2.85,1.45-.64-.47,1.83-1.32,2.52-.33.41-1.46-.58-1.78-.16a9.9,9.9,0,0,0-2.4,1.87c-.33.41-.71-.73-.87-.53-1.23.77-1.7,2.6-2.67,2.63-.71.08-1.36.13-2,.18a3.74,3.74,0,0,0-1.12.35l-.62.56a3.72,3.72,0,0,1,.79,1.06c-.38.07-1,0-1.35.09.38-.07,1,0,1.35-.09a3.72,3.72,0,0,0-.79-1.06,61,61,0,0,1-5,3.92l.07.09a5.4,5.4,0,0,1,3.56-.61c-.59-.06-.64-.39-.11-.68l.65.4c-.86.69-1.71,1.38-2.95.93l-.48.62c-.37,0-.49-.39-.67-.66-.21.1-.41.21-.62.33A8.69,8.69,0,0,0,954.2,402.91Z"/><path class="cls-2" d="M965.5,398.57c-.14.1-.31.19-.49.3l2.19-.68C966.61,397.8,966.06,398.18,965.5,398.57Z"/><path class="cls-2" d="M929.82,395.13l1.35-.53a2.5,2.5,0,0,1-.78,0C930.06,394.67,930,394.89,929.82,395.13Z"/><path class="cls-2" d="M932.42,394.12l.24-.09.18-.15Z"/><path class="cls-2" d="M934.68,393a6.7,6.7,0,0,0-1.18.53A3.86,3.86,0,0,0,934.68,393Z"/><path class="cls-2" d="M932.75,393.57c.19,0,.3.12.1.3h0l.66-.39A2.91,2.91,0,0,1,932.75,393.57Z"/><path class="cls-2" d="M932.75,393.57c-.18-.05-.44-.05-.54-.08A2.27,2.27,0,0,0,932.75,393.57Z"/><path class="cls-2" d="M932.29,390.82c.2-.18.44.55.84.2a18.66,18.66,0,0,1,2.82-1.79c.4-.36,1.46.12,1.86-.23,1-.66,3.4-2.78,1.78-2.05-2.43,1.14-4,2-6.13,3.07-1.68,1-3.27,2.11-5,3.14a9,9,0,0,1-1.52.55c.69-.15,1.38-.32,2.14-.52C930.11,393,930.87,391.6,932.29,390.82Z"/><path class="cls-2" d="M919.78,398.83l.6-.53a5.39,5.39,0,0,0,3.27-1.24l-.63-.15c-.61.3-.6.53,0,.45a10.35,10.35,0,0,0-3.88,1.13C919.32,398.65,919.4,398.88,919.78,398.83Z"/><path class="cls-2" d="M918.47,398.85l.69-.36,0-.05-.68.41Z"/><path class="cls-2" d="M939.35,390.24c3.08-1.32,6-2.51,8.89-3.64.16-.23.25-.45.57-.49a2.85,2.85,0,0,0,.78,0l1.26-.49.41-.23h0c.2-.18.09-.26-.1-.31a2.28,2.28,0,0,1-.54-.07c.1,0,.36,0,.54.07a2.53,2.53,0,0,0,.75-.08,6,6,0,0,1,1.18-.52,3.71,3.71,0,0,1-1.18.52l-.66.4-.17.14,2.88-1.08.57-.31a2.65,2.65,0,0,1,1.85-.6l.52-.19-.13,0H957l2.19-.81c.41-.33.81-.7,1.25-1l.63.15a1.77,1.77,0,0,1,.65-.69c-.47-.05-.92-.13-1.31-.14-.63-.15-.78,1.16-1.63.73.85.43,1-.88,1.63-.73.39,0,.84.09,1.31.14a4.21,4.21,0,0,1,2.41-.6,2.88,2.88,0,0,1-2.41.6,1.77,1.77,0,0,0-.65.69l-.63-.15c-.44.3-.84.67-1.25,1l4.34-1.61c3-1.09,5.88-2.19,8.76-3.32l8.24-3.27,4.88,1.2,5.54,1.4c5.48,1.46,10.73,3,15.85,4.57,10.21,3.2,19.93,4.32,30,8.57,3.89,1.56,11.46,2.88,15.36,3.67,5.49-.08,3.51-3.9,3.31-4.14-2.59-3.45-5.44-2.49-11.61-5.56,4.24,1.91-3.67,1-7.45-1.79-5.44-4.22-14.61-3.87-22-6.28-1.83-.6-3.85-.92-6.08-1.47a134.69,134.69,0,0,0-13.4-3.37l-6.75-1.34-3.42-.65-1.72-.34-3.13-.66-4.84,2.08c-1.19.5-2.4,1-3.63,1.49a61.46,61.46,0,0,0-7.89,4.51c-1.83.92-4,1.41-5.52,2.05a44.34,44.34,0,0,0-6.22,3.28c2.16-1.06,3.7-1.93,6.13-3.07,1.63-.74-.77,1.38-1.77,2-.4.36-1.47-.12-1.87.23a19.27,19.27,0,0,0-2.82,1.8c-.4.35-.64-.38-.84-.21-1.42.79-2.18,2.18-3.21,2.38l-2.14.52a7.5,7.5,0,0,0-1.24.47l-.74.51a1.66,1.66,0,0,1,.68.6c-.41.13-1,.2-1.43.33.4-.13,1-.2,1.43-.33a1.66,1.66,0,0,0-.68-.6c-1.78,1.24-3.88,2.56-5.85,3.75l.06.05a10.07,10.07,0,0,1,3.87-1.13c-.62.07-.63-.15,0-.46l.63.16a5.52,5.52,0,0,1-3.27,1.24l-.6.53c-.38,0-.46-.18-.61-.34l-.7.36A12.62,12.62,0,0,0,939.35,390.24Z"/><path class="cls-2" d="M952,385c-.16.1-.35.2-.57.31l2.43-.91A2.67,2.67,0,0,0,952,385Z"/><path class="cls-2" d="M919.57,383.63,921,383a3.21,3.21,0,0,1-.83.07C919.84,383.16,919.75,383.39,919.57,383.63Z"/><path class="cls-2" d="M922.35,382.51l.26-.11.19-.15Z"/><path class="cls-2" d="M924.76,381.25a6.22,6.22,0,0,0-1.25.58A4.73,4.73,0,0,0,924.76,381.25Z"/><path class="cls-2" d="M922.71,381.94c.19,0,.32.11.1.3h0l.71-.42A3.48,3.48,0,0,1,922.71,381.94Z"/><path class="cls-2" d="M922.71,381.94c-.19,0-.47,0-.58-.06A2.65,2.65,0,0,0,922.71,381.94Z"/><path class="cls-2" d="M922.25,379.17c.22-.18.47.55.89.17a21.51,21.51,0,0,1,3-1.92c.42-.38,1.55.06,2-.31,1.08-.71,3.65-2.95,1.91-2.14-2.59,1.25-4.23,2.19-6.54,3.35-1.8,1.12-3.5,2.26-5.36,3.37a9.78,9.78,0,0,1-1.62.62c.72-.18,1.46-.37,2.28-.61C919.91,381.46,920.74,380,922.25,379.17Z"/><path class="cls-2" d="M908.87,387.78l.64-.56a6.25,6.25,0,0,0,3.49-1.39l-.67-.12c-.65.33-.64.56,0,.45a11.54,11.54,0,0,0-4.14,1.3C908.38,387.61,908.46,387.84,908.87,387.78Z"/><path class="cls-2" d="M907.47,387.85l.74-.39-.05,0-.73.43Z"/><path class="cls-2" d="M929.76,378.31c3.29-1.47,6.42-2.79,9.49-4,.17-.24.27-.47.62-.52a3.14,3.14,0,0,0,.82-.06l1.34-.54.45-.26h0c.21-.19.09-.26-.11-.3a3.36,3.36,0,0,1-.57-.05c.11,0,.38,0,.57.05a3,3,0,0,0,.8-.11,7.15,7.15,0,0,1,1.25-.58,4.31,4.31,0,0,1-1.25.58l-.7.42-.19.16,3.07-1.22.61-.33a2.94,2.94,0,0,1,2-.68l.55-.21-.13,0a1,1,0,0,1,.23,0l2.33-.91c.44-.35.87-.74,1.34-1.06l.67.13a1.91,1.91,0,0,1,.7-.72c-.51,0-1-.1-1.4-.1-.66-.12-.84,1.21-1.73.81.89.4,1.07-.93,1.73-.81.42,0,.89.07,1.4.1a4.75,4.75,0,0,1,2.56-.71,3.34,3.34,0,0,1-2.56.71,1.91,1.91,0,0,0-.7.72l-.67-.13c-.47.32-.9.71-1.34,1.06l4.63-1.8c3.67-1.4,7.21-2.83,10.74-4.28l10.23-4.24,8.1,2.31c5.85,1.72,11.43,3.5,16.88,5.36,10.87,3.71,21.24,5.3,32,10.05,4.13,1.76,12.2,3.45,16.36,4.44,5.87.19,3.81-3.74,3.6-4-2.72-3.6-5.78-2.77-12.32-6.15,4.5,2.12-3.95.85-7.94-2.16-5.75-4.5-15.56-4.59-23.36-7.37-1.95-.69-4.11-1.11-6.48-1.78-4.29-1.46-8.54-2.63-12.82-3.68-2.14-.53-4.29-1-6.45-1.52l-3.25-.73-1.64-.38L976,353l-6.55,3c-1.74.77-3.51,1.54-5.32,2.29a72.93,72.93,0,0,0-8.44,4.88c-2,1-4.25,1.58-5.88,2.29a51.12,51.12,0,0,0-6.65,3.56c2.31-1.16,4-2.1,6.55-3.35,1.74-.81-.83,1.44-1.91,2.14-.43.38-1.55-.07-2,.31a22,22,0,0,0-3,1.92c-.43.38-.68-.35-.89-.16-1.52.84-2.35,2.28-3.45,2.53l-2.28.61a9,9,0,0,0-1.32.52l-.79.55a1.67,1.67,0,0,1,.72.58c-.44.14-1.1.24-1.53.39.43-.15,1.09-.25,1.53-.39a1.67,1.67,0,0,0-.72-.58c-1.9,1.32-4.15,2.74-6.26,4l.06.05a11.68,11.68,0,0,1,4.13-1.29c-.66.1-.67-.13,0-.46l.67.12a6.25,6.25,0,0,1-3.48,1.39l-.65.56c-.41.06-.49-.17-.65-.32l-.75.39A14,14,0,0,0,929.76,378.31Z"/><path class="cls-2" d="M943.22,372.47c-.17.11-.38.22-.6.34l2.58-1A3,3,0,0,0,943.22,372.47Z"/><path class="cls-2" d="M1085.64,850.43l-1.79,0a3.17,3.17,0,0,1,.91.41C1085.15,851,1085.35,850.68,1085.64,850.43Z"/><path class="cls-2" d="M1082.19,850.39h-.32l-.27.11Z"/><path class="cls-2" d="M1079.08,850.76a6,6,0,0,0,1.59-.08A3.83,3.83,0,0,0,1079.08,850.76Z"/><path class="cls-2" d="M1081.57,851c-.19-.18-.29-.36,0-.5h0l-.93.19A2.74,2.74,0,0,1,1081.57,851Z"/><path class="cls-2" d="M1081.57,851c.19.17.49.32.59.42A2.85,2.85,0,0,0,1081.57,851Z"/><path class="cls-2" d="M1080.88,855.26c-.31.14-.26-1.07-.88-.78a19.31,19.31,0,0,1-4,1c-.62.28-1.63-1-2.24-.75-1.46.37-5.15,2.07-3,1.95,3.3-.26,5.45-.63,8.41-.92,2.4-.53,4.71-1.16,7.17-1.65a9.4,9.4,0,0,1,2,.08c-.86-.17-1.73-.34-2.7-.49C1084.36,853.36,1082.86,854.94,1080.88,855.26Z"/><path class="cls-2" d="M1098.83,850.86l-.92.43c-1.41-.83-2.86-.46-4.31-.09l.66.58c.83-.09.92-.43.18-.67a10.12,10.12,0,0,0,5,.61C1099.29,851.39,1099.3,851,1098.83,850.86Z"/><path class="cls-2" d="M1100.36,851.6l-1,.12,0,.1,1-.19Z"/><path class="cls-2" d="M1072.5,852c-4.14.14-8,.17-11.86.14-.29.24-.48.51-.88.38a3.05,3.05,0,0,0-.91-.41l-1.66,0-.58.1h0c-.31.14-.21.33,0,.5a3.77,3.77,0,0,1,.6.42c-.11-.1-.4-.25-.6-.42a2.74,2.74,0,0,0-.9-.32,5.88,5.88,0,0,1-1.58.08,3.78,3.78,0,0,1,1.58-.08l.94-.19.26-.11c-1.27,0-2.53-.05-3.8-.09-.29,0-.56.07-.79.12-.91.18-1.82.36-2.4-.21l-.68,0,.14.1a1.79,1.79,0,0,1-.26-.1l-2.88-.09c-.61.24-1.25.53-1.88.72l-.66-.59a1.93,1.93,0,0,1-1.06.63c.53.34,1,.73,1.45,1,.66.58,1.42-1.24,2.2-.13-.78-1.11-1.54.71-2.2.13-.44-.24-.92-.63-1.45-1a4.23,4.23,0,0,1-3-.52,3,3,0,0,1,3,.52,1.93,1.93,0,0,0,1.06-.63l.66.59c.63-.19,1.27-.48,1.88-.72l-5.71-.19c-12.47-.48-24-.09-36.89-.36-7-.19-13.74-.56-20.35-1.11-13.19-1.11-25.15.77-38.51-2-5.12-.95-14.57-.16-19.49.07-6.54,2.14-3,7.21-2.7,7.5,4.15,4.29,7.27,1.79,15.58,4.18-5.66-1.34,4.08-2.92,9.45,0,7.78,4.41,18.66.5,28.16,1.46,2.37.24,4.88,0,7.72,0,14.71,1.23,28.31-1,43.75-1,4.09-.1,7.66-1.3,11.09-2,2.51-.26,5.22.26,7.26.22a44.63,44.63,0,0,0,8.61-1.15c-3,.28-5.11.65-8.41.91-2.2.12,1.5-1.58,3-2,.62-.28,1.63,1,2.25.75a19.38,19.38,0,0,0,4-1c.62-.29.57.92.88.78,2-.32,3.48-1.89,4.76-1.59,1,.15,1.84.32,2.69.49a8.13,8.13,0,0,0,1.64,0l1.07-.32a3,3,0,0,1-.52-1.26c.53,0,1.28.3,1.8.36-.52-.06-1.27-.31-1.8-.36a3,3,0,0,0,.52,1.26c2.6-.77,5.61-1.47,8.4-2.05l0-.1a10.13,10.13,0,0,1-5-.61c.74.25.66.58-.18.67l-.66-.58c1.46-.37,2.91-.74,4.31.09l.93-.42c.47.15.45.53.56.85q.48,0,1-.12A13,13,0,0,0,1072.5,852Z"/><path class="cls-2" d="M1055.63,852.35l.79-.11-3.19-.09C1053.81,852.72,1054.72,852.54,1055.63,852.35Z"/><path class="cls-2" d="M1085.91,889.86l-1.76-.06a3,3,0,0,1,.89.43C1085.43,890.36,1085.63,890.09,1085.91,889.86Z"/><path class="cls-2" d="M1082.52,889.75h-.31l-.26.11Z"/><path class="cls-2" d="M1079.46,890.07A5.78,5.78,0,0,0,1081,890,3.63,3.63,0,0,0,1079.46,890.07Z"/><path class="cls-2" d="M1081.91,890.35c-.19-.17-.29-.36,0-.5h0l-.93.17A2.78,2.78,0,0,1,1081.91,890.35Z"/><path class="cls-2" d="M1081.91,890.35c.18.17.47.33.57.43A3.55,3.55,0,0,0,1081.91,890.35Z"/><path class="cls-2" d="M1081.16,894.6c-.31.13-.25-1.07-.86-.8a17.92,17.92,0,0,1-4,.9c-.61.28-1.58-1.05-2.19-.78-1.44.35-5.1,2-2.94,1.9,3.25-.2,5.37-.54,8.29-.77,2.37-.5,4.64-1.08,7.07-1.53a9,9,0,0,1,2,.1c-.83-.18-1.69-.36-2.63-.53C1084.61,892.77,1083.11,894.31,1081.16,894.6Z"/><path class="cls-2" d="M1098.88,890.51l-.92.41c-1.37-.86-2.8-.51-4.23-.17l.64.6c.82-.08.91-.41.18-.67a9.81,9.81,0,0,0,4.87.69C1099.31,891,1099.33,890.67,1098.88,890.51Z"/><path class="cls-2" d="M1100.36,891.27l-.94.1a.38.38,0,0,0,0,.1l1-.18Z"/><path class="cls-2" d="M1073,891.21c-4.07.07-7.91,0-11.65-.06-.29.23-.49.51-.88.37a2.72,2.72,0,0,0-.88-.42l-1.64-.06-.57.1h0c-.3.13-.21.32,0,.49a3.69,3.69,0,0,1,.57.43c-.1-.1-.38-.25-.57-.43a2.72,2.72,0,0,0-.88-.33,5.77,5.77,0,0,1-1.56.06,3.5,3.5,0,0,1,1.56-.06l.92-.17.26-.11-3.73-.15c-.29,0-.56.06-.78.1-.9.17-1.8.33-2.36-.25l-.66,0,.13.11-.25-.11-2.83-.14c-.61.23-1.24.51-1.86.69l-.64-.6a2,2,0,0,1-1.05.61c.51.35,1,.75,1.41,1,.64.6,1.41-1.21,2.16-.08-.75-1.13-1.52.68-2.16.08-.43-.24-.9-.64-1.41-1a4.09,4.09,0,0,1-3-.57,2.89,2.89,0,0,1,3,.57,2,2,0,0,0,1.05-.61l.64.6c.62-.18,1.25-.46,1.86-.69l-5.61-.28c-12.25-.7-23.54-.49-36.25-1-6.89-.3-13.5-.78-20-1.45-12.94-1.32-24.73.35-37.81-2.6-5-1-14.33-.41-19.16-.25-6.47,2-3.08,7.15-2.77,7.44,4,4.37,7.1,1.92,15.23,4.45-5.53-1.43,4.06-2.85,9.3.13,7.57,4.54,18.32.81,27.64,1.93,2.33.28,4.81.06,7.59.13,14.45,1.48,27.85-.54,43-.27,4,0,7.54-1.16,10.93-1.79,2.47-.22,5.12.35,7.13.34a42.48,42.48,0,0,0,8.48-1c-2.91.24-5,.57-8.28.77-2.17.09,1.5-1.55,2.93-1.89.61-.28,1.58,1,2.2.78a18,18,0,0,0,4-.91c.62-.27.55.93.86.8,2-.28,3.45-1.83,4.7-1.51,1,.17,1.8.35,2.64.53a7.16,7.16,0,0,0,1.61.07c.34-.11.7-.21,1.06-.31a3,3,0,0,1-.49-1.27c.52.07,1.25.33,1.76.39-.51-.06-1.24-.32-1.76-.39a3,3,0,0,0,.49,1.27c2.57-.72,5.53-1.37,8.28-1.9l0-.11A9.83,9.83,0,0,1,1070,892c.73.26.64.59-.18.67l-.64-.6c1.44-.34,2.87-.69,4.23.17l.92-.41c.46.16.44.54.54.86.31,0,.63-.06,1-.1A13.09,13.09,0,0,0,1073,891.21Z"/><path class="cls-2" d="M1056.39,891.27c.22,0,.49-.07.78-.1L1054,891C1054.59,891.61,1055.49,891.44,1056.39,891.27Z"/><path class="cls-2" d="M1111.43,942.1l-2.29-.06a4.55,4.55,0,0,1,1.16.43C1110.8,942.61,1111.06,942.34,1111.43,942.1Z"/><path class="cls-2" d="M1107,942h-.41l-.34.1Z"/><path class="cls-2" d="M1103.05,942.29a10.5,10.5,0,0,0,2,0A5.86,5.86,0,0,0,1103.05,942.29Z"/><path class="cls-2" d="M1106.22,942.58c-.24-.18-.36-.37,0-.5h0l-1.2.17A4.49,4.49,0,0,1,1106.22,942.58Z"/><path class="cls-2" d="M1106.22,942.58c.24.17.61.33.74.43A4,4,0,0,0,1106.22,942.58Z"/><path class="cls-2" d="M1105.22,946.82c-.4.13-.31-1.07-1.1-.8a29.61,29.61,0,0,1-5.2.88c-.8.27-2.05-1.06-2.84-.8-1.87.34-6.64,1.95-3.83,1.88,4.23-.18,7-.5,10.77-.72,3.08-.48,6-1.06,9.2-1.49a14.19,14.19,0,0,1,2.54.12c-1.09-.19-2.2-.38-3.43-.55C1109.71,945,1107.75,946.54,1105.22,946.82Z"/><path class="cls-2" d="M1128.27,942.83l-1.19.4c-1.78-.86-3.64-.52-5.5-.19l.82.6c1.07-.07,1.19-.4.25-.66a16.44,16.44,0,0,0,6.32.72C1128.83,943.37,1128.86,943,1128.27,942.83Z"/><path class="cls-2" d="M1130.2,943.6l-1.23.1,0,.1,1.23-.17Z"/><path class="cls-2" d="M1094.61,943.38c-5.3,0-10.28,0-15.15-.12-.37.23-.63.5-1.14.36a4.43,4.43,0,0,0-1.14-.43c-.71,0-1.42,0-2.12-.06l-.75.1h0c-.4.14-.28.32,0,.5a5.28,5.28,0,0,1,.75.43c-.14-.1-.51-.26-.75-.43a4.37,4.37,0,0,0-1.14-.34,9.76,9.76,0,0,1-2,.05,6.12,6.12,0,0,1,2-.05l1.2-.16.34-.11-4.85-.17c-.37,0-.72,0-1,.09-1.17.16-2.34.32-3.06-.26l-.87,0,.17.11a1.48,1.48,0,0,1-.32-.11l-3.67-.16c-.8.23-1.61.52-2.43.69l-.83-.6a2.71,2.71,0,0,1-1.36.6c.66.36,1.26.75,1.82,1,.83.6,1.84-1.21,2.81-.08-1-1.13-2,.68-2.81.08-.56-.25-1.16-.64-1.82-1a6.66,6.66,0,0,1-3.87-.59,4.59,4.59,0,0,1,3.87.59,2.71,2.71,0,0,0,1.36-.6l.83.6c.82-.17,1.63-.46,2.43-.69l-7.29-.3c-15.91-.77-30.59-.63-47.1-1.2-8.94-.34-17.53-.86-26-1.56-16.8-1.4-32.13.21-49.11-2.82-6.51-1.06-18.61-.49-24.89-.36-8.42,2-4.05,7.14-3.66,7.43,5.18,4.39,9.22,2,19.77,4.53-7.18-1.46,5.29-2.82,12.07.18,9.81,4.59,23.81.92,35.91,2.09,3,.3,6.24.09,9.86.18,18.76,1.56,36.18-.38,55.9,0,5.23,0,9.82-1.12,14.22-1.73,3.21-.21,6.65.38,9.26.38a70.25,70.25,0,0,0,11-1c-3.78.22-6.55.54-10.77.72-2.81.08,2-1.53,3.82-1.87.8-.27,2.05,1.06,2.85.79a29.35,29.35,0,0,0,5.19-.88c.8-.27.71.93,1.11.8,2.54-.27,4.49-1.81,6.12-1.48,1.23.18,2.34.36,3.42.55a13.16,13.16,0,0,0,2.09.07l1.38-.3a2.61,2.61,0,0,1-.62-1.27c.67.06,1.61.33,2.28.4-.67-.07-1.61-.34-2.28-.4a2.61,2.61,0,0,0,.62,1.27c3.34-.71,7.2-1.34,10.78-1.86a.47.47,0,0,0,0-.1,16.24,16.24,0,0,1-6.31-.72c.94.26.82.6-.25.67l-.82-.6c1.87-.34,3.73-.68,5.5.18l1.19-.4c.6.17.57.54.69.87l1.24-.1A19,19,0,0,0,1094.61,943.38Z"/><path class="cls-2" d="M1073.06,943.35c.29,0,.64-.06,1-.09l-4.07-.16C1070.72,943.68,1071.89,943.52,1073.06,943.35Z"/><path class="cls-1" d="M274.34,916.53l-15,23h-1l-15.12-23v34.84h-3v-39.2h3.58l15,22.84,14.84-22.84h3.7v39.2h-3Z"/><path class="cls-1" d="M350.5,930.25h23V933h-23v15.45h24.75v2.92H347.53v-39.2h27.05V915H350.5Z"/><path class="cls-1" d="M476.39,931.32c.22,10-6.16,20-19.88,20H443.24v-39.2h13.27C469.78,912.17,476.16,921.69,476.39,931.32ZM446.26,915v33.43h10.25c11.65,0,17-8.73,16.85-17.13-.16-8.18-5.54-16.3-16.85-16.3Z"/><path class="cls-1" d="M545.49,951.37v-39.2h3v39.2Z"/><path class="cls-1" d="M651.05,945.93a20.18,20.18,0,0,1-14.28,5.88c-13.21,0-20.1-9.24-20.16-19.82s6.72-20.27,20.16-20.27a20.18,20.18,0,0,1,14.28,5.88L649,919.39a17.16,17.16,0,0,0-12.21-5c-11.42,0-17.3,8.06-17.25,17.47.12,9.18,5.94,17.13,17.25,17.13A17.52,17.52,0,0,0,649,944Z"/><path class="cls-1" d="M749.16,951.37l-4.31-9.64H721.44l-4.25,9.64h-3.25l17.58-39.2h3.31l17.58,39.2Zm-5.49-12.44-10.52-23.85-10.53,23.85Z"/><path class="cls-1" d="M822.63,912.17v36.34H844.7v2.86H819.61v-39.2Z"/></svg>