<svg id="Layer_1" data-name="Layer 1" xmlns="http://www.w3.org/2000/svg" viewBox="0 0 1266 1202"><defs><style>.cls-1{fill:#18207b;}.cls-2{fill:#f5b222;}</style></defs><title>logo medical (1)</title><path class="cls-1" d="M432.86,463.78a6.38,6.38,0,0,0-2.59,1.11q-1.84,1.11-4.06,2.4c-1.47.86-2.83,1.66-4.06,2.4a8,8,0,0,1-2.22,1.11q-5.18,3-10.15,5.53a104.61,104.61,0,0,0-9.42,5.54,393.32,393.32,0,0,0-40.06,29.18,284.06,284.06,0,0,0-34.16,33.6,229.37,229.37,0,0,0-19.2,25.3A194.61,194.61,0,0,0,291.61,598a165.71,165.71,0,0,0-10,29.73A120.44,120.44,0,0,0,278.5,658a110.38,110.38,0,0,0,2.59,20.86q2.21,9.79,7.38,15a25.18,25.18,0,0,0,19.39,7.2q11.26-.56,24.37-6.65a158.79,158.79,0,0,0,27.51-16.8A352.58,352.58,0,0,0,388,654.14q13.85-12.74,26.59-26.59t23.08-26.4a25.18,25.18,0,0,0,5-6.28,26.73,26.73,0,0,1,5.35-6.64q3-1.85,5,1.1a10.43,10.43,0,0,1,2,5.91,76.53,76.53,0,0,1-6.84,29,129,129,0,0,1-14.58,24.19,228.78,228.78,0,0,1-24.37,26.4,242,242,0,0,1-29.92,23.82A168.35,168.35,0,0,1,346.45,716a89.83,89.83,0,0,1-32.87,6.65q-14,0-24.18-4.8A54.64,54.64,0,0,1,272,705.1a68.55,68.55,0,0,1-11.82-18.28A115.27,115.27,0,0,1,253,665q-.74-3.31-1.29-7.57a63.79,63.79,0,0,1-.55-8.3,155.37,155.37,0,0,1,3.87-35.64,301.31,301.31,0,0,1,9.42-31.94,73.82,73.82,0,0,1,5.91-13.67,219.49,219.49,0,0,1,27.51-43.39,272.53,272.53,0,0,1,37.3-38,287.24,287.24,0,0,1,43.39-30.1,213,213,0,0,1,46.16-19.57,17.26,17.26,0,0,1,12.18,0,9.72,9.72,0,0,0,3.69.74,6.6,6.6,0,0,0,4.07-1.85,11.58,11.58,0,0,1,11.63-.37q6.09,3,6.83,10.34A44.3,44.3,0,0,1,460.56,466q-2.6,8.86-5.36,16.62t-5.72,15.7q-3,7.94-5.54,17.17a182,182,0,0,0-4.43,21,26.3,26.3,0,0,1-1.3,4.24,6.44,6.44,0,0,1-2,3.14,7,7,0,0,1-5,3.88q-3.15.56-5.73-2.4a26.66,26.66,0,0,0-1.66-2.22,12.58,12.58,0,0,1-1.66-2.58,61.19,61.19,0,0,1-4.62-19.2,106.37,106.37,0,0,1,.37-21.61,77,77,0,0,1,5.17-20.31A51.08,51.08,0,0,1,432.86,463.78Z"/><path class="cls-1" d="M521.48,684.61l-7.38,5.72a53.77,53.77,0,0,1-8.86,5.54,47.74,47.74,0,0,1-10.16,3.69,26.45,26.45,0,0,1-11.26.19,21.06,21.06,0,0,1-8.13-3.14,43.35,43.35,0,0,1-7-5.73q-3.33-3.32-4.07-9.6a48.25,48.25,0,0,1-.36-10A189,189,0,0,1,469.42,651a168.18,168.18,0,0,1,8.12-21,117.85,117.85,0,0,1,20.68-30.28,56.62,56.62,0,0,1,30.28-17,31.93,31.93,0,0,1,12.37-.56,25.94,25.94,0,0,1,11.26,4.25,22.71,22.71,0,0,1,7.39,8.31,15,15,0,0,1,1.11,10.89c-.5,1.48-1,3-1.67,4.43a13.34,13.34,0,0,1-2.21,3.7,4.5,4.5,0,0,1-2.4,1.66c-.74.12-1.48-.56-2.22-2-.24-.74-.55-1.79-.92-3.14a19.06,19.06,0,0,0-1.66-4.07,12.72,12.72,0,0,0-3.14-3.69,8.19,8.19,0,0,0-5.35-1.66q-7,0-15.88,8.68a142,142,0,0,0-17,20.31,192.93,192.93,0,0,0-14,23.26q-5.91,11.64-7.39,17.54-2.22,9.61.37,10.16t8.12-4.06a112,112,0,0,0,12.56-12.74q7-8.11,13.29-16.07t10.9-14q4.61-6.09,5-6.46,4.8-3.69,9.6-3.32a13.68,13.68,0,0,1,8.31,3.5,16,16,0,0,1,4.8,7.76,13.28,13.28,0,0,1-.92,9.41q-2.58,5.92-6.83,14a51.31,51.31,0,0,0-5.36,14.4c-.73,6.4,0,10.59,2.22,12.55s6.28,1.85,12.19-.36q7-3,14.77-10.53t15.32-16.06q7.56-8.49,14.22-16.25a100.35,100.35,0,0,1,11.08-11.45,30.94,30.94,0,0,1,2.77-2.4c1.11-.86,2-1,2.77-.55,1.23.49,1.9,1.17,2,2a20.15,20.15,0,0,1,.18,2.77,183.42,183.42,0,0,1-11.45,23.26,145.15,145.15,0,0,1-15,21.24,112.13,112.13,0,0,1-18.46,17.35,88.64,88.64,0,0,1-22,12A27.47,27.47,0,0,1,544,708.42a25.54,25.54,0,0,1-18.46-12.74A35,35,0,0,1,521.48,684.61Z"/><path class="cls-1" d="M702.06,601.15a82.05,82.05,0,0,0-25.85,18.65,227.41,227.41,0,0,0-22.34,27.51q-10.53,15.15-20.5,31.39T613.43,709a6,6,0,0,1-7,1.85,7.89,7.89,0,0,1-5.17-5.73,14.56,14.56,0,0,1,.74-9.05q2.6-8.85,5-19.94t4.61-23.26q2.22-12.2,4.62-24.37t5-23.27a7.29,7.29,0,0,1,3.51-4.61,13.15,13.15,0,0,1,6.1-1.85,10.52,10.52,0,0,1,5.9,1.29,6.86,6.86,0,0,1,3.33,4.43q1.47,7.39-.93,17.73t-5.35,20.31q6.64-8.12,14.59-19a171.46,171.46,0,0,1,17.35-20.31,97,97,0,0,1,19.94-15.51,36,36,0,0,1,22-5,19.37,19.37,0,0,1,9.41,6.09,30.75,30.75,0,0,1,5.36,9.6,36.43,36.43,0,0,1,2,10.52,27.69,27.69,0,0,1-.93,8.87q-2.58,5.18-6.09,11.26a64.45,64.45,0,0,0-5.54,12.37,33.38,33.38,0,0,0-1.66,12.37c.24,4.06,2.22,7.7,5.91,10.9,1.48,2,1.35,3.45-.37,4.43a15.53,15.53,0,0,1-7,1.66,31.08,31.08,0,0,1-8.86-.92c-3-.74-5.05-1.85-6.28-3.33a37.79,37.79,0,0,1-7.2-16.43,45.35,45.35,0,0,1,.56-16.8,70.11,70.11,0,0,1,5.9-16.62A123.43,123.43,0,0,1,702.06,601.15Z"/><path class="cls-1" d="M732.71,674.27a100.35,100.35,0,0,1,2.95-29.18,104.93,104.93,0,0,1,11.08-27.88,66.23,66.23,0,0,1,18.65-20.86,45.88,45.88,0,0,1,26.4-8.49,19.88,19.88,0,0,1,12,7.75q4.25,5.91,2.4,14.4a54.05,54.05,0,0,1-4.25,13.85q-2.76,5.73-9.41,12-3.33,3-9.23,7.76t-11.45,10a84,84,0,0,0-9.6,10.52q-4.07,5.35-4.06,9-1.11,9.6,2.95,12.37c2.71,1.85,6.21,2.58,10.52,2.22a40.79,40.79,0,0,0,13.11-3.51q6.65-3,10.71-5.17,4.8-3.33,10.71-8.31T818,660.23q5.9-5.54,11.45-10.7t9.23-8.5c2-2,3.75-3.81,5.35-5.54a23.17,23.17,0,0,1,5.73-4.43,10.7,10.7,0,0,1,4.61-.37q1.67.38-.55,5.54a65.5,65.5,0,0,1-7.2,11.82q-4.26,5.54-9,11.08-6.65,7.38-14.22,15.51a165,165,0,0,1-15.88,15,113.18,113.18,0,0,1-17.35,11.82,56.18,56.18,0,0,1-18.65,6.46q-17,1.11-27.88-7T732.71,674.27Zm59.08-69.43q-10,3.7-15.69,9.6t-8.31,17.36a148.7,148.7,0,0,0,14.58-12A35.68,35.68,0,0,0,791.79,604.84Z"/><path class="cls-1" d="M325.39,777.64a41.19,41.19,0,0,0-28.49-11.4c-26,0-39.26,19-39.14,39.51,0,20.9,13.3,38.89,39.14,38.89a40,40,0,0,0,27-10.26V809.55H293V803.6h37.36v33.18c-9.24,9.25-20.26,14.32-33.43,14.32-30.15,0-45.72-21-45.72-45.22C251.05,778.14,269.92,760,296.9,760a46.13,46.13,0,0,1,32.42,13.3Z"/><path class="cls-1" d="M419.38,850l-9.75-21.79H356.68L347.06,850h-7.35l39.77-88.66H387L426.72,850ZM407,821.84l-23.82-54-23.81,54Z"/><path class="cls-1" d="M448.77,767.5h-32v-6.08h70.93v6.08h-32V850h-6.84Z"/><path class="cls-1" d="M507.28,802.21h51.93v6.2H507.28v35h56V850h-62.7V761.3h61.18v6.46H507.28Z"/><path class="cls-1" d="M634.32,761.3h3.8l27.11,81.06,27.48-81.06h7.35l-31.29,88.91h-7.34l-14.06-41.54-11.15-35.09-11.14,34.83-14.19,41.8h-7.34l-31-88.91h7.22l27.35,81.06Z"/><path class="cls-1" d="M782.52,850l-9.75-21.79H719.82L710.2,850h-7.35l39.77-88.66h7.47L789.86,850Zm-12.41-28.12-23.82-54-23.81,54Z"/><path class="cls-1" d="M813.55,814.49,779,761.42v-.12h8l30,46.61,30.15-46.61h8v.12l-34.7,53.07V850h-6.84Z"/><path class="cls-2" d="M1020.3,806.57c-.07-1.4-.14-2.82-.22-4.23a15.92,15.92,0,0,1-.2,2.15A4.67,4.67,0,0,0,1020.3,806.57Z"/><path class="cls-2" d="M1019.88,798.42l0-.75c-.05-.22-.09-.44-.13-.63C1019.78,797.5,1019.83,798,1019.88,798.42Z"/><path class="cls-2" d="M1019.17,791.08c0,1.3.14,2.55.28,3.74A25.77,25.77,0,0,0,1019.17,791.08Z"/><path class="cls-2" d="M1019.31,797c.11-.46.25-.69.4,0,0,0,0,0,0,0-.09-.73-.19-1.46-.27-2.22A18.73,18.73,0,0,1,1019.31,797Z"/><path class="cls-2" d="M1019.31,797c-.11.44-.19,1.15-.26,1.39A13.38,13.38,0,0,0,1019.31,797Z"/><path class="cls-2" d="M1015.81,795.32c-.16-.74.81-.62.5-2.08-.49-3.43-1.1-6.35-1.31-9.57-.31-1.46.6-3.84.3-5.3-.49-3.44-2.34-12.17-1.95-7,.64,7.81,1.22,12.89,1.85,19.89.74,5.67,1.55,11.12,2.27,16.94.15,1.63.17,3.16.21,4.7,0-2,0-4.08,0-6.37C1017.78,803.54,1016.32,800,1015.81,795.32Z"/><path class="cls-2" d="M1021.71,837.76c-.15-.73-.46-2.19-.46-2.19a36.17,36.17,0,0,0-.5-10.19c-.13.52-.25,1-.38,1.56.18,2,.46,2.18.56.42a69.37,69.37,0,0,0,.17,11.73C1021.35,838.83,1021.65,838.86,1021.71,837.76Z"/><path class="cls-2" d="M1021.33,841.36c-.08-.76-.16-1.52-.23-2.27l-.07.08c.09.77.19,1.53.28,2.27C1021.32,841.42,1021.32,841.39,1021.33,841.36Z"/><path class="cls-2" d="M1017.3,775.52c-.67-9.79-1.21-19-1.69-28a4.69,4.69,0,0,1-.43-2.09,17.25,17.25,0,0,0,.21-2.13c-.07-1.32-.14-2.63-.2-3.94-.05-.45-.11-.91-.16-1.38,0,0,0,0,0,0-.16-.73-.29-.5-.4,0a13.38,13.38,0,0,1-.26,1.39c.06-.25.15-.94.26-1.39a16.83,16.83,0,0,0,.13-2.14c-.13-1.19-.25-2.44-.27-3.74a25.43,25.43,0,0,1,.27,3.74c.09.76.18,1.48.28,2.21l.12.64c-.15-3-.29-6-.43-9-.07-.69-.13-1.34-.2-1.88-.27-2.15-.53-4.3-.15-5.67,0-.52,0-1.06-.08-1.6l-.06.31c0-.24,0-.44,0-.6-.1-2.26-.21-4.52-.31-6.8-.27-1.45-.6-3-.83-4.46,0,0,.25-1,.38-1.55a9.47,9.47,0,0,1-.64-2.5c-.21,1.25-.45,2.38-.58,3.43-.38,1.55,1.18,3.34.39,5.19.79-1.85-.77-3.64-.39-5.19.13-1,.37-2.18.58-3.43a27.32,27.32,0,0,1,0-7.17,18.49,18.49,0,0,1,0,7.17,9.47,9.47,0,0,0,.64,2.5c-.13.51-.38,1.55-.38,1.55.23,1.51.56,3,.83,4.46-.2-4.43-.4-8.92-.61-13.5-1.27-29.47-3.11-56.61-4.61-87.17-.78-16.56-1.39-32.48-1.82-48.1-.87-31.15-4-59.42-3.55-91,.08-12.11-1.8-34.45-2.65-46.06-2.58-15.47-6.18-7.14-6.36-6.39-2.9,9.79-.47,17.16-1.29,36.79.33-13.36,2.88,9.65,1.28,22.35-2.49,18.38,2.08,44.07,2.58,66.52.12,5.62.66,11.55,1,18.25,1,34.77,4.57,66.9,6.62,103.4.63,9.66,2.06,18.1,3.06,26.21.55,5.93.48,12.32.79,17.15.5,7.6,1.25,14.12,2.07,20.36-.62-7-1.21-12.09-1.85-19.89-.39-5.2,1.46,3.54,2,7,.31,1.47-.61,3.85-.3,5.31.21,3.21.83,6.13,1.32,9.56.31,1.46-.66,1.35-.51,2.08.52,4.68,2,8.23,1.91,11.24,0,2.29,0,4.36,0,6.37,0,1.27.07,2.53.19,3.87.14.82.27,1.68.41,2.54a2.25,2.25,0,0,1,.94-1.23c0,1.25-.08,3,0,4.25,0-1.24.07-3,0-4.25a2.25,2.25,0,0,0-.94,1.23c.95,6.14,1.92,13.24,2.75,19.84a.73.73,0,0,1,.08-.09,68.21,68.21,0,0,1-.17-11.72c-.1,1.75-.38,1.56-.57-.43l.39-1.55a36.21,36.21,0,0,1,.5,10.19s.3,1.46.46,2.19c-.06,1.1-.37,1.07-.61,1.32.07.75.14,1.51.22,2.28C1017,780.64,1017.3,775.52,1017.3,775.52Z"/><path class="cls-2" d="M1014.77,735.66c.07.53.13,1.18.2,1.86-.12-2.5-.23-5-.35-7.54C1014.24,731.35,1014.51,733.5,1014.77,735.66Z"/><path class="cls-2" d="M1100,807.18c-.14-1.34-.27-2.68-.41-4a14.59,14.59,0,0,1-.11,2.07A4.14,4.14,0,0,0,1100,807.18Z"/><path class="cls-2" d="M1099.21,799.42c0-.24,0-.49-.07-.72s-.11-.41-.16-.6C1099.06,798.54,1099.14,799,1099.21,799.42Z"/><path class="cls-2" d="M1098.18,792.44a35,35,0,0,0,.44,3.56A26,26,0,0,0,1098.18,792.44Z"/><path class="cls-2" d="M1098.57,798.05c.09-.45.22-.68.41,0v0c-.12-.69-.25-1.38-.36-2.1A14.85,14.85,0,0,1,1098.57,798.05Z"/><path class="cls-2" d="M1098.57,798.05c-.09.43-.14,1.11-.2,1.34A10.94,10.94,0,0,0,1098.57,798.05Z"/><path class="cls-2" d="M1095,796.66c-.18-.7.79-.64.42-2-.64-3.25-1.38-6-1.73-9.08-.37-1.37.44-3.7.07-5.07-.64-3.26-2.86-11.51-2.25-6.57,1,7.43,1.78,12.25,2.71,18.9,1,5.39,2,10.55,3,16.07.22,1.55.31,3,.41,4.48-.07-1.93-.14-3.9-.24-6.08C1097.33,804.41,1095.72,801.1,1095,796.66Z"/><path class="cls-2" d="M1102.73,836.9c-.19-.69-.56-2.07-.56-2.07a32.79,32.79,0,0,0-.94-9.7c-.1.49-.21,1-.31,1.51.27,1.87.56,2.06.58.37a61.7,61.7,0,0,0,.68,11.19C1102.41,837.94,1102.71,838,1102.73,836.9Z"/><path class="cls-2" d="M1102.5,840.36c-.12-.72-.22-1.45-.32-2.16a.36.36,0,0,0-.08.09c.13.72.26,1.44.38,2.15C1102.49,840.41,1102.49,840.38,1102.5,840.36Z"/><path class="cls-2" d="M1095.64,777.67c-1.09-9.32-2-18.09-2.9-26.67a4.31,4.31,0,0,1-.51-2,14.09,14.09,0,0,0,.11-2c-.12-1.25-.24-2.5-.37-3.74-.07-.43-.14-.87-.22-1.31a.06.06,0,0,0,0,0c-.18-.69-.31-.46-.4,0s-.12,1-.2,1.34c0-.25.11-.91.2-1.34a15,15,0,0,0,0-2c-.18-1.13-.35-2.32-.43-3.56a24,24,0,0,1,.43,3.56c.12.72.25,1.41.37,2.1,0,.19.1.39.16.59-.28-2.86-.55-5.7-.83-8.55-.09-.65-.18-1.27-.27-1.78-.36-2-.72-4.08-.4-5.41-.05-.5-.1-1-.14-1.53,0,.1,0,.21,0,.31,0-.23,0-.43,0-.59q-.3-3.21-.6-6.47c-.34-1.37-.72-2.79-1-4.22,0,0,.21-1,.31-1.5a8.81,8.81,0,0,1-.74-2.35c-.16,1.2-.36,2.29-.44,3.3-.31,1.5,1.32,3.13.61,4.94.71-1.81-.92-3.44-.61-4.94.08-1,.28-2.1.44-3.3a24.81,24.81,0,0,1-.3-6.86,16.94,16.94,0,0,1,.3,6.86,8.81,8.81,0,0,0,.74,2.35c-.1.5-.31,1.5-.31,1.5.3,1.43.68,2.85,1,4.22-.39-4.23-.79-8.5-1.2-12.86-2.53-28.09-5.54-53.91-8.35-83-1.49-15.78-2.78-31-3.88-45.85-2.21-29.71-6.52-56.56-7.46-86.72-.45-11.57-3.29-32.81-4.63-43.86-3.25-14.65-6.48-6.5-6.63-5.78-2.47,9.5.26,16.41.3,35.2-.26-12.77,3.29,9.08,2.24,21.28-1.71,17.69,4,42,5.43,63.42.36,5.35,1.16,11,1.81,17.37,2.46,33.16,7.45,63.67,11.06,98.43,1,9.2,2.83,17.18,4.19,24.88.8,5.64,1,11.74,1.52,16.34.82,7.23,1.86,13.42,3,19.34-.93-6.65-1.73-11.49-2.71-18.9-.61-5,1.61,3.31,2.25,6.56.37,1.38-.44,3.7-.07,5.09.35,3.05,1.09,5.81,1.73,9.06.37,1.38-.61,1.32-.42,2,.72,4.45,2.33,7.76,2.39,10.64.1,2.19.17,4.16.24,6.08.08,1.22.17,2.42.35,3.69.17.78.34,1.59.52,2.4a2.15,2.15,0,0,1,.88-1.21c.08,1.18.06,2.87.14,4.06-.08-1.19-.06-2.88-.14-4.06a2.15,2.15,0,0,0-.88,1.21c1.22,5.83,2.48,12.55,3.6,18.82l.08-.1a61.43,61.43,0,0,1-.68-11.18c0,1.68-.31,1.51-.58-.38.1-.5.21-1,.31-1.5a32.89,32.89,0,0,1,.94,9.71s.37,1.38.56,2.06c0,1.06-.32,1-.55,1.29.09.72.2,1.45.32,2.17C1095.57,782.58,1095.64,777.67,1095.64,777.67Z"/><path class="cls-2" d="M1091.4,739.73c.09.5.18,1.12.28,1.77-.23-2.39-.45-4.78-.68-7.18C1090.68,735.64,1091,737.68,1091.4,739.73Z"/><path class="cls-2" d="M305.91,395l7.49.07c-1.26-.09-2.5-.22-3.78-.43A11.1,11.1,0,0,0,305.91,395Z"/><path class="cls-2" d="M320.33,395.17h1.33l1.14-.11Z"/><path class="cls-2" d="M333.38,394.89c-2.3-.11-4.51,0-6.64,0C328.62,395,330.8,395,333.38,394.89Z"/><path class="cls-2" d="M323,394.57c.8.18,1.19.37-.14.5h-.05l3.94-.15C325.33,394.84,324.07,394.72,323,394.57Z"/><path class="cls-2" d="M323,394.57c-.78-.17-2-.34-2.43-.43C321.27,394.29,322.08,394.44,323,394.57Z"/><path class="cls-2" d="M326.32,390.33c1.32-.13,1,1.07,3.61.81,3.06-.2,5.9-.29,8.7-.41s5.53-.17,8.4-.1c2.61-.2,6.7,1.24,9.31,1,6.14-.17,21.87-1.37,12.63-1.54-13.9-.19-23-.1-35.43-.21-10.13.43-19.87,1-30.23,1.44-2.9.06-5.61,0-8.34-.12l11.25.56C311.55,392.13,318,390.6,326.32,390.33Z"/><path class="cls-2" d="M250.7,395.23l3.9-.5c5.84.72,11.94.23,18-.25l-2.73-.53c-3.49.15-3.89.5-.78.68a171.38,171.38,0,0,0-20.74-.21C248.83,394.73,248.75,395.11,250.7,395.23Z"/><path class="cls-2" d="M244.35,394.61l4-.19a.56.56,0,0,0-.15-.1l-4,.27Z"/><path class="cls-2" d="M361.08,394.52l12.84.32c4.22.18,8.38.43,12.5.64l24.27,1.38a11.55,11.55,0,0,1,3.75-.17c1.23.27,2.48.52,3.71.7l7,.6,2.45.09h.07c1.32,0,.94-.25.15-.48s-1.71-.41-2.4-.63c.44.14,1.62.39,2.4.63,1.08.23,2.29.45,3.72.62,2.12.09,4.34.22,6.62.47a64,64,0,0,1-6.62-.47l-3.94-.14-1.13,0,15.84,1.39,3.33.16c3.83.15,7.67.23,10,1.07l2.82.33-.53-.17,1,.23,12,1.38c2.6,0,5.3,0,8,.14l2.62.87a22.34,22.34,0,0,1,4.52-.14c-2.11-.58-4-1.17-5.84-1.61-2.63-.87-6.13.58-9.18-.87,3.05,1.45,6.55,0,9.18.87,1.81.44,3.73,1,5.84,1.61a59.87,59.87,0,0,1,6.25.65c2.17.38,4.34.86,6.27,1.4a40.66,40.66,0,0,1-6.78-.74c-2.07-.36-4-.82-5.74-1.31a22.34,22.34,0,0,0-4.52.14l-2.62-.87c-2.69-.11-5.39-.1-8-.14l11.77,1.37,5.95.68,3,.35,3,.43,19.2,2.71,9.49,1.32c1.58.23,3.16.42,4.73.67l4.7.77,18.73,3,9.34,1.5c3.12.52,6.21,1.14,9.33,1.7,12.42,2.34,24.95,4.49,37.56,7.31l19.13,4.1,19.45,4.7,10.61,2.62,10.44,2.85,10.34,2.85c3.43,1,6.87,1.85,10.24,2.92L708,450.54c3.33,1,6.62,2.11,9.9,3.22l9.82,3.32,9.71,3.26,9.55,3.41,9.49,3.33,4.73,1.64,4.67,1.73,18.6,6.88,18.34,7.27c24.33,9.94,48.31,21,72.25,34.86,4.59,2.66,10.19,5.8,16.31,9.16S904,535.7,910.46,539.5c13,7.51,25.59,15.4,33.92,21.11,5.87,3.43,9.6,5.39,12,6.25s3.45.66,3.85,0c.83-1.37-1.45-4.85-1.89-5.34-5.51-6.84-11.56-11.56-19.64-17.15s-18.31-11.89-32.85-21.54a53.68,53.68,0,0,1,5,3.41c.86.71,1,1,.54.87a17.42,17.42,0,0,1-3-1.29c-1.49-.71-3.42-1.7-5.65-2.89s-4.76-2.58-7.44-4.11-5.57-3.07-8.44-4.73c-5.71-3.39-11.57-6.76-16.24-9.94-1.69-1.15-3.43-2.33-5.25-3.45s-3.71-2.22-5.65-3.32c-3.88-2.19-7.94-4.43-12.21-6.53s-8.73-4.14-13.29-6.2l-3.43-1.54-3.51-1.46-7.11-2.92c-9.51-4-19.44-7.52-29.21-11.24-2.44-.95-4.91-1.8-7.36-2.68l-7.29-2.66-7.19-2.69-3.55-1.37-3.53-1.3c-4.69-1.73-9.56-3.4-14.68-5.12-2.56-.85-5.16-1.78-7.86-2.61l-8.32-2.61-11-3.68L714.8,441l-5.49-1.65q-11-3.27-21.85-6.39c-14.64-3.8-29.17-7.64-44-10.79-14.73-3.47-29.71-6.19-44.9-9.25-7.62-1.42-15.34-2.7-23.13-4.11l-11.76-2.11-12-1.9c-8.52-1.29-16.56-2.29-24.27-3.06l-22.36-1.78c-2.63-.28-5.3-.62-8-1s-5.3-.78-7.9-1.08c-5.18-.66-10.12-1.31-14.4-1.75-6.73-.69-13-1.22-19-1.66s-11.69-.51-17.27-.69l17.17,1c5.55.44,11.29.91,18.21,1.53,9.22.87-6.57.87-12.7.58-2.63,0-6.6-1.8-9.25-1.69-5.69-.43-11-.3-17.09-.43-2.64.06-2.25-1.11-3.57-1.08-4.17-.19-7.89,0-11.22.1-1.67.06-3.24.11-4.73.1a33.71,33.71,0,0,1-4.21-.16L400,392.53c-2.25-.18-4.48-.35-6.86-.43l-4.55.07a3.85,3.85,0,0,1,2,1.37c-2.19-.18-5.28-.6-7.48-.78,2.2.18,5.29.6,7.48.78a3.85,3.85,0,0,0-2-1.37l-8.52.07c-2.92,0-5.9,0-8.91.12l-18,.38.15.11a171.94,171.94,0,0,1,20.7,1.26c-3.08-.34-2.69-.67.84-.64l2.67.74c-3.07,0-6.14.12-9.16,0a57.71,57.71,0,0,1-8.88-.78l-3.93.31c-1.94-.22-1.84-.6-2.24-.93h-4.06C352.08,393.51,361.08,394.52,361.08,394.52Z"/><path class="cls-2" d="M431.64,398.27l-3.31-.16,13.3,1.19C439.33,398.54,435.49,398.41,431.64,398.27Z"/><path class="cls-2" d="M211.2,232.61l8.38.27c-1.41-.12-2.8-.29-4.22-.53A14.21,14.21,0,0,0,211.2,232.61Z"/><path class="cls-2" d="M227.33,233.13l1.48.05,1.28-.07Z"/><path class="cls-2" d="M241.93,233.23c-2.58-.22-5.05-.18-7.44-.18C236.6,233.21,239,233.21,241.93,233.23Z"/><path class="cls-2" d="M230.31,232.61c.89.2,1.33.39-.16.49h-.06l4.4-.06C232.92,232.94,231.52,232.79,230.31,232.61Z"/><path class="cls-2" d="M230.31,232.61c-.86-.2-2.23-.39-2.7-.5C228.39,232.29,229.3,232.45,230.31,232.61Z"/><path class="cls-2" d="M234.13,228.46c1.48-.1,1.09,1.09,4,.9,6.85-.11,12.72-.3,19.13,0,2.92-.13,7.46,1.42,10.38,1.29,6.87,0,24.47-.77,14.15-1.19-15.53-.58-25.66-.74-39.6-1.19-11.33.12-22.23.49-33.83.62-3.25,0-6.27-.19-9.32-.34l12.57.85C217.57,229.87,224.8,228.5,234.13,228.46Z"/><path class="cls-2" d="M149.44,231.39l4.38-.4c6.51.87,13.34.54,20.18.2l-3-.6c-3.91.07-4.36.4-.89.67a213.54,213.54,0,0,0-23.2-.74C147.37,230.85,147.27,231.22,149.44,231.39Z"/><path class="cls-2" d="M142.36,230.62l4.52-.1a.74.74,0,0,0-.16-.1l-4.52.17Z"/><path class="cls-2" d="M272.91,233.62l14.35.69,14,1,27.11,2.08a13.51,13.51,0,0,1,4.2,0c1.37.35,2.76.61,4.14.83l7.75.81,2.75.17h.07c1.47,0,1.06-.22.17-.49s-1.9-.46-2.68-.69c.5.15,1.82.44,2.68.69,1.21.27,2.56.52,4.15.74,2.37.16,4.85.35,7.4.66-2.86-.13-5.3-.36-7.4-.66l-4.39-.25-1.28,0L363.6,241l3.72.26c4.28.25,8.56.48,11.13,1.41l3.15.42-.6-.18,1.18.25,13.34,1.75c2.91.13,5.92.2,8.93.39l2.92,1a29,29,0,0,1,5.05,0c-2.36-.64-4.5-1.3-6.52-1.79-2.93-.95-6.85.4-10.25-1.15,3.4,1.55,7.32.2,10.25,1.15,2,.49,4.16,1.15,6.52,1.79a71.75,71.75,0,0,1,14,2.5,65.47,65.47,0,0,1-14-2.5,29,29,0,0,0-5.05,0l-2.92-1c-3-.19-6-.26-8.93-.39l13.14,1.74c4.42.57,8.87,1.14,13.34,1.87l21.44,3.33c7.09,1.1,14.14,2.11,21.11,3.41l20.92,3.64,10.43,1.82,10.41,2.05,20.9,4.1,5.25,1,5.25,1.16,10.54,2.33c7.06,1.59,14.19,3.09,21.36,4.8l21.73,5.39c31.72,8.19,62,17,91.1,27.08,3.64,1.24,7.28,2.41,10.87,3.66L704,316.13l10.63,3.7c1.77.62,3.54,1.21,5.29,1.84l5.24,1.93L746,331.25l20.58,8c27.31,11,54.28,23.1,81.39,38.08,5.19,2.9,11.54,6.28,18.45,9.94L877.09,393c3.67,1.93,7.3,4,11,6.06,14.7,8.15,29,16.69,38.55,22.86,6.64,3.74,10.85,5.89,13.55,6.86s3.79.78,4.15.07c.76-1.42-2-5.1-2.51-5.62C935.3,416,928.37,411,919.2,405s-20.78-12.82-37.28-23.18c2.85,1.7,4.67,2.91,5.66,3.66s1.15,1,.65.91a21.48,21.48,0,0,1-3.31-1.42c-1.67-.78-3.85-1.85-6.36-3.14s-5.37-2.81-8.39-4.46-6.29-3.33-9.53-5.13c-6.45-3.64-13.07-7.3-18.38-10.7q-2.87-1.86-5.94-3.71t-6.38-3.57c-4.38-2.36-9-4.76-13.76-7.07-9.64-4.5-19.92-9.1-30.65-13.27l-8.07-3.2-4.06-1.6-4.11-1.52-16.45-6.11-4.1-1.53-4.12-1.46-8.16-2.94c-5.42-1.94-10.72-4-16-5.94s-10.69-3.77-16.41-5.69L695.3,301,686,298l-12.26-4.09-6.1-2c-2-.67-4.08-1.25-6.12-1.87q-12.24-3.69-24.4-7.21c-8.15-2.23-16.3-4.33-24.45-6.46l-6.12-1.58L603.5,274l-3.08-.72-12.33-2.87-12.37-2.86-6.21-1.44-6.25-1.29L538,259.6c-4.23-.93-8.52-1.66-12.82-2.48l-13-2.44-13.12-2.51c-4.4-.85-8.85-1.54-13.33-2.33-9.5-1.59-18.46-2.81-27.06-3.89l-24.94-2.49c-5.87-.73-11.91-1.74-17.69-2.62s-11.29-1.63-16.07-2.2c-7.51-.89-14.51-1.62-21.18-2.25-3.34-.35-6.61-.5-9.81-.71l-9.47-.53,9.86.76c3.15.25,6.21.43,9.3.77,6.2.61,12.6,1.25,20.32,2.08,10.29,1.16-7.34.67-14.18.19-2.94-.07-7.36-2-10.32-2-6.35-.61-12.24-.64-19.09-.95-2.95,0-2.49-1.18-4-1.19-4.67-.31-8.82-.25-12.55-.23a83.43,83.43,0,0,1-10-.36l-12.52-1.46c-2.51-.24-5-.48-7.66-.62l-5.08-.06a4.31,4.31,0,0,1,2.2,1.43c-2.45-.25-5.9-.76-8.35-1,2.45.24,5.9.75,8.35,1a4.31,4.31,0,0,0-2.2-1.43l-9.53-.17c-3.27,0-6.6-.2-10-.17l-20.16-.12.17.12a208.89,208.89,0,0,1,23.12,1.84c-3.43-.44-3-.78.95-.6l3,.82-5.13-.12c-1.71,0-3.41-.05-5.1-.12a73.08,73.08,0,0,1-9.92-1l-4.4.19c-2.16-.27-2.05-.64-2.49-1l-4.54-.12C262.87,232.37,272.91,233.62,272.91,233.62Z"/><path class="cls-2" d="M351.74,239.47l-3.69-.25,14.85,1.59C360.33,240,356,239.72,351.74,239.47Z"/><path class="cls-2" d="M278.07,367.82l7.76-.14c-1.31,0-2.59-.08-3.92-.19A18.55,18.55,0,0,0,278.07,367.82Z"/><path class="cls-2" d="M293,367.55l1.37,0,1.18-.07C294.71,367.46,293.85,367.52,293,367.55Z"/><path class="cls-2" d="M306.51,367.39c-2.38-.06-4.67,0-6.88,0C301.58,367.45,303.85,367.47,306.51,367.39Z"/><path class="cls-2" d="M295.75,367.14c.83.12,1.24.24-.14.32h-.05l4.07-.08C298.17,367.33,296.87,367.24,295.75,367.14Z"/><path class="cls-2" d="M295.75,367.14c-.81-.13-2.08-.2-2.52-.25Z"/><path class="cls-2" d="M299.14,364.44c1.37-.07,1.05.69,3.75.54,6.33-.17,11.76-.48,17.69-.45,2.71-.15,6.95.73,9.65.57,3.18-.15,8.83-.2,12.49-.36s5.33-.34.55-.49c-3.59-.09-6.87-.19-10-.23l-8.9.06-17.78.13-7.8.19-3.88.1-3.87.21-15.72.82c-3,.11-5.81.12-8.64.13l11.66.08a88.58,88.58,0,0,0,9.22-.54C291,364.89,294.83,364.45,299.14,364.44Z"/><path class="cls-2" d="M220.93,369.69l4-.47a151.77,151.77,0,0,0,18.66-.87l-2.82-.24c-3.62.24-4,.48-.8.47-7.38-.07-14.35.23-21.47.68C219,369.45,218.91,369.69,220.93,369.69Z"/><path class="cls-2" d="M214.36,369.55l4.17-.29-.15-.05-4.17.33Z"/><path class="cls-2" d="M335.19,366.91l26.25.93c4.27.18,8.5.26,12.68.53l12.45.84a18.59,18.59,0,0,1,3.88,0c1.28.22,2.57.38,3.85.52l7.2.5,2.55.1h.07c1.36,0,1-.15.14-.31s-1.78-.29-2.51-.44l2.51.44c1.12.16,2.38.32,3.86.46,2.2.08,4.49.31,6.85.55-2.64-.13-4.9-.39-6.85-.55l-4.07-.15h-1.18c2.75.21,5.49.34,8.22.62l8.19.8,3.44.25a70.72,70.72,0,0,1,10.33,1.1l2.93.29-.56-.12,1.09.17,6.19.61,3.1.31,3.1.38c2.69.17,5.47.32,8.24.53l2.73.71a36.56,36.56,0,0,1,4.65.16c-2.2-.49-4.2-1-6.08-1.36-2.73-.71-6.29,0-9.48-1.07,3.19,1.11,6.75.36,9.48,1.07,1.88.38,3.88.87,6.08,1.36a112.43,112.43,0,0,1,13,1.9,76.48,76.48,0,0,1-13-1.9,36.56,36.56,0,0,0-4.65-.16l-2.73-.71c-2.77-.21-5.55-.36-8.24-.53l24.56,3.08a1389.39,1389.39,0,0,1,157,29.62l11,2.74c3.64.93,7.23,2,10.83,2.94,7.17,2,14.3,3.89,21.34,5.92l20.9,6.29,5.17,1.57,5.13,1.67L715,431.9c27.05,8.92,52.85,17.67,78.32,27.51s50.72,20.45,76.47,33.24c9.91,4.84,24.09,11.66,38.07,18.65s27.72,14.25,37,19.44c12.65,6.47,16,7.41,16.32,6.37s-2.7-3.85-3.23-4.27c-6.85-5.69-13.54-9.85-22.38-14.8-4.4-2.52-9.39-5.14-15.19-8.34s-12.49-6.77-20.39-11.05c10.78,5.8,6.52,4.22-2.9-.29-4.7-2.29-10.78-5.11-16.89-8.2s-12.39-6.16-17.45-9c-14.7-8.05-33.29-16.24-53.17-23.78l-7.48-2.88c-2.51-1-5.05-1.85-7.59-2.78l-15.23-5.54-15.18-5.34c-5-1.77-9.93-3.62-14.81-5.29-9.74-3.39-20.14-6.85-31.94-10.46-15.15-5.08-30.24-9.43-45.25-13.72l-22.6-6c-1.88-.49-3.76-1-5.65-1.46l-5.69-1.35-11.38-2.7-11.43-2.69c-3.82-.87-7.68-1.65-11.53-2.48-7.72-1.61-15.47-3.33-23.32-4.9l-23.84-4.54-6-1.17-6.1-1L532.14,381c-4.39-.74-8.65-1.41-12.81-2-2.08-.33-4.14-.59-6.18-.82l-6-.7-23-2.6c-10.87-1.26-22.46-2.91-31.3-4-6.94-.89-13.44-1.29-19.63-1.77s-12.07-.83-17.83-1.18l17.74,1.36,8.89.69c1.54.12,3.14.23,4.79.39l5.14.55c9.52,1.12-6.71.09-13.06-.12-2.72-.08-6.89-1.31-9.61-1.38-5.88-.53-11.31-.68-17.64-1-2.72-.09-2.35-.8-3.71-.81-8.64-.37-15.35.2-20.84-.36l-11.61-1.09c-1.17-.09-2.32-.19-3.5-.26l-3.6-.12-4.71,0a4.54,4.54,0,0,1,2.09.89l-7.76-.53,7.76.53a4.54,4.54,0,0,0-2.09-.89h-18l-9.37-.05h-2.34l-2.32.05-4.61.1.16.07a190.27,190.27,0,0,1,21.44,1c-3.19-.28-2.79-.48.86-.4l2.78.48a152.5,152.5,0,0,1-18.68-.77l-4.07.24c-2-.12-1.91-.36-2.33-.57l-4.2,0c1.48.2,4.55.44,7.26.63l3.53.23Z"/><path class="cls-2" d="M408.28,370.52l-3.43-.15c4.6.26,9.18.78,13.78,1.22A65,65,0,0,0,408.28,370.52Z"/><path class="cls-2" d="M267.91,260.83l7.74.21c-1.3-.08-2.58-.2-3.89-.36A17.86,17.86,0,0,0,267.91,260.83Z"/><path class="cls-2" d="M282.81,261.25l1.37,0,1.18-.05Z"/><path class="cls-2" d="M296.28,261.57c-2.38-.16-4.66-.24-6.86-.3C291.36,261.42,293.62,261.54,296.28,261.57Z"/><path class="cls-2" d="M285.56,260.92c.82.14,1.22.27-.15.32h-.05c1.34,0,2.67,0,4.06,0C288,261.14,286.67,261.05,285.56,260.92Z"/><path class="cls-2" d="M285.56,260.92l-2.5-.33C283.79,260.71,284.62,260.82,285.56,260.92Z"/><path class="cls-2" d="M289.06,258.32c1.36,0,1,.73,3.71.69,6.31.09,11.73,0,17.64.3,2.7,0,6.9,1,9.59,1,6.35,0,22.55.24,13-.44-1.79-.12-3.5-.25-5.15-.33l-4.79-.18-8.88-.31-17.71-.63-7.78-.14c-2.58,0-5.16,0-7.74.05l-15.7.11c-3,0-5.79-.15-8.61-.27l11.61.62C273.78,259.11,280.44,258.24,289.06,258.32Z"/><path class="cls-2" d="M210.89,260l4-.27a148.33,148.33,0,0,0,18.63,0l-2.8-.37c-3.61.06-4,.28-.82.43-7.35-.44-14.3-.48-21.42-.37C209,259.68,208.88,259.92,210.89,260Z"/><path class="cls-2" d="M204.35,259.56l4.17-.08-.15-.07-4.17.13Z"/><path class="cls-2" d="M324.88,262.27l3.35.16,3.31.25,6.57.49,12.9,1c8.49.67,16.82,1.22,25,2.17a18.88,18.88,0,0,1,3.86.16c1.27.26,2.55.47,3.82.66l7.16.76,2.53.19h.07c1.36.05,1-.11.15-.3s-1.76-.36-2.48-.53l2.48.53c1.12.21,2.37.41,3.84.6,2.18.18,4.47.38,6.82.66-2.63-.17-4.89-.4-6.82-.66l-4.06-.3-1.17,0,8.18.88c2.72.29,5.44.56,8.15.95l3.42.37a69.73,69.73,0,0,1,10.25,1.46l2.91.39-.55-.14,1.09.21L438,273.81c2.69.18,5.46.35,8.21.68l2.71.79a37,37,0,0,1,4.62.31c-2.18-.56-4.15-1.11-6-1.55a21.33,21.33,0,0,0-4.55-.54,16.32,16.32,0,0,1-4.89-.72,16.32,16.32,0,0,0,4.89.72,21.33,21.33,0,0,1,4.55.54c1.86.44,3.83,1,6,1.55a112.37,112.37,0,0,1,12.89,2.32,75.6,75.6,0,0,1-12.89-2.32,37,37,0,0,0-4.62-.31l-2.71-.79c-2.75-.33-5.52-.5-8.21-.68,4,.49,8,1.16,12.11,1.81l12.29,1.95,9.93,1.58c3.29.52,6.58,1,9.83,1.65l19.44,3.52,9.66,1.74c3.22.57,6.4,1.28,9.6,1.91l19.19,3.9c6.42,1.23,12.79,2.75,19.22,4.19l19.39,4.4,19.62,4.92,10,2.52c3.34.84,6.67,1.82,10,2.73l21.66,6,21.14,6.43c7,2.07,13.88,4.41,20.72,6.66s13.66,4.45,20.36,6.89l19.9,7,19.48,7.15,4.83,1.77,4.79,1.84,9.56,3.67c3.18,1.24,6.37,2.43,9.54,3.69l9.46,3.84c25.22,10.24,50.17,21.38,75.55,34.73l17.25,8.9c6.47,3.28,13.36,7,20.26,10.59,13.75,7.33,27.23,14.95,36.27,20.4,6.21,3.39,10.14,5.38,12.56,6.37s3.33,1,3.5.47c.35-1-2.55-3.94-3.07-4.36-6.64-5.89-13.19-10.25-21.86-15.44S900.71,416,885.18,407c10.59,6.09,6.39,4.39-2.88-.36-4.68-2.3-10.61-5.39-16.66-8.57s-12.17-6.5-17.19-9.36c-7.25-4.17-15.43-8.47-24.33-12.58s-18.41-8.2-28.19-12.29c-19.68-7.92-40.46-15.68-59.73-22.88-4.81-1.81-9.78-3.69-15-5.47l-16.59-5.6c-7.49-2.74-15-5.09-22.49-7.54l-11.19-3.6-11.21-3.34-11.19-3.28c-3.73-1.09-7.45-2.19-11.21-3.16l-22.54-6c-3.75-1-7.56-1.87-11.36-2.81l-11.44-2.75-11.5-2.77-11.66-2.55L557,289.52l-5.92-1.31c-2-.44-4-.87-6-1.25l-24.31-4.88-6.44-1.24-6.3-1L496,278l-11.63-1.67-5.66-.8-5.6-.68c-10.82-1.48-22.29-3.64-31.08-4.9-13.84-1.72-25.8-3-37.25-4,12.78,1.4,22.12,2.41,36.35,4.07,2.38.28,3.14.47,2.85.52s-1.61,0-3.44-.09c-3.66-.18-9.29-.57-12.44-.86-2.7-.16-6.81-1.54-9.53-1.71-2.92-.37-5.73-.63-8.6-.88l-4.37-.35-4.58-.29c-2.72-.1-2.32-.83-3.68-.88-8.59-.69-15.29-.37-20.75-1.13l-6-.78-2.82-.37-2.77-.3c-2.31-.21-4.61-.42-7.06-.57l-4.69-.16a4.66,4.66,0,0,1,2.05,1l-7.71-.84,7.71.84a4.66,4.66,0,0,0-2.05-1c-11.35-.35-24.39-1.14-36.56-1.25l.16.07c3.55.14,7.06.31,10.59.55s7.09.72,10.75,1.22c-3.17-.41-2.76-.59.87-.37l2.75.59c-3.17-.13-6.33-.25-9.44-.48-1.56-.1-3.1-.26-4.63-.39s-3-.3-4.52-.51l-4.06.06c-2-.2-1.9-.44-2.31-.67l-4.19-.14C315.6,261.33,324.88,262.27,324.88,262.27Z"/><path class="cls-2" d="M397.61,268.43l-3.41-.28c4.56.52,9.13.93,13.7,1.54C405.53,269,401.57,268.75,397.61,268.43Z"/><path class="cls-2" d="M945,817.32c0-.85,0-1.72,0-2.58a5.76,5.76,0,0,1-.4,1.31C944.47,816.62,944.74,816.91,945,817.32Z"/><path class="cls-2" d="M945,812.35c0-.16,0-.32,0-.46s-.08-.27-.12-.39C945,811.78,945,812.06,945,812.35Z"/><path class="cls-2" d="M944.64,807.85a12.3,12.3,0,0,0,.09,2.29A7.59,7.59,0,0,0,944.64,807.85Z"/><path class="cls-2" d="M944.41,811.44c.17-.28.36-.42.5,0v0c-.06-.45-.13-.89-.18-1.36A5.15,5.15,0,0,1,944.41,811.44Z"/><path class="cls-2" d="M944.41,811.44c-.17.27-.32.7-.42.85A5.18,5.18,0,0,0,944.41,811.44Z"/><path class="cls-2" d="M940.15,810.38c-.14-.45,1.06-.36.78-1.26a36.38,36.38,0,0,1-1-5.86c-.29-.89,1-2.33.73-3.22-.37-2.11-2.08-7.47-1.95-4.29.26,4.77.64,7.88.94,12.16.54,3.47,1.17,6.81,1.67,10.37a20.92,20.92,0,0,1-.07,2.87c.17-1.23.33-2.49.48-3.88C942.05,815.43,940.47,813.25,940.15,810.38Z"/><path class="cls-2" d="M944.59,836.37l-.43-1.34c.83-2,.46-4.12.09-6.22l-.59.94c.09,1.21.43,1.34.67.27a20.83,20.83,0,0,0-.59,7.15C944.06,837,944.44,837,944.59,836.37Z"/><path class="cls-2" d="M943.86,838.56c-.05-.46-.09-.93-.12-1.39l-.1.05c.06.47.13.94.19,1.39Z"/><path class="cls-2" d="M943.37,798.33c-.15-6-.19-11.62-.17-17.12-.24-.42-.51-.71-.38-1.28a5.4,5.4,0,0,0,.4-1.3c0-.8,0-1.61,0-2.4,0-.28-.07-.56-.11-.85v0c-.15-.45-.33-.31-.5,0a5.61,5.61,0,0,1-.42.85c.1-.16.25-.58.42-.85A5.75,5.75,0,0,0,943,774a11.52,11.52,0,0,1-.09-2.29A7.58,7.58,0,0,1,943,774c0,.46.12.91.18,1.35l.12.39c0-1.83,0-3.66.08-5.48,0-.42-.08-.82-.12-1.15-.19-1.32-.37-2.64.2-3.46,0-.32,0-.65,0-1l-.11.19c0-.15.08-.27.11-.37,0-1.38.05-2.76.08-4.15-.24-.89-.54-1.81-.73-2.73,0,0,.39-.64.59-.95a3.25,3.25,0,0,1-.63-1.53c-.34.75-.73,1.44-1,2.08-.59.94,1.24,2.06.12,3.17,1.12-1.11-.71-2.23-.12-3.17.23-.64.62-1.33,1-2.08a8.39,8.39,0,0,1,.51-4.38,5.78,5.78,0,0,1-.51,4.38,3.25,3.25,0,0,0,.63,1.53c-.2.31-.59.95-.59.95.19.92.49,1.84.73,2.73.06-2.71.12-5.45.17-8.25.45-18,0-34.58.27-53.25.17-10.11.51-19.83,1-29.37,1.07-19-.84-36.32,1.85-55.56.94-7.39.12-21.05-.13-28.15-2.15-9.48-7.22-4.45-7.5-4-4.29,5.92-1.77,10.46-4.14,22.42,1.32-8.14,2.93,5.94,0,13.65-4.38,11.17-.44,26.92-1.38,40.63-.23,3.42,0,7,0,11.15-1.19,21.22,1.09,40.89,1.12,63.18.12,5.91,1.32,11.08,2,16,.27,3.63-.25,7.53-.2,10.48a90.49,90.49,0,0,0,1.17,12.45c-.29-4.27-.67-7.39-.93-12.16-.13-3.18,1.58,2.19,1.95,4.29.29.89-1,2.33-.73,3.23a36.45,36.45,0,0,0,1,5.85c.28.9-.92.82-.78,1.27.32,2.86,1.9,5.05,1.6,6.89-.15,1.39-.32,2.65-.48,3.88a16.8,16.8,0,0,0,0,2.36q.16.76.33,1.56a2.41,2.41,0,0,1,1.25-.73c0,.76-.3,1.83-.35,2.59,0-.76.3-1.83.35-2.59a2.41,2.41,0,0,0-1.25.73c.77,3.76,1.48,8.11,2.06,12.15l.11-.06a20.87,20.87,0,0,1,.59-7.15c-.24,1.07-.58.94-.67-.27l.58-.94c.38,2.11.75,4.21-.08,6.22,0,0,.29.9.43,1.35-.15.67-.53.65-.85.79,0,.46.07.93.12,1.4A23.51,23.51,0,0,0,943.37,798.33Z"/><path class="cls-2" d="M943,774c0,.33.08.72.12,1.14,0-1.53,0-3.06.08-4.6C942.61,771.33,942.8,772.65,943,774Z"/><path class="cls-2" d="M920.25,368.23l1.72-.66a3.22,3.22,0,0,1-1,0C920.53,367.56,920.44,367.89,920.25,368.23Z"/><path class="cls-2" d="M923.57,367l.31-.12.22-.2Z"/><path class="cls-2" d="M926.41,365.46a6.43,6.43,0,0,0-1.48.67A3.7,3.7,0,0,0,926.41,365.46Z"/><path class="cls-2" d="M923.94,366.17c.25.09.41.23.17.48h0l.83-.53A3,3,0,0,1,923.94,366.17Z"/><path class="cls-2" d="M923.94,366.17c-.24-.08-.58-.12-.71-.17A3.2,3.2,0,0,0,923.94,366.17Z"/><path class="cls-2" d="M923.06,362c.25-.25.64.89,1.13.39a19.82,19.82,0,0,1,3.53-2.42c.48-.49,1.93.35,2.41-.15,1.27-.89,4.19-3.85,2.13-2.92-3.08,1.48-5,2.63-7.74,4-2.1,1.4-4.09,2.85-6.27,4.23a9.45,9.45,0,0,1-1.93.68c.88-.17,1.77-.34,2.76-.56C920.41,365,921.28,363,923.06,362Z"/><path class="cls-2" d="M907.44,372.78l.73-.74c1.65.24,2.91-.65,4.17-1.54l-.85-.29c-.76.39-.73.74.08.69a10.73,10.73,0,0,0-5,1.29C906.81,372.45,906.94,372.81,907.44,372.78Z"/><path class="cls-2" d="M905.71,372.67l.88-.48-.07-.08-.85.54Z"/><path class="cls-2" d="M932.28,361.83c3.92-1.69,7.65-3.18,11.31-4.58.19-.33.28-.66.71-.69a2.91,2.91,0,0,0,1,0l1.61-.6.52-.32h0c.25-.25.09-.38-.16-.47a3.16,3.16,0,0,1-.72-.17c.14.05.47.08.72.17a3,3,0,0,0,1,0,5.94,5.94,0,0,1,1.49-.67,3.94,3.94,0,0,1-1.49.67l-.83.52-.21.21,3.67-1.35c.26-.14.52-.27.72-.4.81-.51,1.61-1,2.37-.71l.66-.23-.16-.05h.28l2.79-1a20.35,20.35,0,0,1,1.55-1.38l.84.29a2,2,0,0,1,.79-1c-.63-.13-1.23-.31-1.75-.36-.84-.3-.9,1.68-2.06.94,1.16.74,1.22-1.24,2.06-.94.52.05,1.12.23,1.75.36a4.39,4.39,0,0,1,3.1-.66,3.14,3.14,0,0,1-3.1.66,2,2,0,0,0-.79,1l-.84-.29a20.35,20.35,0,0,0-1.55,1.38l5.54-2c4.36-1.51,8.55-3.09,12.72-4.7l11.92-4.64,9.59,3c6.86,2.23,13.41,4.54,19.78,7,12.71,4.9,25.05,6.58,37.47,13.09,4.79,2.4,14.35,4.4,19.27,5.61,7.07-.14,5-6,4.79-6.4-2.87-5.33-6.66-3.83-14.19-8.55,5.21,2.93-4.86,1.61-9.34-2.73-6.44-6.49-18.28-5.91-27.39-9.6-2.28-.92-4.83-1.4-7.62-2.25a136.49,136.49,0,0,0-15.2-4.75c-2.54-.65-5.1-1.26-7.68-1.86l-3.87-.9-1-.23-1.52-.38-3.76-1-8.22,3.59c-2,.87-4.09,1.73-6.21,2.56-3.89,1.63-6.87,4.08-9.91,6-2.32,1.19-5.1,1.71-7,2.52a45.31,45.31,0,0,0-7.84,4.31c2.73-1.38,4.66-2.54,7.73-4,2.07-.94-.86,2-2.12,2.92-.49.49-1.93-.35-2.42.15a20,20,0,0,0-3.53,2.42c-.49.49-.88-.64-1.13-.4-1.78,1-2.64,3.07-4,3.27-1,.22-1.88.39-2.76.55a8.92,8.92,0,0,0-1.58.59c-.3.22-.6.46-.91.7a3,3,0,0,1,1,1c-.52.15-1.33.19-1.85.34.52-.15,1.33-.19,1.85-.34a3,3,0,0,0-1-1c-2.22,1.69-4.84,3.47-7.31,5.06l.08.08a10.82,10.82,0,0,1,5-1.3c-.8.05-.84-.29-.07-.69l.84.3c-1.26.89-2.52,1.78-4.16,1.53l-.74.74c-.5,0-.63-.32-.84-.58l-.89.47A13.85,13.85,0,0,0,932.28,361.83Z"/><path class="cls-2" d="M948.32,355.18l-.72.4,3.1-1.11C949.94,354.15,949.13,354.66,948.32,355.18Z"/><path class="cls-2" d="M957.65,412.19l1.22-.4a2.1,2.1,0,0,1-.76-.17C957.8,411.59,957.76,411.89,957.65,412.19Z"/><path class="cls-2" d="M960,411.42l.22-.07.14-.17Z"/><path class="cls-2" d="M962,410.33a3.09,3.09,0,0,0-1.05.45A1.91,1.91,0,0,0,962,410.33Z"/><path class="cls-2" d="M960.21,410.7c.19.11.32.26.16.47h0c.19-.14.37-.27.57-.4A1.93,1.93,0,0,1,960.21,410.7Z"/><path class="cls-2" d="M960.21,410.7c-.19-.12-.44-.19-.54-.26A2.69,2.69,0,0,0,960.21,410.7Z"/><path class="cls-2" d="M959.21,406.54c.16-.21.54.93.86.52a10.4,10.4,0,0,1,2.41-1.87c.32-.42,1.45.57,1.77.16.86-.69,2.78-3.16,1.33-2.52-2.15,1-3.47,1.88-5.38,2.85-1.44,1.08-2.79,2.21-4.28,3.25a4.59,4.59,0,0,1-1.37.41c.63,0,1.28-.1,2-.18C957.51,409.14,958,407.31,959.21,406.54Z"/><path class="cls-2" d="M948.57,414.92l.48-.61c1.24.44,2.09-.25,3-.94l-.65-.39c-.53.28-.48.62.11.67a5.44,5.44,0,0,0-3.57.61C948.08,414.53,948.2,414.89,948.57,414.92Z"/><path class="cls-2" d="M947.28,414.6c.2-.12.41-.24.61-.34l-.06-.09-.58.41Z"/><path class="cls-2" d="M966,407.59c2.76-1.11,5.39-2.07,8-2.94.11-.3.15-.6.47-.57a2,2,0,0,0,.75.16l1.14-.37.35-.24h0c.16-.2,0-.35-.16-.47a2.73,2.73,0,0,1-.55-.25c.11.06.36.14.55.25a1.74,1.74,0,0,0,.72.09,3,3,0,0,1,1-.46,1.93,1.93,0,0,1-1,.46l-.57.39-.14.17,2.6-.82c.19-.1.36-.2.5-.29.56-.39,1.11-.78,1.7-.38l.46-.14-.12-.07.21,0,2-.6a13.71,13.71,0,0,1,1-1.12l.65.39a1.4,1.4,0,0,1,.5-.84c-.48-.2-.93-.44-1.32-.56-.64-.39-.53,1.49-1.44.64.91.85.8-1,1.44-.64.39.12.84.36,1.32.56a2.34,2.34,0,0,1,2.23-.23c-.6.77-1.44.57-2.23.23a1.4,1.4,0,0,0-.5.84l-.65-.39a13.71,13.71,0,0,0-1,1.12l3.93-1.18,3.51-1,1,.32,1.08.33,2.64.75,5.28,1.45c3.53,1,7.11,1.94,10.84,3.08,4.8,1.51,9.37,3.14,13.81,4.93,8.85,3.56,17.59,4,26.15,9.19,3.31,1.88,10,2.91,13.51,3.62,5.06-.84,3.88-6.42,3.74-6.75-1.8-4.95-4.58-3.11-9.74-7,3.58,2.37-3.55,2.05-6.55-1.76-4.28-5.75-12.78-4-19.11-6.75a50.22,50.22,0,0,0-5.35-1.47c-9.87-4-19.84-4.38-30.52-7.31a13.77,13.77,0,0,0-2.82-.35,9.83,9.83,0,0,1-1-.1l-1.21-.11-2.27-.16L987,393.49c-1.61.84-3.62,1-5,1.52a22.68,22.68,0,0,0-5.43,3.13c1.9-1,3.24-1.83,5.38-2.86,1.45-.64-.47,1.83-1.32,2.53-.33.41-1.46-.58-1.78-.17a10.42,10.42,0,0,0-2.4,1.87c-.33.42-.71-.72-.87-.52-1.23.77-1.7,2.6-2.67,2.62-.71.09-1.36.14-2,.18a4.07,4.07,0,0,0-1.12.36l-.62.56a3.72,3.72,0,0,1,.79,1.06c-.38.07-1,0-1.35.09.38-.07,1,0,1.35-.09a3.72,3.72,0,0,0-.79-1.06,60.89,60.89,0,0,1-5,3.91l.07.09a5.4,5.4,0,0,1,3.56-.61c-.59-.05-.64-.39-.11-.67l.65.39c-.86.7-1.71,1.39-3,.94l-.48.62c-.37,0-.49-.39-.67-.67l-.62.34A8.64,8.64,0,0,0,966,407.59Z"/><path class="cls-2" d="M977.3,403.26l-.49.29,2.19-.67C978.41,402.48,977.86,402.87,977.3,403.26Z"/><path class="cls-2" d="M941.62,399.81l1.35-.52a2.85,2.85,0,0,1-.78,0C941.86,399.36,941.78,399.58,941.62,399.81Z"/><path class="cls-2" d="M944.22,398.81l.24-.09.18-.15Z"/><path class="cls-2" d="M946.48,397.65a5.73,5.73,0,0,0-1.18.53A3.86,3.86,0,0,0,946.48,397.65Z"/><path class="cls-2" d="M944.55,398.26c.19,0,.3.12.1.3h0l.66-.39A2.91,2.91,0,0,1,944.55,398.26Z"/><path class="cls-2" d="M944.55,398.26c-.18-.05-.44-.05-.54-.08A2.92,2.92,0,0,0,944.55,398.26Z"/><path class="cls-2" d="M944.09,395.51c.2-.18.44.55.84.2a18.75,18.75,0,0,1,2.82-1.8c.4-.35,1.47.13,1.86-.22,1-.66,3.4-2.78,1.78-2.05-2.43,1.14-4,2-6.13,3.07-1.68,1-3.27,2.1-5,3.14a9.91,9.91,0,0,1-1.52.55c.69-.16,1.38-.32,2.15-.52C941.91,397.68,942.67,396.29,944.09,395.51Z"/><path class="cls-2" d="M931.59,403.52l.59-.53a5.45,5.45,0,0,0,3.27-1.24l-.63-.15c-.61.3-.6.53,0,.45a10.17,10.17,0,0,0-3.88,1.13C931.12,403.34,931.2,403.57,931.59,403.52Z"/><path class="cls-2" d="M930.27,403.54l.69-.36-.05-.05-.68.4Z"/><path class="cls-2" d="M951.15,394.93c3.08-1.33,6-2.52,8.89-3.64.16-.23.25-.45.57-.5a2.87,2.87,0,0,0,.78,0l1.26-.49.41-.24h0c.2-.17.09-.25-.1-.3a2.94,2.94,0,0,1-.54-.07c.1,0,.36,0,.54.07a2.53,2.53,0,0,0,.75-.08,6,6,0,0,1,1.18-.52,3.71,3.71,0,0,1-1.18.52l-.66.39-.17.15,2.88-1.09.57-.3c.64-.39,1.29-.77,1.85-.6l.52-.19-.13,0,.22,0,2.19-.81c.41-.32.81-.69,1.25-1l.63.15a1.77,1.77,0,0,1,.65-.69c-.47-.05-.92-.14-1.31-.14-.63-.16-.78,1.16-1.63.73.85.43,1-.89,1.63-.73.39,0,.84.09,1.31.14a4.21,4.21,0,0,1,2.41-.6,3,3,0,0,1-2.41.6,1.77,1.77,0,0,0-.65.69l-.63-.15c-.44.3-.84.67-1.25,1l4.34-1.6c3-1.09,5.88-2.2,8.76-3.33l8.24-3.27,4.88,1.2,5.54,1.41c5.49,1.45,10.73,3,15.85,4.57,10.21,3.2,19.93,4.32,30,8.56,3.89,1.57,11.46,2.89,15.36,3.68,5.49-.08,3.51-3.9,3.31-4.14-2.59-3.46-5.44-2.49-11.61-5.57,4.24,1.91-3.67,1-7.45-1.78-5.44-4.22-14.61-3.87-22-6.28-1.83-.6-3.85-.92-6.08-1.48-4.49-1.4-8.92-2.44-13.4-3.37l-6.75-1.33-3.42-.66-1.72-.34-3.13-.66-4.84,2.08q-1.79.76-3.63,1.5a61.46,61.46,0,0,0-7.89,4.51c-1.83.91-4,1.41-5.52,2.05a44.35,44.35,0,0,0-6.22,3.27c2.16-1.06,3.7-1.92,6.13-3.07,1.63-.73-.77,1.39-1.77,2.05-.4.35-1.47-.13-1.87.23a20,20,0,0,0-2.82,1.79c-.4.36-.64-.37-.84-.2-1.42.79-2.18,2.17-3.21,2.38l-2.14.52a6.7,6.7,0,0,0-1.24.47l-.74.51a1.66,1.66,0,0,1,.68.6c-.41.12-1,.2-1.43.32.4-.12,1-.2,1.43-.32a1.66,1.66,0,0,0-.68-.6c-1.78,1.24-3.88,2.56-5.85,3.74l.06,0a10.24,10.24,0,0,1,3.87-1.12c-.62.07-.63-.15,0-.46l.63.15a5.39,5.39,0,0,1-3.27,1.24l-.6.53c-.38.05-.46-.18-.61-.34l-.7.36A12,12,0,0,0,951.15,394.93Z"/><path class="cls-2" d="M963.76,389.66l-.57.31,2.43-.91A2.67,2.67,0,0,0,963.76,389.66Z"/><path class="cls-2" d="M931.37,388.32l1.45-.59a2.83,2.83,0,0,1-.83.06C931.64,387.85,931.55,388.08,931.37,388.32Z"/><path class="cls-2" d="M934.15,387.19l.26-.1.19-.16Z"/><path class="cls-2" d="M936.56,385.93a7.15,7.15,0,0,0-1.25.58A4.17,4.17,0,0,0,936.56,385.93Z"/><path class="cls-2" d="M934.51,386.62c.19,0,.32.12.1.31h0l.71-.42A3,3,0,0,1,934.51,386.62Z"/><path class="cls-2" d="M934.51,386.62c-.19,0-.47,0-.58-.05A3.48,3.48,0,0,0,934.51,386.62Z"/><path class="cls-2" d="M934.05,383.86c.22-.19.47.54.89.17a22.56,22.56,0,0,1,3-1.93c.42-.37,1.55.07,2-.3,1.08-.71,3.65-2.95,1.91-2.14-2.59,1.25-4.23,2.19-6.54,3.35-1.8,1.12-3.5,2.26-5.36,3.37a12,12,0,0,1-1.62.62c.72-.18,1.47-.38,2.28-.61C931.71,386.15,932.54,384.71,934.05,383.86Z"/><path class="cls-2" d="M920.67,392.46l.64-.56a6.24,6.24,0,0,0,3.49-1.38l-.67-.13c-.65.33-.64.56,0,.46a11.8,11.8,0,0,0-4.14,1.29C920.18,392.3,920.26,392.53,920.67,392.46Z"/><path class="cls-2" d="M919.27,392.54l.74-.4,0,0-.73.43Z"/><path class="cls-2" d="M941.56,383c3.29-1.47,6.42-2.79,9.49-4,.17-.24.27-.47.62-.53a3.15,3.15,0,0,0,.82-.05l1.34-.55.45-.25h0c.21-.19.09-.27-.11-.3a2.56,2.56,0,0,1-.57-.06c.11,0,.38,0,.57.06a3.45,3.45,0,0,0,.8-.12,7.12,7.12,0,0,1,1.25-.57,4.26,4.26,0,0,1-1.25.57l-.7.43-.19.15,3.07-1.21c.22-.12.44-.23.61-.34a3,3,0,0,1,2-.67l.55-.22h-.13l.23,0,2.33-.9c.44-.35.87-.74,1.34-1.06l.67.13a1.93,1.93,0,0,1,.7-.73c-.51,0-1-.1-1.4-.09-.66-.13-.84,1.21-1.73.81.89.4,1.07-.94,1.73-.81.42,0,.89.06,1.4.09A4.75,4.75,0,0,1,968,372a3.29,3.29,0,0,1-2.56.7,1.93,1.93,0,0,0-.7.73l-.67-.13c-.47.32-.9.71-1.34,1.06l4.63-1.8c3.67-1.4,7.21-2.83,10.74-4.28L988.33,364l8.1,2.3c5.85,1.73,11.43,3.5,16.88,5.36,10.87,3.71,21.24,5.31,32,10.06,4.13,1.76,12.2,3.45,16.36,4.44,5.87.18,3.81-3.75,3.6-4-2.72-3.6-5.78-2.77-12.32-6.16,4.5,2.13-4,.86-7.94-2.15-5.75-4.5-15.56-4.6-23.36-7.37-2-.7-4.11-1.11-6.48-1.78-4.29-1.46-8.54-2.63-12.82-3.68-2.14-.53-4.29-1-6.45-1.52l-3.25-.74-1.64-.37-3.15-.76-6.55,3c-1.74.77-3.51,1.54-5.32,2.29a71.51,71.51,0,0,0-8.44,4.88c-2,1-4.25,1.58-5.88,2.29a51.78,51.78,0,0,0-6.65,3.56c2.31-1.16,4-2.1,6.55-3.35,1.74-.81-.83,1.43-1.91,2.14-.43.37-1.55-.07-2,.31a22,22,0,0,0-3,1.92c-.43.38-.68-.35-.89-.17-1.52.85-2.35,2.29-3.45,2.53l-2.28.61a9.1,9.1,0,0,0-1.32.53l-.79.55a1.65,1.65,0,0,1,.72.57c-.44.15-1.09.25-1.53.39.44-.14,1.09-.24,1.53-.39a1.65,1.65,0,0,0-.72-.57c-1.9,1.32-4.15,2.74-6.26,4l.06.05a11.9,11.9,0,0,1,4.13-1.3c-.66.1-.67-.12,0-.46l.67.13a6.16,6.16,0,0,1-3.48,1.38l-.65.57c-.41.06-.49-.17-.65-.32l-.75.39A14,14,0,0,0,941.56,383Z"/><path class="cls-2" d="M955,377.16l-.6.33,2.58-1A3,3,0,0,0,955,377.16Z"/><path class="cls-2" d="M1097.44,855.12l-1.79,0a2.92,2.92,0,0,1,.91.41C1097,855.64,1097.15,855.36,1097.44,855.12Z"/><path class="cls-2" d="M1094,855.07h-.32l-.27.11Z"/><path class="cls-2" d="M1090.88,855.45a6,6,0,0,0,1.59-.09A3.69,3.69,0,0,0,1090.88,855.45Z"/><path class="cls-2" d="M1093.37,855.69c-.19-.18-.29-.36,0-.5h0c-.31.06-.61.13-.93.18A3,3,0,0,1,1093.37,855.69Z"/><path class="cls-2" d="M1093.37,855.69c.19.16.49.32.59.42A2.85,2.85,0,0,0,1093.37,855.69Z"/><path class="cls-2" d="M1092.68,859.94c-.31.14-.26-1.06-.88-.78a18.71,18.71,0,0,1-4,1c-.62.29-1.63-1-2.24-.74-1.46.37-5.15,2.07-3,1.94,3.3-.25,5.45-.62,8.41-.91,2.4-.53,4.71-1.16,7.17-1.65a10.09,10.09,0,0,1,2,.07c-.86-.16-1.73-.33-2.7-.49C1096.16,858.05,1094.66,859.63,1092.68,859.94Z"/><path class="cls-2" d="M1110.64,855.55l-.93.42c-1.41-.83-2.86-.46-4.31-.09l.66.59c.83-.09.92-.43.18-.67a10.24,10.24,0,0,0,5,.61C1111.09,856.08,1111.1,855.71,1110.64,855.55Z"/><path class="cls-2" d="M1112.16,856.28l-1,.13,0,.1,1-.2Z"/><path class="cls-2" d="M1084.3,856.69c-4.14.15-8,.17-11.86.14-.29.24-.48.52-.88.39a3.12,3.12,0,0,0-.9-.41c-.56,0-1.12,0-1.67,0l-.58.11h0c-.31.14-.21.32,0,.5a3.22,3.22,0,0,1,.6.42c-.11-.1-.4-.26-.6-.42a2.74,2.74,0,0,0-.9-.32,5.88,5.88,0,0,1-1.58.08,3.47,3.47,0,0,1,1.58-.08l.94-.19.26-.11-3.8-.09c-.29,0-.56.07-.79.12-.91.18-1.82.36-2.4-.21l-.68,0,.14.1a1.07,1.07,0,0,1-.26-.11l-2.88-.09c-.61.24-1.25.54-1.88.73l-.66-.59a1.92,1.92,0,0,1-1.06.62c.53.35,1,.74,1.45,1,.66.59,1.42-1.23,2.2-.12-.78-1.11-1.54.71-2.2.12-.44-.23-.92-.62-1.45-1a4.17,4.17,0,0,1-3-.51,3,3,0,0,1,3,.51,1.92,1.92,0,0,0,1.06-.62l.66.59c.63-.19,1.27-.49,1.88-.73l-5.71-.18c-12.47-.48-24-.09-36.89-.37-7-.19-13.74-.55-20.35-1.11-13.19-1.1-25.15.77-38.51-2-5.12-.94-14.57-.16-19.49.08-6.54,2.14-3,7.21-2.7,7.49,4.15,4.3,7.27,1.79,15.58,4.19-5.66-1.34,4.08-2.92,9.45,0,7.79,4.41,18.66.5,28.16,1.46,2.37.24,4.88,0,7.72,0,14.71,1.23,28.31-1,43.75-1,4.09-.11,7.66-1.3,11.09-2,2.51-.27,5.22.26,7.26.21a43.32,43.32,0,0,0,8.62-1.15c-3,.29-5.12.66-8.42.91-2.2.13,1.5-1.57,3-1.94.62-.28,1.63,1,2.25.74a18.19,18.19,0,0,0,4-1c.62-.28.57.92.88.78,2-.31,3.48-1.89,4.76-1.59,1,.16,1.84.33,2.69.49a7.45,7.45,0,0,0,1.64,0l1.07-.33a3.08,3.08,0,0,1-.52-1.25c.53,0,1.28.3,1.8.35-.52-.05-1.27-.3-1.8-.35a3.08,3.08,0,0,0,.52,1.25c2.6-.76,5.61-1.46,8.4-2,0,0,0-.07,0-.11a10.12,10.12,0,0,1-5-.6c.74.25.66.58-.18.67l-.66-.58c1.46-.38,2.91-.75,4.31.09l.93-.43c.47.16.45.54.56.85l1-.11A13.2,13.2,0,0,0,1084.3,856.69Z"/><path class="cls-2" d="M1067.43,857c.23,0,.5-.08.79-.11l-3.19-.09C1065.61,857.41,1066.52,857.22,1067.43,857Z"/><path class="cls-2" d="M1097.71,894.54l-1.76,0a3,3,0,0,1,.89.43C1097.23,895.05,1097.43,894.78,1097.71,894.54Z"/><path class="cls-2" d="M1094.32,894.44H1094l-.26.11A5.67,5.67,0,0,1,1094.32,894.44Z"/><path class="cls-2" d="M1091.26,894.76a5.38,5.38,0,0,0,1.56-.06A3.82,3.82,0,0,0,1091.26,894.76Z"/><path class="cls-2" d="M1093.71,895c-.19-.18-.29-.36,0-.5h0c-.31.05-.61.12-.93.16A3.05,3.05,0,0,1,1093.71,895Z"/><path class="cls-2" d="M1093.71,895c.18.17.47.33.57.43A3.55,3.55,0,0,0,1093.71,895Z"/><path class="cls-2" d="M1093,899.28c-.31.14-.24-1.06-.85-.79a18.13,18.13,0,0,1-4,.9c-.61.28-1.58-1-2.19-.78-1.44.35-5.1,2-2.94,1.9,3.26-.2,5.37-.54,8.29-.78,2.37-.49,4.64-1.08,7.07-1.53a9.07,9.07,0,0,1,2,.11c-.84-.18-1.7-.36-2.64-.53C1096.41,897.45,1094.91,899,1093,899.28Z"/><path class="cls-2" d="M1110.68,895.19l-.92.41c-1.37-.85-2.8-.51-4.23-.16.21.2.42.4.64.59.82-.07.91-.41.18-.66a9.81,9.81,0,0,0,4.87.69C1111.11,895.73,1111.13,895.36,1110.68,895.19Z"/><path class="cls-2" d="M1112.16,896l-.94.11a.38.38,0,0,0,0,.1l1-.18Z"/><path class="cls-2" d="M1084.77,895.9c-4.07.07-7.91,0-11.65-.06-.29.23-.49.5-.88.37a3,3,0,0,0-.88-.43l-1.64,0-.57.1h0c-.3.14-.21.33,0,.5a3.69,3.69,0,0,1,.57.43c-.1-.1-.38-.26-.57-.43a2.72,2.72,0,0,0-.88-.33,5.78,5.78,0,0,1-1.56,0,3.63,3.63,0,0,1,1.56,0l.92-.17.26-.11-3.73-.15c-.29,0-.56.06-.78.1-.9.16-1.8.33-2.36-.25l-.66,0,.13.1a1,1,0,0,1-.25-.11l-2.83-.14c-.61.23-1.24.52-1.86.7l-.64-.6a2,2,0,0,1-1,.61c.51.35,1,.75,1.41,1,.64.6,1.41-1.21,2.16-.09-.75-1.12-1.52.69-2.16.09-.43-.24-.9-.64-1.41-1a4.14,4.14,0,0,1-3-.57,2.87,2.87,0,0,1,3,.57,2,2,0,0,0,1-.61l.64.6c.62-.18,1.25-.47,1.86-.7l-5.61-.27c-12.25-.7-23.54-.5-36.25-1-6.89-.31-13.5-.78-20-1.45-12.94-1.33-24.73.35-37.81-2.6-5-1-14.33-.41-19.16-.26-6.47,2-3.08,7.16-2.77,7.45,4,4.37,7.1,1.91,15.23,4.45-5.53-1.44,4.06-2.85,9.3.13,7.57,4.53,18.32.81,27.64,1.93,2.34.28,4.81.06,7.59.13,14.45,1.48,27.85-.54,43-.27,4,0,7.54-1.17,10.93-1.8,2.47-.22,5.12.36,7.13.34a41.79,41.79,0,0,0,8.48-1c-2.91.23-5,.57-8.28.77-2.17.08,1.5-1.55,2.93-1.9.61-.27,1.58,1.06,2.2.78a18,18,0,0,0,4-.9c.62-.27.55.93.86.8,2-.29,3.45-1.83,4.7-1.51,1,.17,1.8.35,2.64.53a7.81,7.81,0,0,0,1.61.06l1.06-.3a3,3,0,0,1-.49-1.27c.52.06,1.25.32,1.76.39-.51-.07-1.24-.33-1.76-.39a3,3,0,0,0,.49,1.27c2.57-.72,5.53-1.37,8.28-1.91l0-.1a9.83,9.83,0,0,1-4.87-.69c.73.26.64.59-.18.67l-.64-.6c1.44-.34,2.87-.69,4.23.17l.92-.41c.46.16.44.54.54.86l1-.1A12.61,12.61,0,0,0,1084.77,895.9Z"/><path class="cls-2" d="M1068.19,896c.22,0,.49-.07.78-.1l-3.14-.14C1066.39,896.3,1067.29,896.13,1068.19,896Z"/><path class="cls-2" d="M1123.23,946.79l-2.29-.06a4.55,4.55,0,0,1,1.16.43C1122.6,947.3,1122.86,947,1123.23,946.79Z"/><path class="cls-2" d="M1118.83,946.67l-.41,0-.34.11Z"/><path class="cls-2" d="M1114.85,947a9.12,9.12,0,0,0,2-.05A6.12,6.12,0,0,0,1114.85,947Z"/><path class="cls-2" d="M1118,947.27c-.24-.18-.36-.37,0-.5h0c-.4.06-.79.12-1.2.16A4.12,4.12,0,0,1,1118,947.27Z"/><path class="cls-2" d="M1118,947.27c.24.17.61.33.74.43A3.51,3.51,0,0,0,1118,947.27Z"/><path class="cls-2" d="M1117,951.51c-.4.13-.31-1.07-1.1-.8a31.59,31.59,0,0,1-5.2.88c-.8.27-2-1.07-2.84-.8-1.87.34-6.64,2-3.83,1.88,4.23-.18,7-.5,10.77-.72,3.08-.49,6-1.06,9.2-1.49a15.19,15.19,0,0,1,2.54.11c-1.09-.18-2.2-.37-3.43-.55C1121.51,949.69,1119.55,951.23,1117,951.51Z"/><path class="cls-2" d="M1140.07,947.52l-1.19.4c-1.78-.86-3.64-.53-5.5-.19l.82.6c1.07-.07,1.19-.4.25-.67a16.25,16.25,0,0,0,6.32.72C1140.64,948.06,1140.66,947.68,1140.07,947.52Z"/><path class="cls-2" d="M1142,948.28c-.41,0-.83.08-1.23.1,0,0,0,.07,0,.11l1.23-.18Z"/><path class="cls-2" d="M1106.41,948.07c-5.3,0-10.28,0-15.15-.13-.37.24-.63.51-1.14.37a4.29,4.29,0,0,0-1.14-.43l-2.12-.06-.75.09h0c-.4.13-.28.32,0,.5a3.87,3.87,0,0,1,.75.43c-.14-.1-.51-.26-.75-.43a3.72,3.72,0,0,0-1.14-.34,9.77,9.77,0,0,1-2,0,5.83,5.83,0,0,1,2,0l1.2-.17.34-.11-4.85-.17c-.37,0-.72.06-1,.1-1.17.16-2.34.32-3.06-.26l-.87,0,.17.11-.32-.11-3.67-.16c-.8.23-1.61.51-2.43.68l-.83-.6a2.71,2.71,0,0,1-1.36.6c.66.36,1.26.76,1.82,1,.83.6,1.84-1.2,2.81-.07-1-1.13-2,.67-2.81.07-.56-.24-1.16-.64-1.82-1a6.65,6.65,0,0,1-3.87-.58,4.62,4.62,0,0,1,3.87.58,2.71,2.71,0,0,0,1.36-.6l.83.6c.82-.17,1.63-.45,2.43-.68l-7.29-.31c-15.91-.76-30.59-.63-47.1-1.19-8.94-.35-17.53-.86-26-1.56-16.8-1.4-32.13.21-49.11-2.82-6.51-1.06-18.61-.49-24.89-.36-8.42,2-4,7.14-3.66,7.43,5.18,4.39,9.22,1.95,19.77,4.53-7.18-1.47,5.29-2.83,12.07.18,9.81,4.58,23.81.92,35.91,2.09,3,.29,6.24.09,9.86.18,18.76,1.56,36.18-.38,55.9,0,5.23,0,9.82-1.12,14.22-1.73,3.21-.21,6.65.38,9.26.38a70.25,70.25,0,0,0,11-1c-3.78.22-6.55.54-10.77.72-2.81.08,2-1.54,3.82-1.88.8-.26,2,1.07,2.85.8a29.35,29.35,0,0,0,5.19-.88c.8-.27.71.93,1.11.8,2.54-.27,4.49-1.81,6.12-1.48,1.23.17,2.34.36,3.42.54a13.15,13.15,0,0,0,2.09.08l1.38-.31a2.54,2.54,0,0,1-.62-1.26c.67.06,1.61.33,2.28.39-.67-.06-1.61-.33-2.28-.39a2.54,2.54,0,0,0,.62,1.26c3.34-.7,7.2-1.33,10.78-1.85l0-.11a16.24,16.24,0,0,1-6.31-.72c.94.27.82.6-.25.67l-.82-.6c1.87-.33,3.73-.67,5.5.19l1.19-.4c.6.16.57.54.69.86.41,0,.83,0,1.24-.09A19,19,0,0,0,1106.41,948.07Z"/><path class="cls-2" d="M1084.86,948c.29,0,.64-.06,1-.09l-4.07-.17C1082.52,948.37,1083.69,948.2,1084.86,948Z"/><path class="cls-1" d="M286.14,921.22l-15,23h-1l-15.12-23v34.83h-3v-39.2h3.58l15,22.85,14.84-22.85h3.7v39.2h-3Z"/><path class="cls-1" d="M362.3,934.94h23v2.74h-23v15.46h24.75v2.91H359.33v-39.2h27.05v2.86H362.3Z"/><path class="cls-1" d="M488.19,936c.22,10-6.16,20-19.88,20H455v-39.2h13.27C481.58,916.85,488,926.37,488.19,936Zm-30.13-16.29v33.43h10.25c11.65,0,17-8.73,16.85-17.14-.16-8.17-5.54-16.29-16.85-16.29Z"/><path class="cls-1" d="M557.29,956.05v-39.2h3v39.2Z"/><path class="cls-1" d="M662.85,950.62a20.18,20.18,0,0,1-14.28,5.88c-13.22,0-20.1-9.24-20.16-19.82s6.72-20.27,20.16-20.27a20.18,20.18,0,0,1,14.28,5.88l-2.07,1.79a17.17,17.17,0,0,0-12.21-5c-11.42,0-17.3,8.07-17.25,17.47.11,9.19,5.94,17.14,17.25,17.14a17.52,17.52,0,0,0,12.26-5Z"/><path class="cls-1" d="M761,956.05l-4.31-9.63H733.24L729,956.05h-3.25l17.58-39.2h3.31l17.58,39.2Zm-5.49-12.43L745,919.76l-10.53,23.86Z"/><path class="cls-1" d="M834.43,916.85V953.2H856.5v2.85H831.41v-39.2Z"/></svg>