<svg id="Layer_1" data-name="Layer 1" xmlns="http://www.w3.org/2000/svg" viewBox="0 0 128 128"><defs><style>.cls-1{fill:#18207b;}.cls-2{fill:#f5b222;}</style></defs><title>Untitled-3</title><path class="cls-1" d="M31.33,96H30.9V93H27.33v3H26.9V89.87h.43v2.71H30.9V89.87h.43Z"/><path class="cls-1" d="M42.25,96H38.91V89.87h3.34v.39H39.34v2.31h2.75V93H39.34v2.62h2.91Z"/><path class="cls-1" d="M52.43,93.82H50L49.09,96h-.47l2.46-6.13h.27L53.76,96h-.48Zm-2.33-.38h2.19l-.83-2.2c-.07-.18-.16-.41-.26-.72a5.68,5.68,0,0,1-.24.73Z"/><path class="cls-1" d="M60.48,96V89.87h.42v5.71h2.92V96Z"/><path class="cls-1" d="M72.32,96h-.43V90.27h-2v-.4h4.4v.4h-2Z"/><path class="cls-1" d="M85.49,96h-.43V93H81.49v3h-.43V89.87h.43v2.71h3.57V89.87h.43Z"/><path class="cls-1" d="M44.53,47.37a.6.6,0,0,0-.25.11l-.4.23-.39.23a.57.57,0,0,1-.22.11l-1,.54a8.23,8.23,0,0,0-.92.54A36.45,36.45,0,0,0,37.49,52a27.65,27.65,0,0,0-3.32,3.26,21.61,21.61,0,0,0-1.86,2.45,19.44,19.44,0,0,0-1.49,2.72,16.32,16.32,0,0,0-1,2.89,11.73,11.73,0,0,0-.31,2.93,11.62,11.62,0,0,0,.25,2,3,3,0,0,0,.72,1.45,2.46,2.46,0,0,0,1.88.7,6.32,6.32,0,0,0,2.36-.65,14.63,14.63,0,0,0,2.67-1.63,33.61,33.61,0,0,0,2.74-2.27q1.35-1.25,2.58-2.58c.83-.9,1.57-1.75,2.24-2.56a2.66,2.66,0,0,0,.49-.61,2.44,2.44,0,0,1,.52-.65.32.32,0,0,1,.48.11,1,1,0,0,1,.2.57A7.4,7.4,0,0,1,46,62.94a12.22,12.22,0,0,1-1.41,2.34,21.4,21.4,0,0,1-2.37,2.56,22.27,22.27,0,0,1-2.9,2.31,16.06,16.06,0,0,1-3.19,1.69,8.72,8.72,0,0,1-3.19.64A5.43,5.43,0,0,1,30.61,72a5.25,5.25,0,0,1-1.69-1.24A6.72,6.72,0,0,1,27.78,69a11.21,11.21,0,0,1-.7-2.12c0-.21-.09-.45-.13-.73a7.34,7.34,0,0,1-.05-.81,15,15,0,0,1,.38-3.45,27.8,27.8,0,0,1,.91-3.1,6.75,6.75,0,0,1,.57-1.33,22.19,22.19,0,0,1,2.67-4.21,26.87,26.87,0,0,1,3.62-3.69,28.53,28.53,0,0,1,4.21-2.92,20.79,20.79,0,0,1,4.48-1.89,1.6,1.6,0,0,1,1.18,0,1.15,1.15,0,0,0,.36.07.62.62,0,0,0,.39-.18,1.11,1.11,0,0,1,1.13,0,1.14,1.14,0,0,1,.66,1,4.21,4.21,0,0,1-.25,2c-.16.57-.34,1.11-.52,1.61s-.36,1-.55,1.52-.37,1.07-.54,1.67a16.79,16.79,0,0,0-.43,2,2.23,2.23,0,0,1-.12.41.57.57,0,0,1-.2.3.69.69,0,0,1-.48.38.58.58,0,0,1-.56-.23c-.05-.07-.1-.15-.16-.22a.89.89,0,0,1-.16-.25A5.9,5.9,0,0,1,43,53a9.86,9.86,0,0,1,0-2.1,7.4,7.4,0,0,1,.5-2A4.8,4.8,0,0,1,44.53,47.37Z"/><path class="cls-1" d="M53.12,68.79l-.71.56a6.24,6.24,0,0,1-.86.54,4.65,4.65,0,0,1-1,.35,2.49,2.49,0,0,1-1.09,0,2.16,2.16,0,0,1-.79-.3A4.39,4.39,0,0,1,48,69.4a1.54,1.54,0,0,1-.39-.93,4.89,4.89,0,0,1,0-1c.12-.62.29-1.27.5-2a17.52,17.52,0,0,1,.79-2,11.35,11.35,0,0,1,2-2.94,5.42,5.42,0,0,1,2.93-1.64,3,3,0,0,1,1.2-.06,2.6,2.6,0,0,1,1.1.41,2.2,2.2,0,0,1,.71.81,1.43,1.43,0,0,1,.11,1.06c-.05.14-.1.28-.16.43a1.55,1.55,0,0,1-.21.36.59.59,0,0,1-.24.16c-.07,0-.14-.06-.21-.2a1.74,1.74,0,0,1-.09-.31,2.14,2.14,0,0,0-.16-.39,1.49,1.49,0,0,0-.31-.36.83.83,0,0,0-.52-.16,2.41,2.41,0,0,0-1.54.84,14.43,14.43,0,0,0-1.65,2,20.21,20.21,0,0,0-1.36,2.26,8.77,8.77,0,0,0-.71,1.7q-.23.93,0,1c.17,0,.43-.1.79-.4a11.82,11.82,0,0,0,1.22-1.23q.68-.8,1.29-1.56c.4-.51.76-1,1-1.36s.46-.61.49-.63a1.31,1.31,0,0,1,.93-.32,1.34,1.34,0,0,1,.81.34,1.54,1.54,0,0,1,.46.75,1.22,1.22,0,0,1-.09.91c-.17.39-.39.84-.66,1.37a4.74,4.74,0,0,0-.52,1.39c-.07.62,0,1,.21,1.22s.61.18,1.19,0a5,5,0,0,0,1.43-1c.5-.49,1-1,1.49-1.55s.95-1.08,1.38-1.58a9.77,9.77,0,0,1,1.07-1.11,2.28,2.28,0,0,1,.27-.23q.16-.13.27-.06a.3.3,0,0,1,.2.2,2.26,2.26,0,0,1,0,.27A18.87,18.87,0,0,1,62,66a13.74,13.74,0,0,1-1.45,2,10.59,10.59,0,0,1-1.79,1.69,8.49,8.49,0,0,1-2.13,1.16,2.64,2.64,0,0,1-1.29.16,2.42,2.42,0,0,1-1-.41,2.46,2.46,0,0,1-.75-.82A3.69,3.69,0,0,1,53.12,68.79Z"/><path class="cls-1" d="M70.64,60.7a7.93,7.93,0,0,0-2.51,1.81A22.44,22.44,0,0,0,66,65.18c-.68,1-1.35,2-2,3s-1.29,2-1.94,2.94a.59.59,0,0,1-.68.18.77.77,0,0,1-.5-.56,1.43,1.43,0,0,1,.07-.88c.17-.57.33-1.21.49-1.93s.3-1.47.44-2.26l.45-2.36c.16-.79.32-1.54.49-2.26a.69.69,0,0,1,.34-.45,1.45,1.45,0,0,1,.59-.18,1,1,0,0,1,.57.13.64.64,0,0,1,.32.43,4,4,0,0,1-.09,1.72c-.15.67-.32,1.32-.52,2,.43-.53.91-1.14,1.42-1.85a16.64,16.64,0,0,1,1.68-2,9.63,9.63,0,0,1,1.94-1.5,3.46,3.46,0,0,1,2.13-.48,1.81,1.81,0,0,1,.91.59,2.83,2.83,0,0,1,.52.93,3.42,3.42,0,0,1,.2,1,2.81,2.81,0,0,1-.09.86c-.17.33-.36.7-.59,1.09a6.34,6.34,0,0,0-.54,1.2,3.37,3.37,0,0,0-.16,1.2A1.47,1.47,0,0,0,72,66.86c.15.19.13.33,0,.43a1.58,1.58,0,0,1-.68.16,3.11,3.11,0,0,1-.86-.09,1.13,1.13,0,0,1-.61-.32,3.69,3.69,0,0,1-.7-1.6,4.48,4.48,0,0,1,0-1.63,6.63,6.63,0,0,1,.58-1.61A12.59,12.59,0,0,1,70.64,60.7Z"/><path class="cls-1" d="M73.62,67.79A9.62,9.62,0,0,1,73.9,65,10,10,0,0,1,75,62.26a6.34,6.34,0,0,1,1.81-2,4.44,4.44,0,0,1,2.56-.82,1.92,1.92,0,0,1,1.16.75,1.66,1.66,0,0,1,.23,1.4,5,5,0,0,1-.41,1.34,4.07,4.07,0,0,1-.91,1.16c-.22.2-.52.45-.9.76s-.75.63-1.11,1a7.94,7.94,0,0,0-.93,1,1.54,1.54,0,0,0-.39.87c-.07.62,0,1,.28,1.2a1.58,1.58,0,0,0,1,.22,4.13,4.13,0,0,0,1.28-.34c.43-.19.77-.36,1-.5s.65-.49,1-.81.77-.66,1.15-1l1.11-1,.9-.82.52-.54A2.14,2.14,0,0,1,85,63.6a1.08,1.08,0,0,1,.45,0c.11,0,.09.21,0,.54a7.06,7.06,0,0,1-.7,1.15c-.28.36-.57.71-.88,1.07l-1.38,1.51a16.14,16.14,0,0,1-1.54,1.45,11.31,11.31,0,0,1-1.68,1.14,5.22,5.22,0,0,1-1.81.63,4,4,0,0,1-2.71-.68A3,3,0,0,1,73.62,67.79Zm5.73-6.73a3.94,3.94,0,0,0-1.53.93,3.47,3.47,0,0,0-.8,1.68,14.32,14.32,0,0,0,1.41-1.16A3.5,3.5,0,0,0,79.35,61.06Z"/><path class="cls-1" d="M34.1,77.82a4,4,0,0,0-2.76-1.11,3.64,3.64,0,0,0-3.8,3.84,3.58,3.58,0,0,0,3.8,3.77,3.84,3.84,0,0,0,2.61-1V80.91H31v-.57h3.62v3.22A4.48,4.48,0,0,1,31.34,85a4.42,4.42,0,1,1,0-8.84,4.46,4.46,0,0,1,3.14,1.29Z"/><path class="cls-1" d="M43.22,84.83l-.95-2.11H37.14l-.94,2.11h-.71l3.86-8.6h.72l3.86,8.6ZM42,82.11,39.7,76.87l-2.31,5.24Z"/><path class="cls-1" d="M46.07,76.84H43v-.59h6.88v.59H46.73v8h-.66Z"/><path class="cls-1" d="M51.75,80.2h5v.6h-5v3.4h5.43v.63H51.1v-8.6H57v.63H51.75Z"/><path class="cls-1" d="M64.07,76.23h.37l2.63,7.87,2.67-7.87h.71l-3,8.63H66.7l-1.36-4-1.08-3.4L63.17,80.8,61.8,84.86h-.71l-3-8.63h.71l2.65,7.87Z"/><path class="cls-1" d="M78.45,84.83l-1-2.11H72.37l-.94,2.11h-.71l3.86-8.6h.72l3.86,8.6Zm-1.21-2.72-2.31-5.24-2.31,5.24Z"/><path class="cls-1" d="M81.46,81.39,78.1,76.25v0h.78l2.91,4.53,2.92-4.53h.78v0l-3.37,5.14v3.44h-.66Z"/><path class="cls-2" d="M101.52,80.63l0-.41a.71.71,0,0,1,0,.2A.46.46,0,0,0,101.52,80.63Z"/><path class="cls-2" d="M101.48,79.84v-.08s0,0,0-.06A.68.68,0,0,0,101.48,79.84Z"/><path class="cls-2" d="M101.41,79.12c0,.13,0,.25,0,.37A2.49,2.49,0,0,0,101.41,79.12Z"/><path class="cls-2" d="M101.42,79.69s0-.06,0,0h0l0-.21A1.27,1.27,0,0,1,101.42,79.69Z"/><path class="cls-2" d="M101.42,79.69s0,.11,0,.14Z"/><path class="cls-2" d="M101.08,79.53c0-.07.08-.06,0-.2,0-.33-.11-.61-.13-.93,0-.14.06-.37,0-.51,0-.33-.23-1.18-.19-.68.06.76.12,1.25.18,1.93s.15,1.08.22,1.65a3.39,3.39,0,0,1,0,.45v-.62C101.27,80.33,101.13,80,101.08,79.53Z"/><path class="cls-2" d="M101.65,83.65c0-.07,0-.21,0-.21a3.68,3.68,0,0,0,0-1s0,.1,0,.15,0,.21.06,0a7.21,7.21,0,0,0,0,1.14S101.65,83.76,101.65,83.65Z"/><path class="cls-2" d="M101.62,84l0-.22h0c0,.07,0,.15,0,.22Z"/><path class="cls-2" d="M101.22,77.61c-.06-1-.11-1.84-.16-2.72a.4.4,0,0,1,0-.2,1.5,1.5,0,0,0,0-.2c0-.13,0-.26,0-.39s0-.09,0-.13h0c0-.07,0,0,0,0a.59.59,0,0,1,0,.14s0-.09,0-.14a1.23,1.23,0,0,0,0-.2,2.22,2.22,0,0,1,0-.37,2.62,2.62,0,0,1,0,.37c0,.07,0,.14,0,.21l0,.06c0-.29,0-.58,0-.87a.9.9,0,0,0,0-.18,1.71,1.71,0,0,1,0-.55.86.86,0,0,0,0-.16v0l0-.65c0-.15-.06-.29-.08-.44s0-.1,0-.15a.7.7,0,0,1-.06-.24c0,.12,0,.23-.06.33s.11.33,0,.51c.07-.18-.08-.36,0-.51s0-.21.06-.33a2.73,2.73,0,0,1,0-.7,2,2,0,0,1,0,.7.7.7,0,0,0,.06.24s0,.15,0,.15.05.29.08.44l-.06-1.31c-.12-2.86-.3-5.5-.45-8.46-.07-1.61-.13-3.15-.17-4.67-.09-3-.39-5.76-.35-8.82,0-1.18-.17-3.35-.25-4.47-.25-1.5-.6-.69-.62-.62-.28.95,0,1.66-.12,3.57,0-1.3.27.93.12,2.16-.24,1.79.2,4.28.25,6.46,0,.54.06,1.12.1,1.77.09,3.37.44,6.49.64,10,.06.94.2,1.76.3,2.54,0,.58,0,1.2.07,1.67,0,.73.13,1.37.2,2-.06-.68-.11-1.17-.17-1.93,0-.5.14.35.18.68,0,.14,0,.37,0,.51,0,.31.08.6.12.93,0,.14-.06.13,0,.2,0,.46.2.8.19,1.09v.62c0,.12,0,.25,0,.38a2,2,0,0,1,0,.24A.31.31,0,0,1,101,76c0,.12,0,.3,0,.42,0-.12,0-.3,0-.42a.31.31,0,0,0-.09.12c.1.6.19,1.29.27,1.93h0a6.17,6.17,0,0,1,0-1.14c0,.17,0,.15-.05,0l0-.15a3.31,3.31,0,0,1,.05,1s0,.14,0,.21,0,.1-.06.13a1.64,1.64,0,0,0,0,.22A5.58,5.58,0,0,0,101.22,77.61Z"/><path class="cls-2" d="M101,73.75s0,.11,0,.18c0-.25,0-.49,0-.73A1.76,1.76,0,0,0,101,73.75Z"/><path class="cls-2" d="M109.25,80.68c0-.12,0-.26,0-.39,0,.07,0,.14,0,.2A.29.29,0,0,0,109.25,80.68Z"/><path class="cls-2" d="M109.17,79.93V79.8S109.16,79.89,109.17,79.93Z"/><path class="cls-2" d="M109.07,79.25a3.39,3.39,0,0,0,0,.35A1.63,1.63,0,0,0,109.07,79.25Z"/><path class="cls-2" d="M109.11,79.8s0-.07,0,0h0c0-.06,0-.13,0-.2A1.33,1.33,0,0,1,109.11,79.8Z"/><path class="cls-2" d="M109.11,79.8a.83.83,0,0,0,0,.13S109.1,79.85,109.11,79.8Z"/><path class="cls-2" d="M108.76,79.66c0-.06.08-.06,0-.19-.06-.32-.13-.58-.16-.88,0-.13,0-.36,0-.49-.06-.32-.28-1.12-.22-.64.1.72.18,1.19.27,1.83s.19,1,.29,1.56c0,.15,0,.29,0,.44,0-.19,0-.38,0-.59S108.83,80.1,108.76,79.66Z"/><path class="cls-2" d="M109.51,83.57c0-.07-.05-.2-.05-.2a3.33,3.33,0,0,0-.09-.94l0,.14c0,.18,0,.2,0,0a6.39,6.39,0,0,0,.07,1.08S109.51,83.67,109.51,83.57Z"/><path class="cls-2" d="M109.49,83.9l0-.21h0c0,.07,0,.14,0,.21Z"/><path class="cls-2" d="M108.82,77.82c-.1-.9-.19-1.75-.28-2.59a.48.48,0,0,1-.05-.19.66.66,0,0,0,0-.2l0-.36a.51.51,0,0,1,0-.13h0c0-.07,0,0,0,0s0,.09,0,.13a.69.69,0,0,1,0-.13v-.2c0-.11,0-.23,0-.35a2.68,2.68,0,0,1,0,.35c0,.07,0,.14,0,.2v.06c0-.28,0-.55-.08-.83a1.11,1.11,0,0,1,0-.17,1.46,1.46,0,0,1,0-.53s0-.09,0-.14v0l-.06-.63c0-.13-.07-.27-.1-.41l0-.14a1,1,0,0,1-.07-.23c0,.11,0,.22,0,.32s.13.3.06.48c.07-.18-.09-.34-.06-.48s0-.21,0-.32a2.49,2.49,0,0,1,0-.67,1.55,1.55,0,0,1,0,.67,1,1,0,0,0,.07.23l0,.14c0,.14.07.28.1.41,0-.41-.07-.82-.11-1.25-.25-2.72-.54-5.23-.81-8-.15-1.53-.27-3-.38-4.45-.21-2.88-.63-5.49-.72-8.41,0-1.13-.32-3.19-.45-4.26-.32-1.42-.63-.63-.65-.56-.24.92,0,1.59,0,3.42,0-1.24.32.88.22,2.06-.17,1.72.39,4.08.53,6.15,0,.52.11,1.07.17,1.69.24,3.22.72,6.18,1.08,9.55.1.89.27,1.66.4,2.41.08.55.1,1.14.15,1.59.08.7.18,1.3.28,1.87-.08-.64-.16-1.11-.26-1.83-.06-.48.16.32.22.64,0,.13,0,.35,0,.49,0,.29.11.56.17.88,0,.13-.06.13,0,.19a10.39,10.39,0,0,1,.23,1c0,.21,0,.4,0,.59a2.16,2.16,0,0,0,0,.35c0,.08,0,.16.05.24a.17.17,0,0,1,.09-.12c0,.11,0,.28,0,.39,0-.11,0-.28,0-.39a.17.17,0,0,0-.09.12c.12.56.24,1.21.35,1.82h0a6.33,6.33,0,0,1-.07-1.08c0,.16,0,.14,0,0l0-.14a3.33,3.33,0,0,1,.09.94l0,.2c0,.1,0,.1,0,.12l0,.21A5.62,5.62,0,0,0,108.82,77.82Z"/><path class="cls-2" d="M108.41,74.14l0,.17c0-.23,0-.46-.07-.69A1.67,1.67,0,0,0,108.41,74.14Z"/><path class="cls-2" d="M32.21,40.7h.73l-.37,0A1,1,0,0,0,32.21,40.7Z"/><path class="cls-2" d="M33.61,40.71h0Z"/><path class="cls-2" d="M34.88,40.69h-.65C34.41,40.7,34.63,40.7,34.88,40.69Z"/><path class="cls-2" d="M33.87,40.66c.07,0,.11,0,0,0h0l.38,0Z"/><path class="cls-2" d="M33.87,40.66l-.24,0Z"/><path class="cls-2" d="M34.19,40.25c.13,0,.1.1.35.07l.84,0h.82c.25,0,.65.12.9.11.6,0,2.12-.14,1.23-.15-1.35,0-2.23,0-3.44,0L32,40.35l-.81,0,1.09.06C32.76,40.42,33.38,40.27,34.19,40.25Z"/><path class="cls-2" d="M26.85,40.72l.38,0a9.32,9.32,0,0,0,1.75,0l-.26,0c-.34,0-.38,0-.08.06a16.89,16.89,0,0,0-2,0S26.67,40.71,26.85,40.72Z"/><path class="cls-2" d="M26.24,40.66l.39,0h0l-.4,0Z"/><path class="cls-2" d="M37.56,40.65l1.25,0,1.21.06,2.36.14a1,1,0,0,1,.36,0l.36.07.67.06H44c.13,0,.09,0,0,0l-.23-.06L44,41l.36.06c.21,0,.42,0,.65.05L44.39,41H43.9l1.54.13.32,0a3.75,3.75,0,0,1,1,.1l.27,0,0,0,.1,0,1.16.14H49l.25.08a3,3,0,0,1,.44,0l-.57-.16c-.25-.08-.59.06-.89-.08.3.14.64,0,.89.08l.57.16.61.06.6.14a4.18,4.18,0,0,1-.65-.07c-.2,0-.39-.08-.56-.13a3,3,0,0,0-.44,0L49,41.44h-.78l1.14.13.58.06.29,0,.29,0,1.87.26.92.13.45.07.46.07,1.82.29.9.15.91.16c1.2.23,2.42.44,3.64.71l1.86.4,1.89.46,1,.25,1,.28,1,.27c.33.1.67.18,1,.29l2,.6c.32.09.64.2,1,.31l.95.32.94.32.93.33.92.32.46.16.45.17,1.8.67,1.78.7a56.19,56.19,0,0,1,7,3.38l1.59.89,1.85,1.06c1.26.73,2.48,1.49,3.29,2a7,7,0,0,0,1.17.61c.23.09.33.06.37,0s-.14-.47-.18-.52a8.42,8.42,0,0,0-1.91-1.66c-.79-.54-1.77-1.16-3.18-2.09a5.66,5.66,0,0,1,.48.33c.08.07.09.09,0,.08l-.29-.12-.54-.28-.73-.4-.81-.46c-.56-.33-1.13-.66-1.58-1L86.49,51c-.18-.11-.36-.22-.55-.32-.37-.21-.77-.43-1.18-.64l-1.29-.6-.33-.15-.34-.14-.69-.28c-.93-.39-1.89-.73-2.84-1.09-.24-.1-.47-.18-.71-.26l-.71-.26-.7-.26-.34-.13-.34-.13L75,46.19l-.76-.25-.81-.25-1.06-.36-.53-.17L71.35,45c-.71-.22-1.42-.42-2.12-.62C67.81,44,66.4,43.63,65,43.33s-2.88-.6-4.36-.9L58.36,42l-1.14-.2-1.16-.19c-.83-.12-1.61-.22-2.35-.29l-2.17-.18-.78-.09L50,41l-1.4-.17-1.84-.16-1.68-.06,1.67.09,1.77.15c.89.08-.64.08-1.24,0-.25,0-.64-.17-.89-.16-.56,0-1.07,0-1.66,0-.26,0-.22-.11-.35-.11-.4,0-.76,0-1.09,0h-.46a2.6,2.6,0,0,1-.4,0l-1.09-.11c-.22,0-.44,0-.67,0h-.44a.3.3,0,0,1,.19.14l-.72-.08.72.08a.3.3,0,0,0-.19-.14H38.54l-1.75,0h0a17,17,0,0,1,2,.12c-.29,0-.26-.06.09-.06l.26.07h-.89a6,6,0,0,1-.86-.08l-.39,0c-.18,0-.17-.06-.21-.09h-.4C36.69,40.55,37.56,40.65,37.56,40.65Z"/><path class="cls-2" d="M44.41,41l-.32,0,1.29.12A3.75,3.75,0,0,0,44.41,41Z"/><path class="cls-2" d="M23,24.94l.82,0-.41,0A1.34,1.34,0,0,0,23,24.94Z"/><path class="cls-2" d="M24.59,25h0Z"/><path class="cls-2" d="M26,25c-.25,0-.49,0-.72,0Z"/><path class="cls-2" d="M24.88,24.94c.08,0,.12,0,0,0h.42Z"/><path class="cls-2" d="M24.88,24.94l-.27,0Z"/><path class="cls-2" d="M25.25,24.54c.14,0,.1.11.39.09.66,0,1.23,0,1.85,0,.29,0,.73.14,1,.12.67,0,2.37-.07,1.37-.11-1.5-.06-2.49-.07-3.84-.12-1.1,0-2.16.05-3.28.06-.32,0-.61,0-.91,0l1.22.08C23.64,24.68,24.34,24.55,25.25,24.54Z"/><path class="cls-2" d="M17,24.83l.43,0a11.51,11.51,0,0,0,1.95,0l-.29-.06c-.38,0-.42,0-.09.06a21.3,21.3,0,0,0-2.25-.07S16.82,24.81,17,24.83Z"/><path class="cls-2" d="M16.34,24.75h.43l-.44,0Z"/><path class="cls-2" d="M29,25l1.39.07,1.36.1,2.63.2a1.33,1.33,0,0,1,.4,0l.41.08.75.07.26,0h0c.14,0,.1,0,0,0L36,25.47l.26.06a3.27,3.27,0,0,0,.4.07l.72.07a6.27,6.27,0,0,1-.72-.07l-.43,0h-.12l1.72.18.36,0a4.42,4.42,0,0,1,1.08.13l.3,0,0,0,.11,0,1.29.17.87,0,.28.09a2.64,2.64,0,0,1,.49,0c-.23-.06-.43-.13-.63-.17s-.66,0-1-.12c.33.15.71,0,1,.12s.4.11.63.17a7.19,7.19,0,0,1,1.36.24,6.67,6.67,0,0,1-1.36-.24,2.64,2.64,0,0,0-.49,0l-.28-.09-.87,0,1.28.17,1.29.18,2.08.32c.69.11,1.37.21,2.05.33l2,.36,1,.17,1,.2,2,.4.51.1.51.11,1,.23,2.07.46,2.11.53c3.08.79,6,1.65,8.84,2.62l1.05.36,1,.37,1,.36.52.17.51.19,2,.74,2,.78A71.9,71.9,0,0,1,84.8,39c.5.29,1.12.61,1.79,1l1,.56,1.07.59c1.42.79,2.81,1.61,3.74,2.21a10.14,10.14,0,0,0,1.31.67c.26.09.37.07.41,0s-.2-.5-.25-.55a10.68,10.68,0,0,0-2.19-1.78c-.9-.57-2-1.24-3.62-2.24a6.48,6.48,0,0,1,.55.35c.1.07.11.1.06.09a1.88,1.88,0,0,1-.32-.14l-.62-.3L87,39,86,38.49c-.63-.36-1.27-.71-1.79-1l-.57-.36-.62-.35c-.43-.23-.87-.46-1.34-.68-.93-.44-1.93-.89-3-1.29L78,34.46l-.4-.16-.4-.14-1.59-.6-.4-.15-.4-.14L74,33l-1.55-.58-1.59-.55L70,31.57l-.9-.28-1.19-.4-.6-.19c-.19-.07-.39-.12-.59-.18l-2.37-.7L62,29.19,61.38,29l-.3-.08-.3-.07-1.19-.28-1.2-.27-.61-.14-.6-.13-2.45-.51c-.41-.09-.83-.16-1.25-.24l-1.25-.24L51,26.84l-1.29-.22c-.92-.16-1.79-.28-2.62-.38L44.62,26c-.57-.07-1.16-.17-1.72-.26s-1.09-.16-1.56-.21c-.73-.09-1.41-.16-2.05-.22l-1-.07-.91,0,.95.07.91.08,2,.2c1,.11-.72.07-1.38,0-.28,0-.71-.19-1-.2-.62-.05-1.19-.06-1.85-.09-.29,0-.24-.11-.39-.11-.45,0-.85,0-1.21,0a9.29,9.29,0,0,1-1,0L33.23,25c-.24,0-.48-.05-.74-.06H32a.41.41,0,0,1,.21.14l-.81-.1.81.1a.41.41,0,0,0-.21-.14h-.93l-1,0H28.17a19.29,19.29,0,0,1,2.24.18c-.33,0-.29-.08.09-.06l.29.08h-1c-.33,0-.65-.05-1-.1h-.43c-.21,0-.2-.06-.24-.09h-.44C28,24.92,29,25,29,25Z"/><path class="cls-2" d="M36.66,25.61l-.36,0,1.44.16A5,5,0,0,0,36.66,25.61Z"/><path class="cls-2" d="M29.51,38.06h.75l-.38,0A1.38,1.38,0,0,0,29.51,38.06Z"/><path class="cls-2" d="M31,38h0Z"/><path class="cls-2" d="M32.27,38c-.23,0-.45,0-.67,0Z"/><path class="cls-2" d="M31.22,38c.09,0,.12,0,0,0h.39Z"/><path class="cls-2" d="M31.22,38,31,38Z"/><path class="cls-2" d="M31.55,37.73c.14,0,.11.07.37.06.61,0,1.14,0,1.71,0,.27,0,.68.07.94.06l1.21,0c.36,0,.52,0,.06,0l-1,0H32.28l-.76,0h-.37l-.38,0-1.53.08h.3c.27,0,.56,0,.89,0S31.14,37.73,31.55,37.73Z"/><path class="cls-2" d="M24,38.24l.39,0a14,14,0,0,0,1.81-.09l-.28,0c-.35,0-.39,0-.07,0-.72,0-1.4,0-2.09.06C23.78,38.22,23.77,38.24,24,38.24Z"/><path class="cls-2" d="M23.33,38.23l.4,0h0l-.41,0Z"/><path class="cls-2" d="M35.05,38l2.55.09,1.23,0L40,38.2a1.52,1.52,0,0,1,.37,0l.38,0,.69,0h.26c.13,0,.09,0,0,0l-.24-.05.24.05.38,0,.66,0-.66,0h-.51c.26,0,.53,0,.79.06l.8.08.33,0a7.26,7.26,0,0,1,1,.1l.29,0h-.06l.11,0,.6.06.3,0,.3,0,.8.05.27.07a4,4,0,0,1,.45,0L47,38.74a8.18,8.18,0,0,1-.92-.11,8.18,8.18,0,0,0,.92.11l.59.13a11.24,11.24,0,0,1,1.26.18,6.67,6.67,0,0,1-1.26-.18,4,4,0,0,0-.45,0l-.27-.07-.8-.05,2.38.3A134.36,134.36,0,0,1,63.69,41.9l1.07.27,1,.29c.7.19,1.39.37,2.07.57l2,.61.5.15.5.16,1,.33C74.52,45.14,77,46,79.5,47s4.92,2,7.42,3.22c1,.47,2.33,1.13,3.69,1.81s2.69,1.38,3.58,1.89c1.23.62,1.56.72,1.59.61s-.26-.37-.32-.41a13.4,13.4,0,0,0-2.17-1.44c-.42-.24-.91-.49-1.47-.8l-2-1.08c1,.57.63.41-.28,0-.46-.23-1-.5-1.64-.8s-1.2-.6-1.69-.87a42.53,42.53,0,0,0-5.16-2.31l-.73-.28-.73-.27-1.48-.54-1.47-.52-1.44-.51c-.94-.33-2-.66-3.1-1-1.47-.5-2.93-.92-4.39-1.33l-2.19-.58L65,41.56l-.55-.13-1.1-.26-1.11-.26-1.12-.24-2.26-.47-2.32-.45L56,39.64l-.6-.1-1.19-.2c-.43-.08-.84-.14-1.25-.2l-.59-.08L51.73,39l-2.23-.25c-1.06-.12-2.18-.28-3-.39-.67-.08-1.3-.12-1.9-.17l-1.73-.11,1.72.13.86.07.46,0,.5.06c.93.11-.65,0-1.26,0-.27,0-.67-.13-.94-.14-.57-.05-1.09-.06-1.71-.1-.26,0-.23-.08-.36-.08-.84,0-1.49,0-2,0L39,37.89l-.34,0-.35,0h-.45a.38.38,0,0,1,.2.08l-.75,0,.75,0a.38.38,0,0,0-.2-.08H34.27c.69,0,1.36,0,2.08.1-.31,0-.27,0,.08,0l.27,0a15.31,15.31,0,0,1-1.81-.07l-.4,0c-.19,0-.18,0-.22-.06h-.41l.7.06.35,0Z"/><path class="cls-2" d="M42.14,38.32h-.33c.45,0,.89.07,1.34.12A6.08,6.08,0,0,0,42.14,38.32Z"/><path class="cls-2" d="M28.52,27.68l.75,0-.37,0A1.55,1.55,0,0,0,28.52,27.68Z"/><path class="cls-2" d="M30,27.72h0Z"/><path class="cls-2" d="M31.28,27.75l-.67,0A6.45,6.45,0,0,0,31.28,27.75Z"/><path class="cls-2" d="M30.24,27.69c.08,0,.12,0,0,0h.39Z"/><path class="cls-2" d="M30.24,27.69l-.25,0Z"/><path class="cls-2" d="M30.58,27.44c.13,0,.09.07.36.07.61,0,1.13,0,1.71,0,.26,0,.67.1.93.1.61,0,2.18,0,1.26,0l-.5,0h-.46l-.86,0-1.72-.06-.76,0H28.27l-.84,0,1.13.06C29.09,27.52,29.74,27.43,30.58,27.44Z"/><path class="cls-2" d="M23,27.6l.39,0a15.61,15.61,0,0,0,1.81,0l-.27,0c-.35,0-.39,0-.08,0-.71-.05-1.39-.05-2.08,0A.39.39,0,0,0,23,27.6Z"/><path class="cls-2" d="M22.36,27.56h.39l-.41,0Z"/><path class="cls-2" d="M34.05,27.82l.33,0,.32,0,.63.05,1.26.09c.82.07,1.63.12,2.42.21a1.73,1.73,0,0,1,.38,0c.12,0,.24.05.37.06l.69.08.25,0h0c.14,0,.1,0,0,0l-.24-.05.24.05.37.06.66.06-.66-.06-.39,0h-.12l.8.09.79.09.33,0a6.35,6.35,0,0,1,1,.15l.29,0h-.06l.11,0,1.19.16c.26,0,.53,0,.8.07l.26.07.45,0L46,29a2,2,0,0,0-.44-.05,1.3,1.3,0,0,1-.48-.07,1.3,1.3,0,0,0,.48.07A2,2,0,0,1,46,29l.58.15a11.38,11.38,0,0,1,1.25.23,7.2,7.2,0,0,1-1.25-.23l-.45,0L45.82,29c-.27,0-.54-.05-.8-.07l1.18.18,1.19.19,1,.15,1,.16,1.88.34.94.17.93.18,1.86.38c.63.12,1.24.27,1.87.41l1.88.43,1.9.47,1,.25,1,.26,2.1.59,2,.62c.68.2,1.35.43,2,.65s1.33.43,2,.67l1.93.68,1.89.69.47.17.46.18.93.36.93.35.91.38a78.23,78.23,0,0,1,7.33,3.37l1.68.86,2,1c1.34.71,2.64,1.45,3.52,2a13.12,13.12,0,0,0,1.22.61c.23.1.32.1.34,0s-.25-.38-.3-.42a12.45,12.45,0,0,0-2.12-1.5c-.84-.5-1.89-1.1-3.39-2,1,.59.62.43-.28,0L86.51,41c-.59-.31-1.18-.63-1.67-.91-.7-.41-1.49-.82-2.36-1.22s-1.78-.8-2.73-1.2c-1.91-.76-3.93-1.52-5.8-2.21-.46-.18-.94-.36-1.45-.53l-1.61-.55c-.73-.26-1.46-.49-2.19-.73l-1.08-.35L66.53,33l-1.08-.32-1.09-.31-2.19-.58c-.36-.1-.73-.18-1.1-.27L60,31.23,58.84,31l-1.13-.24-1.14-.26L56,30.34c-.19-.05-.39-.09-.58-.12l-2.36-.48-.63-.12-.61-.1-1.17-.17-1.13-.17L49,29.11,48.43,29c-1-.14-2.17-.35-3-.48-1.34-.16-2.5-.29-3.61-.39l3.52.4c.23,0,.31,0,.28.05h-.33l-1.21-.08c-.26,0-.66-.15-.92-.17l-.84-.08-.42,0-.45,0c-.26,0-.22-.08-.35-.08-.84-.07-1.49,0-2-.11l-.57-.08-.28,0-.27,0-.68-.06H36.8a.46.46,0,0,1,.2.09l-.75-.08.75.08a.46.46,0,0,0-.2-.09c-1.1,0-2.36-.11-3.54-.12h0c.35,0,.69,0,1,.06s.69.07,1,.11c-.31,0-.27-.05.09,0l.26.06-.91-.05-.45,0-.44-.05H33.5c-.2,0-.19-.05-.23-.07h-.4C33.15,27.73,34.05,27.82,34.05,27.82Z"/><path class="cls-2" d="M41.11,28.42l-.33,0,1.33.15A6,6,0,0,0,41.11,28.42Z"/><path class="cls-2" d="M94.21,81.67v-.25a.93.93,0,0,1,0,.13S94.19,81.63,94.21,81.67Z"/><path class="cls-2" d="M94.21,81.19V81.1A.28.28,0,0,1,94.21,81.19Z"/><path class="cls-2" d="M94.18,80.75a1.61,1.61,0,0,0,0,.22A.8.8,0,0,0,94.18,80.75Z"/><path class="cls-2" d="M94.15,81.1s0,0,0,0h0a.69.69,0,0,0,0-.13A.28.28,0,0,1,94.15,81.1Z"/><path class="cls-2" d="M94.15,81.1a.59.59,0,0,1,0,.08A.2.2,0,0,0,94.15,81.1Z"/><path class="cls-2" d="M93.74,81s.1,0,.08-.13a2.84,2.84,0,0,1-.1-.57c0-.08.1-.22.07-.31s-.2-.72-.19-.41c0,.46.06.76.09,1.18s.12.66.17,1c0,.1,0,.19,0,.28,0-.12,0-.24.05-.38S93.77,81.27,93.74,81Z"/><path class="cls-2" d="M94.17,83.52a1.11,1.11,0,0,0,0-.13,1.15,1.15,0,0,0,0-.61l-.06.09c0,.12,0,.13.07,0a1.82,1.82,0,0,0-.06.69S94.16,83.58,94.17,83.52Z"/><path class="cls-2" d="M94.1,83.73s0-.09,0-.14h0a.59.59,0,0,0,0,.13Z"/><path class="cls-2" d="M94.05,79.83c0-.58,0-1.13,0-1.66,0,0-.05-.07,0-.13a.5.5,0,0,0,0-.13v-.23s0-.05,0-.08h0s0,0,0,0a.79.79,0,0,1,0,.09.63.63,0,0,1,0-.09.35.35,0,0,0,0-.12,1.62,1.62,0,0,1,0-.22.56.56,0,0,1,0,.22s0,.09,0,.13v0c0-.18,0-.36,0-.53A.53.53,0,0,1,94,77a.46.46,0,0,1,0-.33v-.08a0,0,0,0,1,0,0c0-.14,0-.27,0-.41a1.11,1.11,0,0,1-.07-.26l0-.09a.34.34,0,0,1-.06-.15c0,.07-.07.14-.09.2s.12.2,0,.31c.11-.11-.07-.22,0-.31s.06-.13.09-.2a.93.93,0,0,1,.05-.43.56.56,0,0,1-.05.43.34.34,0,0,0,.06.15l0,.09a1.11,1.11,0,0,0,.07.26c0-.26,0-.52,0-.8,0-1.74,0-3.35,0-5.16,0-1,0-1.93.1-2.85.1-1.85-.08-3.53.18-5.39a22.58,22.58,0,0,0,0-2.73c-.21-.92-.7-.44-.73-.39-.42.57-.17,1-.4,2.17.13-.79.28.58,0,1.33-.42,1.08,0,2.61-.13,3.94,0,.33,0,.68,0,1.08-.11,2.06.11,4,.11,6.13a11.62,11.62,0,0,0,.2,1.56c0,.35,0,.73,0,1a8.62,8.62,0,0,0,.11,1.21c0-.41-.06-.72-.09-1.18,0-.31.15.21.19.42s-.1.22-.07.31a4,4,0,0,0,.09.57c0,.09-.09.08-.07.12,0,.28.18.49.15.67s0,.26,0,.38a1.69,1.69,0,0,0,0,.23s0,.1,0,.15a.24.24,0,0,1,.13-.07c0,.07,0,.17,0,.25,0-.08,0-.18,0-.25a.24.24,0,0,0-.13.07c.08.36.15.78.21,1.18h0a2,2,0,0,1,0-.69c0,.1,0,.09-.06,0l0-.09a1,1,0,0,1,0,.6L94,80c0,.07,0,.07-.08.08a.66.66,0,0,0,0,.14A2.92,2.92,0,0,0,94.05,79.83Z"/><path class="cls-2" d="M94,77.46s0,.07,0,.11v-.44A.58.58,0,0,0,94,77.46Z"/><path class="cls-2" d="M91.81,38.1,92,38h-.1S91.83,38.07,91.81,38.1Z"/><path class="cls-2" d="M92.13,38h0l0,0Z"/><path class="cls-2" d="M92.41,37.83l-.15.07A.34.34,0,0,0,92.41,37.83Z"/><path class="cls-2" d="M92.17,37.9s0,0,0,.05h0l.08-.05Z"/><path class="cls-2" d="M92.17,37.9l-.07,0Z"/><path class="cls-2" d="M92.08,37.49s.06.09.11,0a2.36,2.36,0,0,1,.34-.24s.19,0,.24,0,.4-.37.2-.28-.48.25-.75.39l-.6.41-.19.06.27,0C91.83,37.79,91.91,37.59,92.08,37.49Z"/><path class="cls-2" d="M90.57,38.54l.07-.07a.54.54,0,0,0,.4-.15l-.08,0c-.07,0-.07.07,0,.07a1,1,0,0,0-.49.13S90.52,38.55,90.57,38.54Z"/><path class="cls-2" d="M90.4,38.53l.08,0h0l-.09.05Z"/><path class="cls-2" d="M93,37.48c.38-.16.74-.31,1.09-.44,0,0,0-.07.07-.07h.1l.16-.06,0,0h0s0,0,0,0l-.07,0,.07,0h.1a.59.59,0,0,1,.14-.06l-.14.06-.08.05,0,0,.35-.13.07,0c.08,0,.16-.1.23-.06l.07,0h0l.27-.1.15-.13.08,0a.19.19,0,0,1,.08-.1l-.17,0c-.08,0-.09.16-.2.09.11.07.12-.12.2-.09l.17,0a.42.42,0,0,1,.3-.06.3.3,0,0,1-.3.06.19.19,0,0,0-.08.1l-.08,0-.15.13.54-.19c.42-.15.83-.3,1.23-.46l1.16-.45.93.29c.66.22,1.3.44,1.92.68a30.66,30.66,0,0,1,3.63,1.27,10.72,10.72,0,0,0,1.87.54c.69,0,.49-.58.47-.62-.28-.51-.65-.37-1.38-.83.5.29-.47.16-.91-.26-.62-.63-1.77-.57-2.65-.93-.23-.09-.47-.14-.74-.22A14,14,0,0,0,100,34.9l-.74-.18-.38-.09-.09,0-.15,0-.37-.09-.79.35-.61.25a6,6,0,0,0-1,.58c-.22.11-.49.16-.68.24a4.47,4.47,0,0,0-.76.42l.75-.39c.2-.09-.08.2-.21.29s-.18,0-.23,0a1.51,1.51,0,0,0-.34.24s-.09-.07-.11,0c-.18.1-.26.29-.39.31l-.27.06-.15.05-.09.07a.22.22,0,0,1,.09.1l-.18,0,.18,0a.22.22,0,0,0-.09-.1,7.41,7.41,0,0,1-.71.49h0a1.1,1.1,0,0,1,.48-.12c-.08,0-.08,0,0-.07l.09,0a.63.63,0,0,1-.41.15l-.07.07s-.06,0-.08-.06l-.09,0A1.9,1.9,0,0,0,93,37.48Z"/><path class="cls-2" d="M94.53,36.83l-.07,0,.3-.1C94.69,36.74,94.61,36.78,94.53,36.83Z"/><path class="cls-2" d="M95.44,42.37l.12,0-.08,0S95.45,42.34,95.44,42.37Z"/><path class="cls-2" d="M95.67,42.29h0Z"/><path class="cls-2" d="M95.86,42.18a.31.31,0,0,0-.1,0A.19.19,0,0,0,95.86,42.18Z"/><path class="cls-2" d="M95.69,42.22s0,0,0,.05h0l.06,0Z"/><path class="cls-2" d="M95.69,42.22l-.06,0Z"/><path class="cls-2" d="M95.59,41.82s0,.09.08,0a.94.94,0,0,1,.24-.18s.14.05.17,0,.27-.3.13-.24l-.53.27-.41.32-.13,0,.19,0C95.42,42.07,95.47,41.89,95.59,41.82Z"/><path class="cls-2" d="M94.56,42.63l0-.06a.28.28,0,0,0,.29-.09l-.06,0c-.06,0,0,.06,0,.07a.46.46,0,0,0-.35.06S94.52,42.63,94.56,42.63Z"/><path class="cls-2" d="M94.43,42.6l.06,0h0l-.06,0Z"/><path class="cls-2" d="M96.25,41.92l.77-.29s0-.05,0-.05h.07l.11,0,0,0h0s0,0,0,0l0,0,0,0h.07l.1,0a.24.24,0,0,1-.1,0l0,0h0l.25-.08,0,0c.06,0,.11-.07.17,0l0,0h0l.19-.06.1-.11.06,0a.22.22,0,0,1,0-.08l-.12,0c-.07,0-.06.14-.15.06.09.08.08-.1.15-.06l.12,0a.24.24,0,0,1,.22,0c-.06.07-.14.05-.22,0a.22.22,0,0,0,0,.08l-.06,0-.1.11.38-.11.34-.1.1,0,.11,0,.25.07.52.14,1,.3c.46.15.91.31,1.34.48a16,16,0,0,1,2.54.89,4.71,4.71,0,0,0,1.31.35c.49-.08.37-.62.36-.65-.18-.48-.45-.3-1-.68.35.23-.34.2-.63-.17-.42-.56-1.24-.39-1.86-.66-.15-.06-.32-.08-.51-.14a29.3,29.3,0,0,0-3-.71l-.27,0h-.22l-.22,0-.37.22a4.27,4.27,0,0,1-.48.15,2.23,2.23,0,0,0-.53.3c.18-.09.31-.18.52-.27s0,.17-.13.24-.14-.06-.17,0a1,1,0,0,0-.23.19s-.07-.07-.09,0-.16.25-.26.25l-.19,0a.23.23,0,0,0-.11,0l-.06.06a.27.27,0,0,1,.08.1h0a.27.27,0,0,0-.08-.1c-.14.13-.32.26-.48.38h0a.49.49,0,0,1,.34,0c-.06,0-.06,0,0-.07l.06,0a.27.27,0,0,1-.28.09l0,.06s0,0-.06-.07l-.06,0A1.07,1.07,0,0,0,96.25,41.92Z"/><path class="cls-2" d="M97.34,41.5l0,0,.21-.07C97.45,41.42,97.4,41.46,97.34,41.5Z"/><path class="cls-2" d="M93.88,41.16l.13,0h-.07S93.9,41.14,93.88,41.16Z"/><path class="cls-2" d="M94.14,41.07h0l0,0Z"/><path class="cls-2" d="M94.35,41l-.11,0Z"/><path class="cls-2" d="M94.17,41s0,0,0,0h0l.06,0Z"/><path class="cls-2" d="M94.17,41h0Z"/><path class="cls-2" d="M94.12,40.75s0,0,.08,0a1.47,1.47,0,0,1,.28-.18s.14,0,.18,0,.33-.27.17-.2-.38.2-.59.3l-.49.3a.94.94,0,0,1-.15.06l.21-.05C93.91,41,94,40.82,94.12,40.75Z"/><path class="cls-2" d="M92.91,41.52l.06-.05a.45.45,0,0,0,.31-.12h-.06c-.06,0-.06,0,0,0a.94.94,0,0,0-.37.11A0,0,0,0,0,92.91,41.52Z"/><path class="cls-2" d="M92.78,41.53l.07,0h0l-.06,0Z"/><path class="cls-2" d="M94.81,40.69l.86-.35s0-.05.06-.05h.07l.12,0,0,0h0s0,0,0,0H96l.11,0-.11,0-.07,0h0l.28-.1,0,0c.06,0,.13-.08.18-.06l.05,0h0l.21-.08.12-.1.06,0,.07-.07-.13,0c-.06,0-.08.12-.16.08.08,0,.1-.09.16-.08l.13,0a.44.44,0,0,1,.23-.06.26.26,0,0,1-.23.06l-.07.07-.06,0-.12.1.42-.16.85-.32.8-.32.48.12.53.13c.54.15,1,.29,1.54.45,1,.31,1.93.42,2.91.83a11.52,11.52,0,0,0,1.49.36c.54,0,.34-.38.32-.41-.25-.33-.52-.24-1.12-.54.41.19-.36.1-.73-.17s-1.41-.37-2.12-.61c-.18-.06-.38-.09-.59-.14a13,13,0,0,0-1.3-.33l-.66-.13-.33-.06-.17,0-.3-.07-.47.2-.35.15a5.56,5.56,0,0,0-.77.44c-.18.08-.39.13-.53.2a3.47,3.47,0,0,0-.61.31l.6-.3c.16-.07-.08.14-.17.2s-.15,0-.19,0a2.92,2.92,0,0,0-.27.17s-.06,0-.08,0-.21.21-.31.23l-.21.05-.12,0-.07,0a.1.1,0,0,1,.06.05l-.14,0,.14,0a.1.1,0,0,0-.06-.05c-.17.12-.38.24-.57.36h0a1.06,1.06,0,0,1,.37-.1c-.06,0-.06,0,0-.05l.06,0a.6.6,0,0,1-.32.12l0,.05a.06.06,0,0,1-.06,0l-.07,0A1.49,1.49,0,0,0,94.81,40.69Z"/><path class="cls-2" d="M96,40.18l0,0,.23-.09A.28.28,0,0,0,96,40.18Z"/><path class="cls-2" d="M92.89,40.05,93,40H93S92.91,40,92.89,40.05Z"/><path class="cls-2" d="M93.16,39.94h0Z"/><path class="cls-2" d="M93.39,39.82l-.12,0A.31.31,0,0,0,93.39,39.82Z"/><path class="cls-2" d="M93.19,39.89s0,0,0,0h0l.07-.05Z"/><path class="cls-2" d="M93.19,39.89h0Z"/><path class="cls-2" d="M93.15,39.62s0,.05.08,0a2.38,2.38,0,0,1,.3-.18s.15,0,.19,0,.35-.29.19-.21l-.64.32-.52.33a.76.76,0,0,1-.16.06,1.8,1.8,0,0,0,.22-.06C92.92,39.84,93,39.7,93.15,39.62Z"/><path class="cls-2" d="M91.85,40.45l.06-.05a.61.61,0,0,0,.34-.14h-.06c-.07,0-.07.06,0,0a1,1,0,0,0-.4.12A0,0,0,0,0,91.85,40.45Z"/><path class="cls-2" d="M91.71,40.46l.08,0h0l-.07,0Z"/><path class="cls-2" d="M93.88,39.53l.92-.39a.08.08,0,0,1,.06,0h.08l.13-.06,0,0h0s0,0,0,0h.08l.12-.06a.34.34,0,0,1-.12.06l-.07,0h0l.3-.12.06,0c.07,0,.13-.08.19-.06l0,0h0l.23-.09.13-.1h.07a.19.19,0,0,1,.06-.07h-.13c-.07,0-.08.12-.17.08.09,0,.1-.09.17-.08h.13a.42.42,0,0,1,.25-.06.33.33,0,0,1-.25.06.19.19,0,0,0-.06.07h-.07l-.13.1.45-.17c.36-.14.7-.27,1-.42l1-.41.79.23c.57.16,1.11.34,1.64.52,1,.36,2.06.51,3.1,1a11.34,11.34,0,0,0,1.59.43c.56,0,.36-.36.34-.38-.26-.35-.56-.27-1.19-.6.44.2-.38.08-.77-.21a8.52,8.52,0,0,0-2.27-.72l-.63-.17c-.41-.14-.82-.25-1.24-.35l-.63-.15-.31-.07-.16,0-.31-.07-.63.28-.52.23a7.06,7.06,0,0,0-.82.47c-.19.1-.41.15-.57.22a5.41,5.41,0,0,0-.64.35c.22-.12.38-.21.63-.33s-.08.14-.18.21-.15,0-.19,0a1.66,1.66,0,0,0-.3.19s-.06,0-.08,0-.23.22-.34.25l-.22,0-.13.06-.07,0a.18.18,0,0,1,.07.05l-.15,0,.15,0a.18.18,0,0,0-.07-.05l-.61.39h0a1,1,0,0,1,.4-.12c-.07,0-.07,0,0,0l.07,0a.71.71,0,0,1-.34.13l-.06,0a0,0,0,0,1-.06,0l-.08,0A1.42,1.42,0,0,0,93.88,39.53Z"/><path class="cls-2" d="M95.18,39l-.06,0,.25-.1A.34.34,0,0,0,95.18,39Z"/><path class="cls-2" d="M109,85.34h-.17l.08,0S109,85.36,109,85.34Z"/><path class="cls-2" d="M108.66,85.33h0Z"/><path class="cls-2" d="M108.36,85.37h.16A.3.3,0,0,0,108.36,85.37Z"/><path class="cls-2" d="M108.6,85.39s0,0,0,0h0l-.09,0Z"/><path class="cls-2" d="M108.6,85.39l.06,0Z"/><path class="cls-2" d="M108.54,85.8s0-.1-.09-.07a2,2,0,0,1-.39.09c-.06,0-.16-.1-.22-.07s-.5.2-.28.19l.81-.09.7-.16a.61.61,0,0,1,.19,0l-.26,0C108.87,85.62,108.73,85.77,108.54,85.8Z"/><path class="cls-2" d="M110.28,85.38l-.09,0a.51.51,0,0,0-.42,0l.07.06c.08,0,.08,0,0-.07a.9.9,0,0,0,.48.06S110.32,85.39,110.28,85.38Z"/><path class="cls-2" d="M110.43,85.45h-.09l.09,0Z"/><path class="cls-2" d="M107.72,85.49h-1.15s0,0-.08,0l-.09,0h-.22s0,0,0,0l.06,0-.06,0a.14.14,0,0,0-.09,0,.75.75,0,0,1-.15,0,.38.38,0,0,1,.15,0l.09,0h-.42a.26.26,0,0,1-.23,0h-.36l-.18.07-.06-.06a.2.2,0,0,1-.11.06l.14.1c.07,0,.14-.12.22,0-.08-.1-.15.07-.22,0l-.14-.1a.39.39,0,0,1-.29-.05.3.3,0,0,1,.29.05.2.2,0,0,0,.11-.06l.06.06.18-.07-.55,0c-1.21,0-2.32,0-3.58,0-.68,0-1.33,0-2-.1a31.44,31.44,0,0,1-3.74-.19,9.94,9.94,0,0,0-1.89,0,.43.43,0,0,0-.26.73c.4.42.7.17,1.51.41-.55-.13.39-.29.92,0,.75.43,1.81,0,2.73.15.23,0,.47,0,.75,0,1.42.12,2.74-.1,4.24-.1a6.72,6.72,0,0,0,1.08-.19,5.25,5.25,0,0,1,.7,0A5.18,5.18,0,0,0,106,86c-.29,0-.5.06-.82.08s.15-.15.29-.18.15.1.21.07a2,2,0,0,0,.4-.1c.06,0,0,.09.08.08.19,0,.34-.18.46-.15l.26,0H107l.11,0a.22.22,0,0,1,0-.12l.17,0-.17,0a.22.22,0,0,0,0,.12c.25-.07.54-.14.81-.19h0a1.14,1.14,0,0,1-.48-.06c.07,0,.06.05,0,.06l-.06,0a.49.49,0,0,1,.41,0l.09,0c.05,0,.05.06.06.09l.09,0A1.61,1.61,0,0,0,107.72,85.49Z"/><path class="cls-2" d="M106.09,85.52h-.24C105.91,85.56,106,85.54,106.09,85.52Z"/><path class="cls-2" d="M109,89.16h-.18a.18.18,0,0,1,.09,0S109,89.18,109,89.16Z"/><path class="cls-2" d="M108.7,89.15h0Z"/><path class="cls-2" d="M108.4,89.18h.15A.38.38,0,0,0,108.4,89.18Z"/><path class="cls-2" d="M108.64,89.21s0,0,0,0h0l-.09,0A.16.16,0,0,1,108.64,89.21Z"/><path class="cls-2" d="M108.64,89.21l0,0A.1.1,0,0,0,108.64,89.21Z"/><path class="cls-2" d="M108.56,89.62s0-.1-.08-.08a1.46,1.46,0,0,1-.39.09c-.06,0-.15-.1-.21-.08s-.49.2-.28.19.52,0,.8-.08l.69-.14a.62.62,0,0,1,.19,0l-.26-.06C108.9,89.44,108.75,89.59,108.56,89.62Z"/><path class="cls-2" d="M110.28,89.22l-.09,0a.49.49,0,0,0-.41,0,.18.18,0,0,0,.07,0c.08,0,.08,0,0-.06a1,1,0,0,0,.48.07S110.33,89.24,110.28,89.22Z"/><path class="cls-2" d="M110.43,89.3h-.09l.09,0Z"/><path class="cls-2" d="M107.77,89.29h-1.13s0,0-.09,0a.2.2,0,0,0-.08,0h-.22s0,0,0,0l.06,0-.06,0-.08,0H106a.3.3,0,0,1,.16,0l.08,0h-.41a.26.26,0,0,1-.23,0h-.35l-.18.07-.06-.06a.17.17,0,0,1-.1.06,1.1,1.1,0,0,0,.14.09c.06.06.13-.12.21,0-.08-.11-.15.07-.21,0a1.1,1.1,0,0,1-.14-.09.39.39,0,0,1-.29-.06.28.28,0,0,1,.29.06.17.17,0,0,0,.1-.06l.06.06.18-.07-.54,0c-1.19-.07-2.29,0-3.52-.09-.67,0-1.31-.08-1.94-.15a26.84,26.84,0,0,1-3.67-.25,9.55,9.55,0,0,0-1.85,0,.43.43,0,0,0-.27.72c.39.42.69.19,1.47.43-.53-.14.4-.27.91,0,.73.44,1.77.08,2.68.19a6,6,0,0,0,.74,0c1.4.15,2.7,0,4.17,0a6.5,6.5,0,0,0,1.06-.18c.24,0,.5,0,.69,0a4.84,4.84,0,0,0,.82-.1l-.8.07c-.21,0,.15-.15.28-.18s.16.1.22.08a3.1,3.1,0,0,0,.39-.09c.05,0,.05.09.08.08.19,0,.33-.18.45-.15l.26.05h.16l.1,0a.29.29,0,0,1-.05-.13,1,1,0,0,0,.17,0,1,1,0,0,1-.17,0,.29.29,0,0,0,.05.13c.25-.07.54-.14.8-.19h0a1,1,0,0,1-.47-.06c.07,0,.06,0,0,.06l-.06-.06a.53.53,0,0,1,.41,0l.09,0s0,.05,0,.08H108A1,1,0,0,0,107.77,89.29Z"/><path class="cls-2" d="M106.16,89.3h.08l-.31,0C106,89.33,106.07,89.31,106.16,89.3Z"/><path class="cls-2" d="M111.5,94.23h-.22l.11,0S111.46,94.25,111.5,94.23Z"/><path class="cls-2" d="M111.07,94.22h0Z"/><path class="cls-2" d="M110.69,94.25h.19A.42.42,0,0,0,110.69,94.25Z"/><path class="cls-2" d="M111,94.27s0,0,0,0h-.12Z"/><path class="cls-2" d="M111,94.27l.07,0Z"/><path class="cls-2" d="M110.9,94.69s0-.11-.11-.08a3.05,3.05,0,0,1-.5.08c-.08,0-.2-.1-.28-.07s-.64.19-.37.18l1-.07.89-.15.24,0-.33-.06C111.33,94.51,111.14,94.66,110.9,94.69Z"/><path class="cls-2" d="M113.13,94.3l-.11,0a.8.8,0,0,0-.53,0l.08.06c.1,0,.11,0,0-.07a1.44,1.44,0,0,0,.61.07S113.19,94.32,113.13,94.3Z"/><path class="cls-2" d="M113.32,94.37h0Z"/><path class="cls-2" d="M109.87,94.35c-.51,0-1,0-1.47,0,0,0-.06,0-.11,0l-.11,0h-.28s0,0,0,0a.2.2,0,0,1,.08,0l-.08,0-.11,0h-.19a.42.42,0,0,1,.19,0h.15l-.47,0h-.1a.35.35,0,0,1-.29,0h-.46a1.55,1.55,0,0,1-.23.06l-.08-.06a.3.3,0,0,1-.14.06l.18.1c.08.06.18-.12.27,0-.09-.11-.19.07-.27,0l-.18-.1a.62.62,0,0,1-.37-.06.46.46,0,0,1,.37.06.3.3,0,0,0,.14-.06l.08.06a1.55,1.55,0,0,0,.23-.06l-.7,0c-1.55-.08-3-.07-4.57-.12-.87,0-1.7-.08-2.52-.15-1.63-.14-3.12,0-4.77-.28a17.66,17.66,0,0,0-2.41,0c-.82.19-.39.69-.36.72.51.43.9.19,1.92.44-.7-.14.52-.27,1.17,0,.95.44,2.31.09,3.49.2.29,0,.6,0,1,0,1.82.15,3.51,0,5.43,0a11.07,11.07,0,0,0,1.38-.17c.31,0,.64,0,.89,0a6.79,6.79,0,0,0,1.07-.09l-1,.07c-.27,0,.19-.15.37-.18s.2.1.28.08a3.31,3.31,0,0,0,.5-.09c.08,0,.07.09.11.08.24,0,.43-.18.59-.15l.33.06a1.47,1.47,0,0,0,.21,0l.13,0a.22.22,0,0,1-.06-.13l.22,0-.22,0a.22.22,0,0,0,.06.13c.32-.07.7-.13,1-.18v0a1.43,1.43,0,0,1-.61-.06c.09,0,.08,0,0,.06l-.08-.06a.9.9,0,0,1,.54,0l.11,0c.06,0,.06,0,.07.08h.12A1.76,1.76,0,0,0,109.87,94.35Z"/><path class="cls-2" d="M107.78,94.35h-.3A.43.43,0,0,0,107.78,94.35Z"/></svg>