<?xml version="1.0" encoding="utf-8"?>
<!-- Generator: Adobe Illustrator 24.0.2, SVG Export Plug-In . SVG Version: 6.00 Build 0)  -->
<svg version="1.1" id="Layer_1" xmlns="http://www.w3.org/2000/svg" xmlns:xlink="http://www.w3.org/1999/xlink" x="0px" y="0px"
	 viewBox="0 0 1252.6 179.19" style="enable-background:new 0 0 1252.6 179.19;" xml:space="preserve">
<style type="text/css">
	.st0{fill:#172377;}
</style>
<path class="st0" d="M944.21,174.46c-29.51-0.26-59.42-1.77-88.47-5.86c-38.14-5.37-76.2-11.6-113.98-19.07
	c-38.79-7.67-77.23-17.08-115.76-26.04c-47.19-10.98-94.18-22.82-141.48-33.27c-39.25-8.67-78.75-16.34-118.3-23.52
	c-21.9-3.98-44.12-6.19-66.23-8.97c-39.23-4.94-78.66-6.72-118.16-5.62C138.7,53.3,95.85,57.65,53.8,67.83
	c-18.23,4.41-36.26,9.68-54.38,14.56c0-19.21,0-38.41,0-57.62c3.43-0.6,6.92-0.96,10.28-1.82c30.03-7.76,60.54-12.81,91.37-15.67
	c17.74-1.65,35.62-2.67,53.43-2.59c26.4,0.13,52.88,0.36,79.15,2.62c28.61,2.46,57.13,6.54,85.48,11.21
	c61.98,10.19,122.7,25.99,183.08,43.07c48.06,13.59,95.96,27.74,143.96,41.58c53.33,15.37,106.84,30.26,161.4,40.55
	c35.81,6.76,71.96,12.08,108.16,16.38c35.3,4.19,70.9,4.56,106.42,2.3c33.36-2.12,66.41-6.97,98.9-14.93
	c31.91-7.82,63.13-18.45,93.18-31.71c13.22-5.84,26.22-12.19,38.95-19.04c-54.65,34.53-116.72,56.56-180.22,67.81
	c-37.6,6.66-75.68,9.79-113.85,9.97C954.16,174.51,949.19,174.5,944.21,174.46z"/>
</svg>
