<svg id="Layer_1" data-name="Layer 1" xmlns="http://www.w3.org/2000/svg" viewBox="0 0 907.09 907.09"><defs><style>.cls-1{fill:#fff;}</style></defs><title>SIGNS</title><path id="_42" data-name="42" class="cls-1" d="M575.48,244.93c-19.68-24.6-35.26-43.93-35.37-79.77-.12-19.91-.59-30.34-.94-40.53-.59-10.89-1.06-22.25-1.06-46.27C538.11,27.53,493.6,0,451.67,0,430.58,0,410.79,6.68,396,18.74,378.58,33,369,54.23,369,78.36s-.47,35.38-1.05,46.27c-.47,10.19-.94,20.62-.94,40.53-.12,35.84-15.69,55.17-35.37,79.77-24,29.87-53.77,67.12-53.77,138.8V734.31c0,113.39,88.44,172.78,175.7,172.78s175.7-59.39,175.7-172.78V383.73C629.24,312.05,599.49,274.8,575.48,244.93Zm6.91,220H535.54a17.57,17.57,0,1,0,0,35.14h46.85V546.9H535.54a17.57,17.57,0,0,0,0,35.14h46.85v46.85H535.54a17.57,17.57,0,1,0,0,35.14h46.85v46.86H535.54a17.57,17.57,0,1,0,0,35.14h46.38c-5.74,78.36-69.22,114.2-128.38,114.2S330.9,824.39,325.16,746h46.39a17.57,17.57,0,1,0,0-35.14H324.7V664h46.85a17.57,17.57,0,0,0,0-35.14H324.7V582h46.85a17.57,17.57,0,0,0,0-35.14H324.7V500.05h46.85a17.57,17.57,0,1,0,0-35.14H324.7V418.05h46.85a17.57,17.57,0,1,0,0-35.14H324.7c.23-54.7,21.2-80.94,43.45-108.58,21.32-26.71,45.45-56.81,45.68-108.94,0-19,.47-28.58.94-38.65.47-11.48,1.06-23.19,1.06-48.38,0-10.31,3.16-17.92,9.84-23.31,6.32-5.15,15.81-8.2,26-8.2,13.7,0,39.59,6.56,39.59,31.51,0,25.19.59,36.9,1.05,48.38.47,10.07.82,19.68.94,38.65.24,52.13,24.37,82.23,45.68,108.94,22.26,27.64,43.23,53.88,43.46,108.58H535.54a17.57,17.57,0,1,0,0,35.14h46.85Zm-128.85,369c-6.36,0-11.71-7.87-11.71-17.57V136.93c0-9.7,5.35-17.57,11.71-17.57s11.72,7.87,11.72,17.57V816.31C465.26,826,459.91,833.88,453.54,833.88Z"/></svg>