<svg id="Layer_1" data-name="Layer 1" xmlns="http://www.w3.org/2000/svg" viewBox="0 0 907.09 907.09"><defs><style>.cls-1{fill:#fff;fill-rule:evenodd;}</style></defs><title>SIGNS</title><path id="_19" data-name="19" class="cls-1" d="M375.52,444.47H282.84a47,47,0,0,1,92.68,0ZM497.37,566.32H404.69a47,47,0,0,1,92.68,0ZM732.65,331.05H640a47,47,0,0,1,92.68,0Zm15.45,8.07a61.79,61.79,0,1,1-61.8-61.79,61.81,61.81,0,0,1,61.8,61.79ZM615,448.68H522.34a47,47,0,0,1,92.67,0Zm15.46,8.07A61.79,61.79,0,1,1,568.67,395a61.8,61.8,0,0,1,61.8,61.79ZM512.82,574.4A61.79,61.79,0,1,1,451,512.61a61.79,61.79,0,0,1,61.79,61.79Zm98-365.21H518.11a47,47,0,0,1,92.68,0Zm15.45,8.07a61.79,61.79,0,1,1-61.79-61.78,61.78,61.78,0,0,1,61.79,61.78ZM493.16,326.82H400.48a47,47,0,0,1,92.68,0Zm15.45,8.08a61.79,61.79,0,1,1-61.79-61.79,61.79,61.79,0,0,1,61.79,61.79ZM391,452.54a61.79,61.79,0,1,1-61.78-61.79A61.78,61.78,0,0,1,391,452.54ZM260.74,559.25H168.06a47,47,0,0,1,92.68,0ZM382.59,681.1H289.91a47,47,0,0,1,92.68,0ZM398,689.18a61.79,61.79,0,1,1-61.79-61.8A61.79,61.79,0,0,1,398,689.18ZM276.18,567.32a61.79,61.79,0,1,1-61.78-61.79,61.78,61.78,0,0,1,61.78,61.79Zm46.64,333.43A60.32,60.32,0,0,1,280,883.05L20.52,623.54a60.6,60.6,0,0,1,0-85.59L535.09,23.39a60.61,60.61,0,0,1,85.59,0L880.18,282.9a60.6,60.6,0,0,1,0,85.58L365.61,883.05A60.33,60.33,0,0,1,322.82,900.75Zm-8.56-39.07a12.28,12.28,0,0,0,17.13,0L858.81,334.25a12.22,12.22,0,0,0,0-17.12L586.44,44.76a12.22,12.22,0,0,0-17.12,0L41.9,572.2a12.18,12.18,0,0,0,0,17.11Z"/></svg>