<svg id="Layer_1" data-name="Layer 1" xmlns="http://www.w3.org/2000/svg" viewBox="0 0 907.09 907.09"><defs><style>.cls-1{fill:#fff;}</style></defs><title>broshure new color copy</title><path id="_43" data-name="43" class="cls-1" d="M871.87,35.22C833.63-3,769.16,1.72,726.17,44.71L333.37,437.5c-59.63,59.64-85.78,180.79-172.14,267.15l-144,144c-10.79,10.79-10.79,28.17,1.12,40.09s29.29,11.91,40.09,1.11l144-144C288.8,659.5,410,633.35,469.58,573.71l392.8-392.79C905.37,137.93,910.1,73.45,871.87,35.22Zm-91.56,91.56a35.78,35.78,0,1,1-50.65,0A35.81,35.81,0,0,1,780.31,126.78Zm-90.11,90.1a35.81,35.81,0,1,1-50.64,0A35.81,35.81,0,0,1,690.2,216.88ZM564.58,342.5a57.3,57.3,0,0,1,0,81.2L447.1,541.18A57.42,57.42,0,0,1,365.9,460L483.39,342.5A57.28,57.28,0,0,1,564.58,342.5Zm-78.91,125c-22.4,22.4-43.08,26.46-57.68,11.86-12.87-12.87-9.53-33.65,12.07-55.65,22.09-22.1,43.79-24.74,57.17-11.36C511.12,426.21,506.66,446.48,485.67,467.47ZM448.88,432.7c-17.13,17.13-21.6,32.14-13.49,40.25,9.13,9.12,24.13,2.83,41-14,16.22-16.22,22.71-31,13.48-40.25C482,410.9,466.82,414.76,448.88,432.7Z"/></svg>